<svg width="35" height="35" viewBox="0 0 35 35" fill="none" xmlns="http://www.w3.org/2000/svg">
<path d="M8.59749 4.92678C8.85976 5.01488 9.09804 5.16253 9.29367 5.35817C9.48929 5.55381 9.63693 5.7921 9.72501 6.05437C9.75222 6.13606 9.80445 6.20711 9.87429 6.25746C9.94413 6.30781 10.028 6.3349 10.1141 6.3349C10.2002 6.3349 10.2842 6.30781 10.354 6.25746C10.4238 6.20711 10.4761 6.13606 10.5033 6.05437C10.5914 5.79206 10.7391 5.55373 10.9348 5.35809C11.1305 5.16246 11.3689 5.01482 11.6312 4.92678C11.7129 4.89955 11.7839 4.84733 11.8342 4.77749C11.8846 4.70766 11.9116 4.62376 11.9116 4.53768C11.9116 4.4516 11.8846 4.3677 11.8342 4.29787C11.7839 4.22803 11.7129 4.1758 11.6312 4.14858C11.3689 4.06047 11.1305 3.91278 10.9348 3.71708C10.7391 3.52138 10.5914 3.28301 10.5033 3.02065C10.4761 2.93896 10.4238 2.86791 10.354 2.81756C10.2842 2.76721 10.2002 2.74011 10.1141 2.74011C10.028 2.74011 9.94413 2.76721 9.87429 2.81756C9.80445 2.86791 9.75222 2.93896 9.72501 3.02065C9.63691 3.28301 9.48921 3.52138 9.29352 3.71708C9.09782 3.91278 8.85944 4.06047 8.59708 4.14858C8.51542 4.1758 8.44439 4.22803 8.39406 4.29787C8.34373 4.3677 8.31665 4.4516 8.31665 4.53768C8.31665 4.62376 8.34373 4.70766 8.39406 4.77749C8.44439 4.84733 8.51542 4.89955 8.59708 4.92678H8.59749ZM10.1142 4.01986C10.2618 4.21573 10.4361 4.39003 10.6319 4.53768C10.436 4.68527 10.2618 4.85955 10.1142 5.05543C9.96655 4.85956 9.79225 4.68529 9.59636 4.53768C9.79222 4.39001 9.96651 4.21572 10.1142 4.01986Z" fill="#8DC0FC"/>
<path d="M34.3779 6.22904C34.1155 6.14096 33.8771 5.99328 33.6814 5.79758C33.4857 5.60188 33.338 5.36349 33.2499 5.10111C33.2227 5.01945 33.1705 4.94842 33.1007 4.89809C33.0308 4.84776 32.9469 4.82068 32.8608 4.82068C32.7748 4.82068 32.6909 4.84776 32.621 4.89809C32.5512 4.94842 32.499 5.01945 32.4717 5.10111C32.3837 5.36345 32.2361 5.60182 32.0404 5.79752C31.8448 5.99321 31.6065 6.14092 31.3442 6.22904C31.2625 6.25627 31.1915 6.3085 31.1411 6.37833C31.0908 6.44816 31.0637 6.53206 31.0637 6.61814C31.0637 6.70422 31.0908 6.78812 31.1411 6.85796C31.1915 6.92779 31.2625 6.98002 31.3442 7.00724C31.6064 7.09535 31.8447 7.243 32.0404 7.43862C32.236 7.63424 32.3837 7.87251 32.4719 8.13476C32.4991 8.21643 32.5513 8.28745 32.6212 8.33778C32.691 8.38811 32.7749 8.4152 32.861 8.4152C32.9471 8.4152 33.031 8.38811 33.1008 8.33778C33.1706 8.28745 33.2229 8.21643 33.2501 8.13476C33.3382 7.87241 33.4859 7.63404 33.6816 7.43835C33.8773 7.24265 34.1157 7.09495 34.378 7.00683C34.4597 6.97961 34.5307 6.92738 34.581 6.85755C34.6314 6.78771 34.6584 6.70381 34.6584 6.61773C34.6584 6.53165 34.6314 6.44775 34.581 6.37792C34.5307 6.30808 34.4597 6.25586 34.378 6.22863L34.3779 6.22904ZM32.861 7.13603C32.7134 6.9401 32.5391 6.76578 32.3432 6.61814C32.5391 6.47057 32.7134 6.29629 32.861 6.10039C33.0086 6.29628 33.1829 6.47055 33.3788 6.61814C33.1829 6.76578 33.0086 6.9401 32.861 7.13603Z" fill="#8DC0FC"/>
<path d="M30.8035 11.8773C30.7874 11.826 30.7613 11.7783 30.7267 11.737C30.6921 11.6957 30.6497 11.6616 30.6019 11.6367C30.5055 11.5864 30.393 11.5765 30.2892 11.6091C30.1854 11.6417 30.0989 11.7143 30.0486 11.8107C29.9983 11.9072 29.9883 12.0197 30.021 12.1234C30.3692 13.2345 30.501 14.4022 30.4091 15.5629C30.4004 15.6714 30.4351 15.7788 30.5057 15.8616C30.5762 15.9444 30.6767 15.9958 30.7851 16.0045C30.7962 16.0054 30.8073 16.0059 30.8183 16.0059C30.9213 16.0058 31.0206 15.9669 31.0962 15.897C31.1719 15.827 31.2185 15.7312 31.2267 15.6285C31.3271 14.3626 31.1834 13.0892 30.8035 11.8775L30.8035 11.8773Z" fill="#8DC0FC"/>
<path d="M30.0123 10.042C29.8137 9.68659 29.5932 9.3438 29.3522 9.01562C29.2874 8.92898 29.191 8.87144 29.084 8.85553C28.977 8.83963 28.868 8.86665 28.7808 8.9307C28.6936 8.99476 28.6353 9.09067 28.6185 9.19754C28.6017 9.30442 28.6278 9.4136 28.6911 9.50131C28.912 9.80211 29.1141 10.1163 29.2962 10.4421C29.3222 10.4895 29.3574 10.5313 29.3997 10.5651C29.4419 10.5989 29.4905 10.6239 29.5425 10.6389C29.5945 10.6538 29.649 10.6583 29.7027 10.6521C29.7565 10.6459 29.8085 10.6291 29.8557 10.6027C29.9029 10.5763 29.9445 10.5409 29.978 10.4983C30.0114 10.4558 30.0362 10.4071 30.0507 10.355C30.0653 10.3029 30.0694 10.2484 30.0628 10.1947C30.0562 10.141 30.039 10.0891 30.0123 10.042Z" fill="#8DC0FC"/>
<path d="M6.78293 11.5532C6.83618 11.5614 6.89052 11.559 6.94283 11.5461C6.99514 11.5332 7.0444 11.5102 7.08779 11.4782C7.13118 11.4463 7.16785 11.4061 7.1957 11.36C7.22355 11.3139 7.24203 11.2627 7.25009 11.2095C7.3667 10.4473 7.562 9.69928 7.83286 8.97739C8.11027 8.2387 8.46273 7.53041 8.8847 6.86365C8.91426 6.81813 8.9345 6.76719 8.94423 6.7138C8.95396 6.6604 8.95299 6.6056 8.94139 6.55258C8.92979 6.49956 8.90778 6.44936 8.87663 6.40491C8.84549 6.36046 8.80583 6.32263 8.75996 6.29362C8.71409 6.2646 8.66292 6.24498 8.60941 6.2359C8.5559 6.22681 8.50111 6.22843 8.44824 6.24066C8.39536 6.2529 8.34543 6.27552 8.30136 6.30719C8.25728 6.33886 8.21993 6.37897 8.19147 6.42519C7.73942 7.13944 7.36185 7.8982 7.0647 8.68953C6.77407 9.46464 6.56454 10.2678 6.43949 11.0861C6.42312 11.1936 6.45011 11.3032 6.51451 11.3908C6.57891 11.4784 6.67545 11.5368 6.78293 11.5532Z" fill="#8DC0FC"/>
<path d="M20.2268 30.9027C20.5107 30.9027 20.7883 30.8185 21.0243 30.6608C21.2604 30.503 21.4444 30.2788 21.5531 30.0165C21.6617 29.7542 21.6901 29.4656 21.6348 29.1871C21.5794 28.9086 21.4426 28.6528 21.2419 28.4521C21.0411 28.2513 20.7853 28.1146 20.5069 28.0592C20.2284 28.0038 19.9397 28.0322 19.6774 28.1409C19.4151 28.2495 19.1909 28.4335 19.0332 28.6696C18.8755 28.9057 18.7913 29.1832 18.7913 29.4672C18.7917 29.8478 18.9431 30.2126 19.2122 30.4818C19.4813 30.7509 19.8462 30.9023 20.2268 30.9027ZM20.2268 28.8519C20.3485 28.8519 20.4674 28.888 20.5686 28.9556C20.6698 29.0232 20.7486 29.1193 20.7952 29.2317C20.8418 29.3441 20.8539 29.4678 20.8302 29.5872C20.8065 29.7065 20.7479 29.8161 20.6618 29.9022C20.5758 29.9882 20.4662 30.0468 20.3468 30.0706C20.2275 30.0943 20.1038 30.0821 19.9914 30.0356C19.8789 29.989 19.7829 29.9101 19.7153 29.809C19.6476 29.7078 19.6116 29.5888 19.6116 29.4672C19.6117 29.304 19.6766 29.1477 19.792 29.0323C19.9073 28.917 20.0637 28.8521 20.2268 28.8519Z" fill="#8DC0FC"/>
<path d="M24.3284 30.9027C24.6123 30.9027 24.8898 30.8185 25.1259 30.6608C25.362 30.503 25.546 30.2788 25.6546 30.0165C25.7633 29.7542 25.7917 29.4656 25.7363 29.1871C25.6809 28.9086 25.5442 28.6528 25.3434 28.4521C25.1427 28.2513 24.8869 28.1146 24.6084 28.0592C24.33 28.0038 24.0413 28.0322 23.779 28.1409C23.5167 28.2495 23.2925 28.4335 23.1348 28.6696C22.977 28.9057 22.8928 29.1832 22.8928 29.4672C22.8933 29.8478 23.0446 30.2126 23.3138 30.4818C23.5829 30.7509 23.9478 30.9023 24.3284 30.9027ZM24.3284 28.8519C24.45 28.8519 24.569 28.888 24.6702 28.9556C24.7713 29.0232 24.8502 29.1193 24.8968 29.2317C24.9433 29.3441 24.9555 29.4678 24.9318 29.5872C24.908 29.7065 24.8494 29.8161 24.7634 29.9022C24.6774 29.9882 24.5677 30.0468 24.4484 30.0706C24.329 30.0943 24.2053 30.0821 24.0929 30.0356C23.9805 29.989 23.8844 29.9101 23.8168 29.809C23.7492 29.7078 23.7131 29.5888 23.7131 29.4672C23.7133 29.304 23.7782 29.1477 23.8935 29.0323C24.0089 28.917 24.1652 28.8521 24.3284 28.8519Z" fill="#8DC0FC"/>
<path d="M16.1252 30.9027C16.4092 30.9027 16.6867 30.8185 16.9228 30.6608C17.1589 30.503 17.3429 30.2788 17.4515 30.0165C17.5602 29.7542 17.5886 29.4656 17.5332 29.1871C17.4778 28.9086 17.3411 28.6528 17.1403 28.4521C16.9396 28.2513 16.6838 28.1146 16.4053 28.0592C16.1268 28.0038 15.8382 28.0322 15.5759 28.1409C15.3136 28.2495 15.0894 28.4335 14.9316 28.6696C14.7739 28.9057 14.6897 29.1832 14.6897 29.4672C14.6901 29.8478 14.8415 30.2126 15.1106 30.4818C15.3798 30.7509 15.7446 30.9023 16.1252 30.9027ZM16.1252 28.8519C16.2469 28.8519 16.3659 28.888 16.4671 28.9556C16.5682 29.0232 16.6471 29.1193 16.6937 29.2317C16.7402 29.3441 16.7524 29.4678 16.7287 29.5872C16.7049 29.7065 16.6463 29.8161 16.5603 29.9022C16.4742 29.9882 16.3646 30.0468 16.2453 30.0706C16.1259 30.0943 16.0022 30.0821 15.8898 30.0356C15.7774 29.989 15.6813 29.9101 15.6137 29.809C15.5461 29.7078 15.51 29.5888 15.51 29.4672C15.5102 29.304 15.5751 29.1477 15.6904 29.0323C15.8058 28.917 15.9621 28.8521 16.1252 28.8519Z" fill="#8DC0FC"/>
<path d="M18.2987 13.8379C18.1392 14.0402 18.0216 14.2723 17.9529 14.5205C17.8842 14.7688 17.8658 15.0283 17.8986 15.2838C17.9603 15.757 18.1922 16.1915 18.5509 16.5062C18.9097 16.8209 19.3707 16.9941 19.8479 16.9937C19.9313 16.9937 20.0147 16.9884 20.0974 16.978C20.3536 16.9465 20.601 16.8648 20.8256 16.7376C21.0502 16.6104 21.2475 16.4402 21.4062 16.2367C21.5657 16.0344 21.6832 15.8023 21.7519 15.554C21.8206 15.3058 21.8391 15.0463 21.8062 14.7908C21.7545 14.4063 21.5905 14.0456 21.3348 13.7538C21.0791 13.462 20.743 13.2521 20.3686 13.1504C19.9942 13.0487 19.5982 13.0597 19.23 13.182C18.8618 13.3043 18.5378 13.5324 18.2987 13.8379ZM18.9447 14.3438C19.0375 14.2248 19.153 14.1253 19.2843 14.051C19.4157 13.9767 19.5605 13.929 19.7103 13.9107C19.7588 13.9046 19.8076 13.9015 19.8565 13.9015C20.1341 13.9006 20.4026 14.0009 20.6116 14.1835C20.8207 14.3661 20.9561 14.6187 20.9926 14.8939C21.0115 15.0419 21.0007 15.1922 20.9608 15.336C20.9209 15.4798 20.8527 15.6142 20.7602 15.7314C20.6208 15.9093 20.4322 16.0424 20.2178 16.1139C20.0034 16.1854 19.7726 16.1923 19.5543 16.1337C19.3361 16.075 19.1398 15.9535 18.9901 15.7841C18.8404 15.6148 18.7439 15.4051 18.7124 15.1813C18.6935 15.0332 18.7042 14.8828 18.7441 14.739C18.784 14.5951 18.8522 14.4607 18.9447 14.3435V14.3438Z" fill="#8DC0FC"/>
<path d="M33.3951 13.3304C33.1494 11.4065 32.4434 9.57016 31.337 7.97715C30.0605 6.14954 28.3087 4.70573 26.2709 3.8019C24.2332 2.89806 21.987 2.56861 19.7756 2.84917C16.604 3.24566 13.742 4.87746 11.7181 7.44292C10.2065 9.35917 9.31971 11.5992 9.12318 13.9216C7.96085 14.0157 6.87643 14.5435 6.08539 15.4004C5.29435 16.2572 4.85458 17.3802 4.85345 18.5463V22.8625C4.85273 23.0989 4.75834 23.3255 4.59094 23.4925C4.42355 23.6595 4.1968 23.7534 3.96034 23.7535C3.48539 23.7513 3.01469 23.843 2.57526 24.0232C2.13582 24.2034 1.73631 24.4686 1.39965 24.8036C1.06298 25.1386 0.795809 25.5369 0.613457 25.9754C0.431105 26.414 0.337167 26.8842 0.337036 27.3592C0.336906 27.8341 0.430585 28.3044 0.612696 28.743C0.794807 29.1817 1.06176 29.5801 1.39824 29.9153C1.73472 30.2505 2.13409 30.5159 2.57342 30.6963C3.01276 30.8768 3.48341 30.9687 3.95836 30.9668H9.55501C9.6312 31.3327 9.83078 31.6615 10.1203 31.8979C10.4099 32.1343 10.7719 32.2641 11.1457 32.2656H29.3079C30.2071 32.2656 30.9667 31.5278 30.9667 30.6286V28.3055C30.9616 27.9202 30.8222 27.5488 30.5726 27.2552C30.3231 26.9616 29.979 26.7643 29.5995 26.6971V23.7154C31.0128 22.4112 32.0945 20.7886 32.7546 18.9824C33.4148 17.1762 33.6344 15.2385 33.3951 13.3304ZM12.3614 7.95124C14.251 5.55579 16.9196 4.03316 19.8759 3.66313C22.2643 3.35715 24.6882 3.81783 26.7978 4.9787C26.832 4.9975 26.8662 5.01746 26.9 5.03667L19.7838 11.2048C19.6462 11.2075 19.5088 11.2174 19.3723 11.2345C18.8697 11.2962 18.3842 11.4564 17.9436 11.7059C17.503 11.9555 17.116 12.2894 16.8046 12.6887C16.4921 13.0848 16.2619 13.5394 16.1273 14.0256C15.9927 14.5119 15.9565 15.0201 16.0208 15.5205C16.265 17.4539 17.9287 18.8706 19.8429 18.8706C20.0066 18.8706 20.1702 18.8603 20.3326 18.8397C20.4628 18.8233 20.5911 18.8005 20.7175 18.7714L28.7792 23.7769V24.6093H11.621V22.9356C11.6316 21.7716 11.3884 20.6192 10.9085 19.5587C10.4233 18.4978 10.1071 17.3676 9.97131 16.2091C9.62015 13.2784 10.4726 10.3457 12.3614 7.95124ZM19.8613 12.0244C20.597 12.0227 21.3082 12.289 21.8619 12.7734C22.4157 13.2579 22.7741 13.9274 22.8701 14.6569C22.9205 15.0498 22.892 15.4489 22.7862 15.8306C22.6805 16.2124 22.4996 16.5693 22.2543 16.8803C22.0087 17.195 21.7035 17.4582 21.3562 17.6548C21.0088 17.8514 20.6261 17.9776 20.2299 18.0262C18.5659 18.2358 17.0427 17.066 16.8346 15.418C16.7842 15.0251 16.8127 14.626 16.9185 14.2442C17.0243 13.8624 17.2051 13.5056 17.4505 13.1945C17.696 12.8799 18.0012 12.6167 18.3486 12.42C18.6959 12.2234 19.0787 12.0972 19.4748 12.0486C19.603 12.0325 19.7321 12.0244 19.8613 12.0244ZM28.7792 25.4296V26.6601H11.621V25.4296H28.7792ZM9.08066 14.7484C9.07437 15.2164 9.09608 15.6843 9.14567 16.1497C9.08948 16.1577 9.0339 16.1676 8.97894 16.1795L8.33226 14.9057C8.57578 14.8282 8.82653 14.7754 9.08066 14.7484ZM7.58147 15.2392L8.08432 16.2298L7.11957 15.5539C7.26565 15.4379 7.42003 15.3327 7.58147 15.2392ZM6.526 16.1396L7.64853 16.9257L6.19726 16.6125C6.29483 16.4469 6.40472 16.2888 6.526 16.1396ZM5.85328 17.3672L7.23147 17.6594C7.17669 17.8076 7.1341 17.96 7.10412 18.1152H5.69215C5.71854 17.8608 5.77257 17.61 5.85328 17.3673V17.3672ZM5.67377 18.9355H7.04095V19.5507H5.67377V18.9355ZM5.67377 20.371H7.04095V20.9179H5.67377V20.371ZM5.67377 21.7382H7.04095V22.4423L5.67377 22.3008V21.7382ZM5.64998 23.1232L7.04191 23.2641C6.98787 23.6824 6.84868 24.0852 6.63292 24.4477L5.48448 23.635C5.5665 23.4743 5.62237 23.3015 5.64998 23.1232ZM4.94587 24.2588L6.1235 25.0922C5.88272 25.3265 5.60573 25.5204 5.30319 25.6664L4.47235 24.4949C4.64158 24.4413 4.80141 24.3616 4.94608 24.2588H4.94587ZM3.54451 24.6047L4.4826 25.9276C4.30942 25.9575 4.13402 25.9726 3.95829 25.9728C3.91604 25.9728 3.87434 25.9754 3.83298 25.9791L2.63314 24.9085C2.91698 24.755 3.22541 24.6522 3.54458 24.6047H3.54451ZM1.25994 28.1025C1.15603 27.7208 1.13454 27.3213 1.19691 26.9307L2.56622 27.2668C2.56506 27.282 2.56451 27.2973 2.56389 27.3125L1.25994 28.1025ZM2.28745 29.6111C2.01218 29.405 1.77695 29.1503 1.59339 28.8595L2.78968 28.1349C2.83217 28.1991 2.87981 28.2596 2.93214 28.3161L2.28745 29.6111ZM2.86946 26.4965L1.44451 26.1467C1.57735 25.8753 1.7531 25.6271 1.965 25.4117L3.01151 26.3457C2.9605 26.3923 2.91302 26.4428 2.86946 26.4965V26.4965ZM3.96478 30.1464H3.95836C3.63554 30.15 3.31457 30.0973 3.00987 29.9906L3.64247 28.7314C3.74559 28.7594 3.85158 28.7754 3.95836 28.7793H3.96478V30.1464ZM5.33197 30.1464H4.78509V28.7793H5.33197V30.1464ZM6.76752 30.1464H6.15228V28.7793H6.76752V30.1464ZM8.1347 30.1464H7.58783V28.7793H8.1347V30.1464ZM9.50189 30.1464H8.95502V28.7793H9.50189V30.1464ZM9.55501 27.9589H3.95836C3.80475 27.9574 3.65794 27.8954 3.54987 27.7862C3.4418 27.677 3.3812 27.5296 3.38127 27.376C3.37974 27.3008 3.39315 27.2261 3.42071 27.1561C3.44826 27.0861 3.48942 27.0223 3.5418 26.9684C3.59418 26.9145 3.65675 26.8714 3.72586 26.8418C3.79498 26.8122 3.86929 26.7966 3.94448 26.7959C4.98544 26.7936 5.98285 26.3779 6.71736 25.6402C7.45187 24.9026 7.86333 23.9034 7.86127 22.8625V18.5463C7.86479 18.1605 8.0063 17.7886 8.26021 17.4981C8.51412 17.2075 8.86364 17.0174 9.24554 16.9622C9.42143 17.9771 9.72752 18.965 10.1562 19.9016C10.5888 20.8542 10.8087 21.8895 10.8007 22.9356V26.7069C10.1855 26.8335 9.69548 27.3437 9.55501 27.9589ZM12.8515 31.4453H11.1457C10.9288 31.4441 10.7211 31.358 10.5671 31.2052C10.4131 31.0525 10.3251 30.8455 10.3222 30.6286V28.3055C10.3248 28.0878 10.4124 27.8797 10.5662 27.7255C10.72 27.5714 10.928 27.4835 11.1457 27.4804H12.8515V31.4453ZM26.7968 31.4453H13.6718V27.4804H26.7968V31.4453ZM30.1464 28.3055V30.6286C30.1464 31.0755 29.7548 31.4453 29.3079 31.4453H27.6171V27.4804H29.3079C29.5272 27.4829 29.737 27.5702 29.8934 27.724C30.0497 27.8779 30.1404 28.0863 30.1464 28.3055ZM29.1239 23.0253L21.6869 18.408C22.1579 18.1551 22.5712 17.8069 22.9003 17.3856C23.2128 16.9894 23.443 16.5349 23.5776 16.0486C23.7121 15.5623 23.7483 15.0541 23.6839 14.5537C23.5865 13.8009 23.2681 13.0938 22.7689 12.522C22.2697 11.9501 21.6122 11.5391 20.8795 11.3408L27.6339 5.48627C28.8176 6.27552 29.8432 7.27929 30.6577 8.44575C31.6922 9.92748 32.3486 11.6398 32.5695 13.4334C32.7901 15.1905 32.593 16.9749 31.9943 18.6416C31.3956 20.3083 30.4122 21.8102 29.1239 23.0253Z" fill="#8DC0FC"/>
</svg>
