<svg width="30" height="30" viewBox="0 0 30 30" fill="none" xmlns="http://www.w3.org/2000/svg">
<path d="M13.0601 22.7344H16.0772C16.3361 22.7344 16.5459 22.5245 16.5459 22.2656V15.4742H18.1134C18.3537 15.4742 18.5551 15.2925 18.5797 15.0535L18.8439 12.4887C18.8575 12.3568 18.8146 12.2252 18.7256 12.1267C18.6368 12.0281 18.5103 11.9719 18.3777 11.9719H16.5459V10.9331C16.5459 10.7185 16.6139 10.7024 16.7175 10.7024H18.3395C18.5984 10.7024 18.8083 10.4926 18.8083 10.2337V7.74346C18.8083 7.48529 18.5995 7.27576 18.3414 7.27471L16.1044 7.26562C14.5369 7.26562 13.7004 7.95527 13.2747 8.53377C12.6802 9.3416 12.5914 10.2881 12.5914 10.7804V11.9719H11.6252C11.3664 11.9719 11.1565 12.1818 11.1565 12.4406V15.0054C11.1565 15.2643 11.3664 15.4741 11.6252 15.4741H12.5914V22.2656C12.5914 22.5245 12.8012 22.7344 13.0601 22.7344ZM12.0939 14.5367V12.9094H13.0601C13.319 12.9094 13.5288 12.6996 13.5288 12.4407V10.7805C13.5288 10.4767 13.5776 9.70377 14.0296 9.08947C14.4624 8.50137 15.1605 8.20318 16.1025 8.20318L17.8706 8.21033V9.765H16.7174C16.1654 9.765 15.6083 10.1262 15.6083 10.9331V12.4407C15.6083 12.6996 15.8182 12.9095 16.0771 12.9095H17.858L17.6903 14.5368H16.0771C15.8182 14.5368 15.6083 14.7466 15.6083 15.0055V21.7969H13.5288V15.0054C13.5288 14.7466 13.3189 14.5367 13.06 14.5367H12.0939V14.5367Z" fill="white"/>
<path d="M25.6068 4.39359C22.7736 1.56035 19.0067 0 15 0C10.9936 0 7.22684 1.56035 4.39359 4.39359C1.56035 7.22684 0 10.9936 0 15C0 19.0071 1.56035 22.7741 4.39359 25.6071C7.22666 28.4399 10.9934 30 15 30C19.0069 30 22.7738 28.4399 25.6067 25.6071C28.4398 22.7742 30 19.0072 30 15C30 10.9935 28.4398 7.22672 25.6068 4.39359ZM24.9438 24.9442C22.2879 27.5999 18.7565 29.0625 15 29.0625C11.2438 29.0625 7.71246 27.5999 5.05646 24.9442C2.40029 22.2882 0.9375 18.7566 0.9375 15C0.9375 11.244 2.40029 7.7127 5.05646 5.05652C7.7127 2.40029 11.244 0.9375 15 0.9375C18.7563 0.9375 22.2878 2.40029 24.9438 5.05646C27.5998 7.71258 29.0625 11.2439 29.0625 15C29.0625 18.7567 27.5998 22.2883 24.9438 24.9442Z" fill="white"/>
<path d="M25.1975 6.73647C25.0344 6.53537 24.7393 6.50461 24.5382 6.66779C24.3371 6.83092 24.3064 7.12611 24.4695 7.32709C26.2222 9.48744 27.1875 12.2124 27.1875 15C27.1875 18.2559 25.9198 21.3166 23.618 23.6183C21.3162 25.9199 18.2556 27.1875 15 27.1875C11.9965 27.1875 9.11102 26.0855 6.87519 24.0846C6.6823 23.912 6.38594 23.9284 6.21332 24.1213C6.0407 24.3142 6.05711 24.6105 6.25 24.7832C8.65797 26.9382 11.7654 28.125 15 28.125C18.5061 28.125 21.8021 26.7599 24.2809 24.2812C26.7598 21.8024 28.125 18.5063 28.125 15C28.125 11.998 27.0853 9.06334 25.1975 6.73647Z" fill="white"/>
<path d="M2.8125 15C2.8125 8.27982 8.27982 2.8125 15 2.8125C18.0035 2.8125 20.8889 3.91453 23.1247 5.91557C23.3177 6.0883 23.614 6.07178 23.7866 5.87894C23.9593 5.68605 23.9429 5.38969 23.75 5.21707C21.342 3.06187 18.2346 1.875 15 1.875C11.4944 1.875 8.1985 3.24029 5.71939 5.71939C3.24029 8.19844 1.875 11.4944 1.875 15C1.875 18.0023 2.91469 20.9372 4.80252 23.2639C4.89516 23.3781 5.03039 23.4374 5.1668 23.4374C5.27057 23.4374 5.37498 23.4031 5.46188 23.3326C5.66291 23.1695 5.69367 22.8743 5.53055 22.6733C3.77777 20.513 2.8125 17.7879 2.8125 15Z" fill="white"/>
</svg>
