<svg width="17" height="17" viewBox="0 0 17 17" fill="none" xmlns="http://www.w3.org/2000/svg">
<path d="M5.80309 4.42929C5.20229 4.42929 4.7135 4.91803 4.7135 5.51883C4.7135 6.11963 5.20229 6.60837 5.80309 6.60837C6.40384 6.60837 6.89263 6.11963 6.89263 5.51883C6.89263 4.91803 6.40384 4.42929 5.80309 4.42929ZM5.80309 6.12413C5.46926 6.12413 5.19774 5.85262 5.19774 5.51883C5.19774 5.18505 5.46926 4.91353 5.80309 4.91353C6.13688 4.91353 6.40839 5.18505 6.40839 5.51883C6.40839 5.85262 6.13683 6.12413 5.80309 6.12413Z" fill="white"/>
<path d="M5.80309 10.3916C5.20229 10.3916 4.7135 10.8803 4.7135 11.4811C4.7135 12.0819 5.20229 12.5707 5.80309 12.5707C6.40384 12.5707 6.89263 12.0819 6.89263 11.4811C6.89263 10.8803 6.40384 10.3916 5.80309 10.3916ZM5.80309 12.0864C5.46926 12.0864 5.19774 11.8149 5.19774 11.4811C5.19774 11.1474 5.46926 10.8758 5.80309 10.8758C6.13688 10.8758 6.40839 11.1474 6.40839 11.4811C6.40839 11.8149 6.13683 12.0864 5.80309 12.0864Z" fill="white"/>
<path d="M8.21895 5.97391C7.94986 6.08475 7.74004 6.29375 7.62818 6.56241C7.51627 6.83106 7.51569 7.12727 7.62653 7.39632C7.79534 7.80623 8.19091 8.07111 8.63428 8.07111C8.77675 8.07111 8.9163 8.04341 9.04894 7.98879C9.31808 7.87794 9.5279 7.66895 9.63975 7.40029C9.75166 7.13163 9.75224 6.83547 9.6414 6.56633C9.4726 6.15642 9.07702 5.89154 8.63365 5.89154C8.49119 5.89154 8.35163 5.91924 8.21895 5.97391ZM9.19363 6.75073C9.25522 6.90026 9.25488 7.06481 9.19271 7.21405C9.13058 7.36329 9.01402 7.47941 8.86449 7.54096C8.79064 7.57142 8.71316 7.58682 8.63428 7.58682C8.3879 7.58682 8.16811 7.43961 8.07431 7.21182C8.01276 7.06234 8.01305 6.89784 8.07523 6.74855C8.13741 6.59931 8.25396 6.48319 8.40345 6.42164C8.47729 6.39123 8.55477 6.37578 8.6337 6.37578C8.88003 6.37578 9.09983 6.52299 9.19363 6.75073Z" fill="white"/>
<path d="M2.97201 8.92889C2.82954 8.92889 2.68998 8.95659 2.55735 9.01126C2.28826 9.12206 2.07844 9.3311 1.96658 9.59971C1.85462 9.86836 1.85409 10.1645 1.96493 10.4336C2.13379 10.8436 2.52936 11.1084 2.97273 11.1084C3.1152 11.1084 3.25471 11.0808 3.38739 11.0261C3.65653 10.9152 3.86635 10.7063 3.97821 10.4376C4.09017 10.169 4.0907 9.87277 3.97981 9.60373C3.81091 9.19372 3.41533 8.92889 2.97201 8.92889ZM3.53111 10.2513C3.46898 10.4006 3.35238 10.5167 3.20289 10.5784C3.12905 10.6088 3.05157 10.6242 2.97268 10.6242C2.7263 10.6242 2.50651 10.477 2.41266 10.2491C2.35111 10.0996 2.3514 9.93514 2.41358 9.7859C2.47576 9.63666 2.59231 9.52054 2.7418 9.45899C2.81564 9.42853 2.89312 9.41313 2.97205 9.41313C3.21844 9.41313 3.43823 9.56034 3.53203 9.78813C3.59363 9.93761 3.59329 10.1021 3.53111 10.2513Z" fill="white"/>
<path d="M9.04815 9.02409C8.91436 8.9684 8.77354 8.94012 8.62957 8.94012C8.18814 8.94012 7.79324 9.20346 7.62346 9.61094C7.39243 10.1655 7.65566 10.8047 8.21032 11.0357C8.34406 11.0914 8.48488 11.1197 8.62885 11.1197C9.07033 11.1197 9.46528 10.8564 9.63501 10.4488C9.74691 10.1802 9.7475 9.88406 9.63665 9.61491C9.52581 9.34587 9.31681 9.13605 9.04815 9.02409ZM9.188 10.2627C9.09367 10.4892 8.87421 10.6355 8.6288 10.6355C8.54909 10.6355 8.47089 10.6198 8.39646 10.5888C8.08833 10.4604 7.94204 10.1054 8.07042 9.79723C8.16475 9.57075 8.38421 9.42446 8.62957 9.42446C8.70933 9.42446 8.78748 9.4402 8.86196 9.47119C9.17009 9.59947 9.31638 9.95456 9.188 10.2627Z" fill="white"/>
<path d="M3.3958 5.96425C3.262 5.90856 3.12118 5.88028 2.97722 5.88028C2.53578 5.88028 2.14084 6.14361 1.97111 6.55115C1.74008 7.10575 2.00336 7.74485 2.55796 7.97588C2.69176 8.03157 2.83258 8.05985 2.97654 8.05985C3.41802 8.05985 3.81302 7.79652 3.98265 7.38898C4.21373 6.83443 3.95045 6.19528 3.3958 5.96425ZM3.53565 7.20279C3.44136 7.42927 3.22191 7.57561 2.97654 7.57561C2.89683 7.57561 2.81863 7.55987 2.74415 7.52888C2.43608 7.40055 2.28979 7.04546 2.41811 6.73739C2.51244 6.51091 2.7319 6.36457 2.97727 6.36457C3.05702 6.36457 3.13518 6.38031 3.20965 6.4113C3.51778 6.53962 3.66402 6.89467 3.53565 7.20279Z" fill="white"/>
<path d="M16.6368 11.1046C16.4362 11.1046 16.2736 11.2672 16.2736 11.4678C16.2736 12.1063 15.7542 12.6257 15.1157 12.6257C14.4772 12.6257 13.9578 12.1063 13.9578 11.4678C13.9578 10.4288 13.1125 9.58354 12.0735 9.58354C11.8704 9.58354 11.6723 9.6171 11.4856 9.67928C11.5645 9.29842 11.6061 8.90401 11.6061 8.50005C11.6061 5.30019 9.00281 2.69696 5.803 2.69696C2.60318 2.69696 0 5.30019 0 8.50005C0 11.6998 2.60323 14.3031 5.80304 14.3031C8.18866 14.3031 10.2423 12.8559 11.1332 10.7936C11.3472 10.4977 11.6961 10.3099 12.0735 10.3099C12.712 10.3099 13.2314 10.8293 13.2314 11.4678C13.2314 12.5068 14.0767 13.3521 15.1157 13.3521C16.1547 13.3521 17 12.5068 17 11.4678C17 11.2672 16.8374 11.1046 16.6368 11.1046ZM10.4924 10.4443C10.4025 10.5821 10.3303 10.7329 10.2788 10.8939C9.42212 12.4893 7.7373 13.5767 5.80304 13.5767C3.00375 13.5767 0.726361 11.2993 0.726361 8.50005C0.726361 5.70071 3.00375 3.42332 5.80304 3.42332C8.60239 3.42332 10.8798 5.70071 10.8798 8.50005C10.8798 9.18845 10.7418 9.84518 10.4924 10.4443Z" fill="white"/>
</svg>
