<svg width="15" height="15" viewBox="0 0 15 15" fill="none" xmlns="http://www.w3.org/2000/svg">
<path d="M14.9047 7.48847C14.7707 7.30515 11.5778 3 7.49993 3C3.42206 3 0.229043 7.30516 0.0951857 7.48829C-0.0317286 7.6622 -0.0317286 7.89807 0.0951857 8.07197C0.229043 8.25528 3.42206 12.5604 7.49993 12.5604C11.5778 12.5604 14.7707 8.25526 14.9047 8.07212C15.0318 7.89824 15.0318 7.6622 14.9047 7.48847ZM7.49993 11.5714C4.49614 11.5714 1.89454 8.71402 1.12442 7.77988C1.89355 6.84493 4.4897 3.98901 7.49993 3.98901C10.5036 3.98901 13.105 6.84593 13.8754 7.78056C13.1063 8.71548 10.5102 11.5714 7.49993 11.5714Z" fill="white"/>
<path d="M7.46705 4.5C5.83105 4.5 4.5 5.83105 4.5 7.46705C4.5 9.10305 5.83105 10.4341 7.46705 10.4341C9.10305 10.4341 10.4341 9.10305 10.4341 7.46705C10.4341 5.83105 9.10305 4.5 7.46705 4.5ZM7.46705 9.44506C6.37632 9.44506 5.48904 8.55774 5.48904 7.46705C5.48904 6.37635 6.37635 5.48903 7.46705 5.48903C8.55774 5.48903 9.44506 6.37635 9.44506 7.46705C9.44506 8.55774 8.55777 9.44506 7.46705 9.44506Z" fill="white"/>
</svg>
