<svg width="15" height="15" viewBox="0 0 15 15" fill="none" xmlns="http://www.w3.org/2000/svg">
<path d="M12.1758 9.72656C11.3075 9.72656 10.5361 10.1485 10.0553 10.798L5.91656 8.68289C5.986 8.44699 6.02344 8.19753 6.02344 7.93945C6.02344 7.58991 5.95491 7.25613 5.83084 6.9506L10.1685 4.3444C10.6525 4.91247 11.3728 5.27344 12.1758 5.27344C13.6297 5.27344 14.8125 4.09061 14.8125 2.63672C14.8125 1.18283 13.6297 0 12.1758 0C10.7219 0 9.53906 1.18283 9.53906 2.63672C9.53906 2.97275 9.60237 3.29423 9.71748 3.59004L5.36895 6.20273C4.88531 5.65143 4.17601 5.30273 3.38672 5.30273C1.93283 5.30273 0.75 6.48557 0.75 7.93945C0.75 9.39334 1.93283 10.5762 3.38672 10.5762C4.2692 10.5762 5.05172 10.1404 5.53058 9.47268L9.65733 11.5816C9.58049 11.8287 9.53906 12.0912 9.53906 12.3633C9.53906 13.8172 10.7219 15 12.1758 15C13.6297 15 14.8125 13.8172 14.8125 12.3633C14.8125 10.9094 13.6297 9.72656 12.1758 9.72656ZM12.1758 0.878906C13.145 0.878906 13.9336 1.66746 13.9336 2.63672C13.9336 3.60598 13.145 4.39453 12.1758 4.39453C11.2065 4.39453 10.418 3.60598 10.418 2.63672C10.418 1.66746 11.2065 0.878906 12.1758 0.878906ZM3.38672 9.69727C2.41746 9.69727 1.62891 8.90871 1.62891 7.93945C1.62891 6.9702 2.41746 6.18164 3.38672 6.18164C4.35598 6.18164 5.14453 6.9702 5.14453 7.93945C5.14453 8.90871 4.35598 9.69727 3.38672 9.69727ZM12.1758 14.1211C11.2065 14.1211 10.418 13.3325 10.418 12.3633C10.418 11.394 11.2065 10.6055 12.1758 10.6055C13.145 10.6055 13.9336 11.394 13.9336 12.3633C13.9336 13.3325 13.145 14.1211 12.1758 14.1211Z" fill="white"/>
</svg>
