<svg width="14" height="14" viewBox="0 0 14 14" fill="none" xmlns="http://www.w3.org/2000/svg">
<path d="M4.43334 12.6H4.20001C4.07115 12.6 3.96667 12.7045 3.96667 12.8333V13.7667C3.96667 13.8955 4.07115 14 4.20001 14H10.2667C10.3955 14 10.5 13.8955 10.5 13.7667V12.8333C10.5 12.7045 10.3955 12.6 10.2667 12.6H10.0333V10.9667C10.0333 10.8378 9.92887 10.7333 9.80001 10.7333H8.19003C8.2871 9.71672 8.63334 6.06291 8.63334 5.70129C8.62856 5.64215 8.63949 5.58268 8.66479 5.52902C8.83876 5.5354 9.00772 5.47114 9.13362 5.35106C9.25951 5.23097 9.33152 5.06509 9.33334 4.89111V3.27111C9.33334 2.66134 8.87135 2.5277 8.2315 2.34268C8.12406 2.31659 8.02164 2.27306 7.92821 2.21382C8.22546 1.94642 8.39659 1.56646 8.40001 1.16667C8.40001 0.52238 7.87763 0 7.23334 0C6.58905 0 6.06667 0.52238 6.06667 1.16667C6.07021 1.56657 6.24156 1.94653 6.53892 2.21382C6.4455 2.27306 6.34307 2.31659 6.23564 2.34268C5.59534 2.5277 5.13334 2.66134 5.13334 3.27111V4.89111C5.13494 5.06532 5.20683 5.23132 5.33272 5.35163C5.45862 5.47194 5.62781 5.53631 5.8019 5.53005C5.82719 5.58371 5.83813 5.64307 5.83334 5.7022C5.83334 6.06382 6.17958 9.71763 6.27665 10.7342H4.66667C4.53782 10.7342 4.43334 10.8387 4.43334 10.9676V12.6ZM10.0333 13.5333H4.43334V13.0667H10.0333V13.5333ZM6.30001 5.70129C6.30001 5.19634 5.99456 5.06292 5.83334 5.06292C5.68329 5.06292 5.60491 5.00356 5.60001 4.89111V3.27111C5.60001 3.06113 5.62804 3.00417 6.36484 2.79066C6.74617 2.68049 6.96082 2.52588 7.0212 2.31795C7.05891 2.18796 7.02895 2.04782 6.94145 1.9446C6.92926 1.93058 6.91536 1.91828 6.90009 1.90768C6.67416 1.72721 6.53984 1.45583 6.53334 1.16667C6.53334 0.780094 6.84677 0.466667 7.23334 0.466667C7.61991 0.466667 7.93334 0.780094 7.93334 1.16667C7.92935 1.45674 7.79457 1.72938 7.56659 1.90871C7.55133 1.91919 7.53743 1.93161 7.52524 1.94551C7.43774 2.04873 7.40777 2.18887 7.44548 2.31886C7.50587 2.52679 7.72052 2.68151 8.10185 2.79157C8.83865 3.00417 8.86667 3.06159 8.86667 3.27111V4.89111C8.86667 4.94295 8.84332 5.06292 8.63334 5.06292C8.47213 5.06292 8.16667 5.19634 8.16667 5.70129C8.16667 6.00856 7.86339 9.25723 7.7212 10.7333H6.74548C6.60455 9.25723 6.30001 6.00856 6.30001 5.70129V5.70129ZM4.90001 11.2H9.56667V12.6H4.90001V11.2Z" fill="black"/>
<path d="M8.8667 11.6667H5.60003C5.47118 11.6667 5.3667 11.7711 5.3667 11.9C5.3667 12.0288 5.47118 12.1333 5.60003 12.1333H8.8667C8.99556 12.1333 9.10003 12.0288 9.10003 11.9C9.10003 11.7711 8.99556 11.6667 8.8667 11.6667Z" fill="black"/>
<path d="M10.2667 6.06668H10.7334V6.53335H10.2667V6.06668Z" fill="black"/>
<path d="M10.2667 7H10.7334V7.46667H10.2667V7Z" fill="black"/>
<path d="M9.80005 6.53333H10.2667V6.99999H9.80005V6.53333Z" fill="black"/>
<path d="M10.7333 6.53333H11.1999V6.99999H10.7333V6.53333Z" fill="black"/>
<path d="M3.26672 2.33334H3.73339V2.80001H3.26672V2.33334Z" fill="black"/>
<path d="M3.26672 3.26666H3.73339V3.73333H3.26672V3.26666Z" fill="black"/>
<path d="M2.80005 2.79999H3.26672V3.26665H2.80005V2.79999Z" fill="black"/>
<path d="M3.73328 2.79999H4.19994V3.26665H3.73328V2.79999Z" fill="black"/>
<path d="M10.5 3.96667H10.9667V4.43334H10.5V3.96667Z" fill="black"/>
<path d="M4.43335 0.700012H4.90002V1.16668H4.43335V0.700012Z" fill="black"/>
</svg>
