<svg width="14" height="14" viewBox="0 0 14 14" fill="none" xmlns="http://www.w3.org/2000/svg">
<path d="M4.15343 1.912C4.85198 1.28231 5.96464 0.87546 6.98805 0.87546C8.02092 0.87546 9.14214 1.2899 9.8445 1.93132C9.92842 2.00795 10.0342 2.04583 10.1396 2.04583C10.2582 2.04583 10.3766 1.99786 10.4629 1.90331C10.6259 1.72477 10.6134 1.44795 10.4349 1.28488C9.58017 0.504323 8.22723 0 6.98805 0C5.7603 0 4.41752 0.495277 3.56728 1.26177C3.38769 1.42361 3.37333 1.70043 3.53523 1.87996C3.69708 2.05955 3.9739 2.07385 4.15343 1.912Z" fill="white"/>
<path d="M4.69152 2.79055C4.51187 2.95234 4.49746 3.22916 4.6593 3.40874C4.82108 3.58839 5.09785 3.6028 5.27749 3.44096C5.65901 3.09719 6.38039 2.84769 6.99275 2.84769C7.6103 2.84769 8.33681 3.10186 8.7202 3.45211C8.80413 3.52885 8.90989 3.56667 9.01535 3.56667C9.134 3.56667 9.25231 3.5187 9.33863 3.42421C9.5017 3.24573 9.48921 2.96885 9.31067 2.80578C8.76491 2.30724 7.83342 1.97223 6.99275 1.97223C6.29938 1.97229 5.31899 2.2253 4.69152 2.79055Z" fill="white"/>
<path d="M12.3688 4.67981H1.63123C1.06808 4.67981 0.609863 5.13803 0.609863 5.70118V12.9786C0.609863 13.5418 1.06808 14 1.63123 14H12.3688C12.932 14 13.3902 13.5418 13.3902 12.9786V5.70118C13.3902 5.13797 12.932 4.67981 12.3688 4.67981ZM12.3688 5.55527C12.3868 5.55527 12.4041 5.55912 12.4201 5.56542L7.19688 9.56995C7.0993 9.64466 6.90063 9.64472 6.80316 9.56989L1.57993 5.56537C1.59598 5.55906 1.61326 5.55521 1.63123 5.55521H12.3688V5.55527ZM12.3688 13.1246H1.63123C1.55215 13.1246 1.48532 13.0577 1.48532 12.9786V6.59607L6.27047 10.2647C6.47504 10.4215 6.7375 10.4999 7.00002 10.4999C7.26243 10.4999 7.52495 10.4215 7.72951 10.2647L12.5147 6.59607V12.9786C12.5147 13.0577 12.448 13.1246 12.3688 13.1246Z" fill="white"/>
</svg>
