<svg width="30" height="30" viewBox="0 0 30 30" fill="none" xmlns="http://www.w3.org/2000/svg">
<path d="M4.39341 4.39363C7.22633 1.56042 10.9935 0 15 0C19.0065 0 22.7731 1.56042 25.6064 4.39363C28.4396 7.22692 30 10.9935 30 15C30 19.0071 28.4396 22.7739 25.6064 25.6069C22.7734 28.4399 19.0065 30 15 30C10.9932 30 7.22633 28.4399 4.39341 25.6069C1.56042 22.7739 7.5173e-07 19.0071 7.5173e-07 15C7.5173e-07 10.9935 1.56042 7.22662 4.39341 4.39363ZM5.05632 24.944C7.71214 27.5999 11.2435 29.0624 15 29.0624C18.7562 29.0624 22.2876 27.5999 24.9435 24.944C27.5996 22.2881 29.0624 18.7565 29.0624 15C29.0624 11.2441 27.5996 7.71273 24.9435 5.05654C22.2873 2.40035 18.7559 0.937569 15 0.937569C11.2438 0.937569 7.71244 2.40035 5.05632 5.05654C2.40043 7.71244 0.937569 11.2438 0.937569 15C0.937569 18.7568 2.40043 22.2881 5.05632 24.944Z" fill="white"/>
<path d="M4.80252 6.73658C4.96555 6.53538 5.26086 6.50455 5.46198 6.66788C5.66311 6.83098 5.69372 7.12622 5.53061 7.32705C3.77794 9.48739 2.81268 12.2122 2.81268 15C2.81268 18.2558 4.08035 21.3165 6.38205 23.6182C8.68375 25.9199 11.7444 27.1873 15 27.1873C18.0035 27.1873 20.8891 26.0855 23.1247 24.0846C23.3178 23.9118 23.6139 23.9283 23.7867 24.1212C23.9592 24.314 23.9429 24.6104 23.7501 24.7829C21.342 26.9381 18.2346 28.1249 15 28.1249C11.4941 28.1249 8.19793 26.7599 5.71914 24.2811C3.24041 21.8023 1.87511 18.5062 1.87511 15C1.87511 11.9979 2.91478 9.0634 4.80252 6.73658Z" fill="white"/>
<path d="M27.1877 14.9999C27.1877 8.27963 21.7202 2.8122 15 2.8122C11.9965 2.8122 9.11122 3.91427 6.87537 5.91531C6.68253 6.08809 6.38612 6.07146 6.21356 5.87869C6.04078 5.68585 6.05741 5.38944 6.25018 5.21688C8.65801 3.06174 11.7657 1.875 15 1.875C18.5056 1.875 21.8015 3.24023 24.2806 5.71932C26.7597 8.19833 28.1249 11.4942 28.1249 14.9999C28.1249 18.0022 27.0852 20.937 25.1975 23.2636C25.1048 23.378 24.9698 23.4372 24.8333 23.4372C24.7295 23.4372 24.625 23.4029 24.5381 23.3322C24.3372 23.1692 24.3063 22.8739 24.4694 22.673C26.2223 20.5127 27.1877 17.7876 27.1877 14.9999Z" fill="white"/>
<path d="M11.0604 7.47974H18.9104C20.9008 7.47974 22.5201 9.09911 22.5201 11.0895V18.9395C22.5201 20.93 20.9008 22.5493 18.9104 22.5493H11.0604C9.06994 22.5493 7.45071 20.93 7.45071 18.9395V11.0895C7.45071 9.09911 9.06994 7.47974 11.0604 7.47974ZM8.40109 18.9394C8.40109 20.4057 9.59406 21.5988 11.0604 21.5988H18.9104C20.3766 21.5988 21.5695 20.4057 21.5695 18.9394V11.0895C21.5695 9.6233 20.3766 8.43049 18.9104 8.43049H11.0604C9.59406 8.43049 8.40109 9.62338 8.40109 11.0895V18.9394Z" fill="white"/>
<path d="M10.7738 10.2339C11.0929 10.2339 11.3527 10.4935 11.3527 10.8126C11.3527 11.1316 11.0929 11.3912 10.7738 11.3912C10.4547 11.3912 10.1952 11.1316 10.1952 10.8126C10.1952 10.4935 10.4547 10.2339 10.7738 10.2339Z" fill="white"/>
<path d="M14.9855 11.3208C17.0221 11.3208 18.679 12.9777 18.679 15.0142C18.679 17.0509 17.0221 18.708 14.9855 18.708C12.9488 18.708 11.2918 17.0509 11.2918 15.0142C11.2918 12.9777 12.9488 11.3208 14.9855 11.3208ZM14.9855 17.7576C16.4981 17.7576 17.7286 16.5269 17.7286 15.0142C17.7286 13.5019 16.4981 12.2716 14.9855 12.2716C13.4731 12.2716 12.2427 13.5019 12.2427 15.0142C12.2426 16.5269 13.4731 17.7576 14.9855 17.7576Z" fill="white"/>
</svg>
