<svg width="15" height="15" viewBox="0 0 15 15" fill="none" xmlns="http://www.w3.org/2000/svg">
<path d="M12.7155 6.00627H4.43412L12.0688 2.80337C12.3039 2.70474 12.4868 2.51993 12.5837 2.28296C12.6805 2.04599 12.6796 1.78601 12.581 1.55084L12.1764 0.586296C12.0269 0.230188 11.68 0 11.2926 0C11.1655 0 11.0414 0.0249872 10.9239 0.0742507L1.91452 3.85376C1.42795 4.05771 1.19815 4.61962 1.40225 5.10624L1.80686 6.07073C1.87586 6.23525 1.98735 6.37243 2.12508 6.47287C2.03891 6.61646 1.98844 6.78377 1.98844 6.96305V14.0431C1.98844 14.5707 2.41771 14.9999 2.94528 14.9999H12.7154C13.243 14.9999 13.6723 14.5707 13.6723 14.0431V6.96305C13.6723 6.43553 13.243 6.00627 12.7155 6.00627ZM12.8522 6.9631V8.1457H11.5667L12.1438 6.82641H12.7155C12.7896 6.82641 12.8522 6.88896 12.8522 6.9631ZM2.94528 6.82641H3.9972L3.42009 8.1457H2.80859V6.9631C2.80859 6.88896 2.87119 6.82641 2.94528 6.82641ZM4.59405 6.82641H6.5138L5.93663 8.1457H4.01688L4.59405 6.82641ZM7.11064 6.82641H9.03044L8.45328 8.1457H6.53348L7.11064 6.82641ZM9.62724 6.82641H11.547L10.9698 8.1457H9.05007L9.62724 6.82641ZM7.81849 3.69711L6.04812 4.43973L6.06993 2.99999L7.8403 2.25726L7.81849 3.69711ZM8.39062 2.02642L10.161 1.2838L10.1392 2.72354L8.3688 3.46627L8.39062 2.02642ZM5.49785 4.67063L3.72748 5.41324L3.7493 3.97345L5.51967 3.23078L5.49785 4.67063ZM11.2413 0.830536C11.2577 0.823592 11.275 0.820147 11.2926 0.820147C11.3387 0.820147 11.396 0.846009 11.4202 0.903693L11.8247 1.86819C11.8435 1.91286 11.8327 1.95277 11.8246 1.97256C11.8165 1.99236 11.7963 2.02833 11.7516 2.04709L10.6894 2.49265L10.7113 1.05285L11.2413 0.830536ZM2.15865 4.68463C2.16674 4.66483 2.18703 4.62886 2.2317 4.6101L3.19898 4.20429L3.17716 5.64414L2.74199 5.82671C2.72553 5.83365 2.70831 5.8371 2.69065 5.8371C2.64461 5.8371 2.58731 5.81123 2.56309 5.75355L2.15854 4.78906C2.13979 4.74433 2.15056 4.70442 2.15865 4.68463ZM12.7155 14.1799H2.94528C2.87119 14.1799 2.80859 14.1172 2.80859 14.0432V8.96585H12.8521V14.0432C12.8522 14.1172 12.7896 14.1799 12.7155 14.1799Z" fill="white"/>
<path d="M8.12228 10.613H4.007C3.78047 10.613 3.59692 10.7965 3.59692 11.023C3.59692 11.2496 3.78047 11.4331 4.007 11.4331H8.12228C8.3488 11.4331 8.53235 11.2496 8.53235 11.023C8.53235 10.7965 8.34875 10.613 8.12228 10.613Z" fill="white"/>
<path d="M8.12228 12.2745H4.007C3.78047 12.2745 3.59692 12.458 3.59692 12.6845C3.59692 12.9111 3.78047 13.0946 4.007 13.0946H8.12228C8.3488 13.0946 8.53235 12.9111 8.53235 12.6845C8.53235 12.4581 8.34875 12.2745 8.12228 12.2745Z" fill="white"/>
</svg>
