<svg width="30" height="30" viewBox="0 0 30 30" fill="none" xmlns="http://www.w3.org/2000/svg">
<path d="M25.6068 4.39359C22.7736 1.56035 19.0067 0 15 0C10.9936 0 7.22684 1.56035 4.39359 4.39359C1.56035 7.22684 0 10.9936 0 15C0 19.0071 1.56035 22.7741 4.39359 25.6071C7.22666 28.4399 10.9934 30 15 30C19.0069 30 22.7738 28.4399 25.6067 25.6071C28.4398 22.7742 30 19.0072 30 15C30 10.9935 28.4398 7.22672 25.6068 4.39359ZM24.9438 24.9442C22.2879 27.5999 18.7565 29.0625 15 29.0625C11.2438 29.0625 7.71246 27.5999 5.05646 24.9442C2.40029 22.2882 0.9375 18.7566 0.9375 15C0.9375 11.244 2.40029 7.7127 5.05646 5.05646C7.7127 2.40029 11.244 0.9375 15 0.9375C18.7563 0.9375 22.2878 2.40029 24.9438 5.05646C27.5998 7.71258 29.0625 11.2439 29.0625 15C29.0625 18.7567 27.5998 22.2883 24.9438 24.9442Z" fill="white"/>
<path d="M25.1975 6.73644C25.0345 6.53535 24.7393 6.50464 24.5382 6.66777C24.3371 6.83089 24.3064 7.12609 24.4695 7.32707C26.2222 9.48742 27.1875 12.2124 27.1875 15C27.1875 18.2559 25.9198 21.3166 23.618 23.6182C21.3162 25.9199 18.2556 27.1875 15 27.1875C11.9965 27.1875 9.11102 26.0855 6.87519 24.0846C6.6823 23.912 6.38594 23.9284 6.21332 24.1213C6.0407 24.3142 6.05711 24.6105 6.25 24.7831C8.65797 26.9382 11.7654 28.125 15 28.125C18.5061 28.125 21.8021 26.7599 24.2809 24.2812C26.7598 21.8024 28.125 18.5062 28.125 15C28.125 11.998 27.0853 9.06332 25.1975 6.73644Z" fill="white"/>
<path d="M2.8125 15C2.8125 8.27982 8.27982 2.8125 15 2.8125C18.0035 2.8125 20.8889 3.91453 23.1247 5.91557C23.3177 6.0883 23.614 6.07178 23.7866 5.87895C23.9593 5.68605 23.9429 5.38969 23.75 5.21707C21.342 3.06188 18.2346 1.875 15 1.875C11.4944 1.875 8.19844 3.24029 5.71939 5.71939C3.24029 8.1985 1.875 11.4944 1.875 15C1.875 18.0023 2.91469 20.9372 4.80252 23.2639C4.89516 23.3781 5.03039 23.4374 5.1668 23.4374C5.27057 23.4374 5.37498 23.4031 5.46188 23.3326C5.66291 23.1695 5.69367 22.8743 5.53055 22.6733C3.77777 20.513 2.8125 17.7879 2.8125 15Z" fill="white"/>
<path d="M23.3588 11.412C23.4745 11.2386 23.4618 11.0096 23.3276 10.8501C23.1934 10.6906 22.9701 10.6389 22.7793 10.7231C22.7674 10.7284 22.7554 10.7337 22.7435 10.7388C22.8537 10.5411 22.9449 10.3317 23.0148 10.1133C23.0742 9.92776 23.0127 9.72491 22.8604 9.60362C22.708 9.48228 22.4966 9.46786 22.3291 9.56718C21.8561 9.84796 21.3501 10.0543 20.8217 10.1823C20.189 9.60936 19.3568 9.2854 18.4987 9.2854C16.5962 9.2854 15.0483 10.8324 15.0483 12.7339C15.0483 12.7883 15.0495 12.8426 15.052 12.8966C13.0095 12.6476 11.1242 11.6126 9.81271 10.003C9.71556 9.88376 9.56626 9.81972 9.41275 9.83179C9.25941 9.8438 9.12171 9.93022 9.04431 10.0631C8.7388 10.5875 8.57732 11.1872 8.57732 11.7976C8.57732 12.3807 8.72298 12.9426 8.99052 13.4387C8.91875 13.4434 8.84785 13.4647 8.7838 13.5025C8.64066 13.5867 8.55283 13.7403 8.55283 13.9065V13.9437C8.55283 14.9764 9.01619 15.924 9.7608 16.564C9.74468 16.5779 9.72939 16.593 9.71509 16.6092C9.60617 16.733 9.57019 16.9048 9.62046 17.0618C9.9408 18.0627 10.6898 18.8392 11.6281 19.2131C10.8663 19.5961 10.0253 19.7951 9.14873 19.7951C8.92771 19.7951 8.70669 19.7824 8.49183 19.7574C8.27515 19.7321 8.0696 19.8598 7.99625 20.0653C7.92283 20.2708 8.00093 20.4997 8.18457 20.6175C9.62656 21.5425 11.2944 22.0313 13.0077 22.0313C16.3742 22.0313 18.4818 20.4419 19.657 19.1086C21.12 17.4489 21.9591 15.2516 21.9591 13.0799C21.9591 13.0264 21.9587 12.9742 21.9578 12.9231C22.5028 12.497 22.9734 11.9897 23.3588 11.412ZM21.207 12.3147C21.0782 12.4076 21.0052 12.5594 21.013 12.718C21.0187 12.8334 21.0215 12.9518 21.0215 13.0799C21.0215 15.0265 20.2678 16.9979 18.9537 18.4887C17.9062 19.6771 16.0243 21.0938 13.0077 21.0938C12.0849 21.0938 11.1767 20.9353 10.3185 20.6287C11.3445 20.4435 12.3043 20.0131 13.14 19.3575C13.2959 19.2351 13.3581 19.0278 13.2951 18.8398C13.2321 18.6518 13.0577 18.5238 12.8594 18.52C12.0342 18.5045 11.2873 18.0885 10.8363 17.434C11.0716 17.4197 11.3054 17.3815 11.5342 17.3197C11.7441 17.263 11.8875 17.0693 11.8805 16.852C11.8735 16.6347 11.7179 16.4507 11.5048 16.4076C10.571 16.219 9.84212 15.518 9.58789 14.635C9.83861 14.7012 10.0969 14.7395 10.3566 14.7482C10.5662 14.7553 10.7544 14.6224 10.8185 14.4231C10.8826 14.2237 10.8066 14.006 10.6324 13.8898C9.93271 13.4228 9.515 12.6407 9.515 11.7975C9.515 11.5839 9.54207 11.3722 9.59486 11.1676C11.1656 12.7896 13.3043 13.7684 15.5711 13.8814C15.7191 13.8887 15.8599 13.8265 15.9543 13.7136C16.0486 13.6007 16.0844 13.45 16.0509 13.3066C16.0078 13.1221 15.986 12.9294 15.986 12.7339C15.986 11.3493 17.1133 10.2228 18.4989 10.2228C19.1905 10.2228 19.8593 10.5118 20.3337 11.0154C20.4441 11.1326 20.607 11.185 20.7648 11.1541C20.9424 11.1194 21.118 11.0773 21.2913 11.0278C21.2044 11.0969 21.1125 11.1606 21.0162 11.2182C20.8266 11.3318 20.742 11.5623 20.8133 11.7715C20.8845 11.9807 21.092 12.1118 21.3117 12.0859C21.388 12.077 21.4641 12.0667 21.54 12.055C21.4326 12.1455 21.3215 12.2321 21.207 12.3147Z" fill="white"/>
</svg>
