<svg width="142" height="155" viewBox="0 0 142 155" fill="none" xmlns="http://www.w3.org/2000/svg">
<g clip-path="url(#clip0)">
<path d="M109.384 83.0182C108.963 82.5965 108.332 82.5965 107.841 83.0182L106.789 84.0727L105.737 83.0182C105.317 82.5965 104.685 82.5965 104.195 83.0182C103.774 83.44 103.774 84.0727 104.195 84.5647L105.246 85.7597L104.195 86.9547C103.774 87.3765 103.774 88.0092 104.195 88.5012C104.405 88.7121 104.756 88.8527 104.966 88.8527C105.317 88.8527 105.527 88.7121 105.737 88.5012L106.789 87.4468L107.841 88.5012C108.052 88.7121 108.402 88.8527 108.613 88.8527C108.963 88.8527 109.174 88.7121 109.384 88.5012C109.805 88.0795 109.805 87.4468 109.384 86.9547L108.332 85.7597L109.384 84.5647C109.805 84.143 109.805 83.3697 109.384 83.0182Z" fill="white"/>
<path d="M32.3818 9.98169C32.5922 10.1926 32.9429 10.3332 33.1532 10.3332C33.5039 10.3332 33.7143 10.1926 33.9247 9.98169C34.3454 9.55992 34.3454 8.92727 33.9247 8.43521L32.8727 7.2402L33.9247 6.04519C34.3454 5.62342 34.3454 4.99076 33.9247 4.4987C33.5039 4.07693 32.8727 4.07693 32.3818 4.4987L31.2597 5.62342L30.2078 4.56899C29.787 4.14723 29.1559 4.14723 28.6649 4.56899C28.2442 4.99076 28.2442 5.62342 28.6649 6.04519L29.7169 7.2402L28.6649 8.43521C28.2442 8.85698 28.2442 9.48963 28.6649 9.98169C28.8753 10.1926 29.226 10.3332 29.4364 10.3332C29.787 10.3332 29.9974 10.1926 30.2078 9.98169L31.2597 8.92727L32.3818 9.98169Z" fill="white"/>
<path d="M69.9012 2.10884C70.4822 2.10884 70.9531 1.63676 70.9531 1.05442C70.9531 0.472081 70.4822 0 69.9012 0C69.3202 0 68.8492 0.472081 68.8492 1.05442C68.8492 1.63676 69.3202 2.10884 69.9012 2.10884Z" fill="white"/>
<path d="M51.2467 90.8208C51.8077 90.8208 52.2987 91.3129 52.2987 91.8752C52.2987 92.4376 51.8077 92.9296 51.2467 92.9296C50.6857 92.9296 50.1948 92.4376 50.1948 91.8752C50.1948 91.3129 50.6155 90.8208 51.2467 90.8208Z" fill="white"/>
<path d="M27.0519 26.4311C27.6329 26.4311 28.1039 25.959 28.1039 25.3767C28.1039 24.7943 27.6329 24.3223 27.0519 24.3223C26.471 24.3223 26 24.7943 26 25.3767C26 25.959 26.471 26.4311 27.0519 26.4311Z" fill="white"/>
<path d="M114.433 28.4692C114.995 28.4692 115.485 28.9613 115.485 29.5237C115.485 30.086 114.995 30.5781 114.433 30.5781C113.872 30.5781 113.382 30.086 113.382 29.5237C113.382 28.9613 113.872 28.4692 114.433 28.4692Z" fill="white"/>
<path d="M106.579 36.975C106.439 36.4127 105.807 36.1315 105.317 36.2018C104.756 36.3424 104.335 36.975 104.545 37.4671C107.771 49.7687 104.335 63.1247 95.288 72.1927C86.1011 81.4716 72.4959 84.9864 60.0128 81.2607C59.4518 81.0499 58.8206 81.4716 58.7505 82.034C58.5401 82.5963 58.8908 83.229 59.5219 83.2993C62.9583 84.2834 66.5349 84.8458 70.1115 84.8458C80.0699 84.8458 89.7478 80.9796 96.8309 73.7392C106.228 64.1088 110.015 50.0499 106.579 36.975Z" fill="white"/>
<path d="M43.1818 73.7394C44.7247 75.2859 46.3377 76.6918 48.0208 77.8165C48.2312 77.9571 48.4415 78.0274 48.6519 78.0274C49.0026 78.0274 49.2831 77.8868 49.4935 77.6057C49.8441 77.0433 49.7039 76.4106 49.2831 76.0592C47.6701 74.8642 46.0571 73.5989 44.6545 72.193C30.7689 58.134 30.7689 35.4288 44.6545 21.3698C51.4571 14.5512 60.4337 10.8959 69.9012 10.8959C79.3687 10.8959 88.4856 14.6918 95.1479 21.3698C96.5505 22.7757 97.8128 24.3925 99.005 26.0093C99.3557 26.5717 99.9868 26.6419 100.548 26.2202C101.109 25.8687 101.179 25.2361 100.758 24.6737C99.5661 22.9163 98.1635 21.2995 96.6907 19.6828C89.5375 12.5127 79.9298 8.64648 69.9012 8.64648C59.7324 8.64648 50.2649 12.6533 43.1818 19.7531C28.3845 34.7258 28.3845 58.9073 43.1818 73.7394Z" fill="white"/>
<path d="M93.3946 11.8096C98.8647 9.77102 103.073 9.63043 105.036 11.5987C107.21 13.7778 106.86 18.4173 104.405 24.6032C102.021 30.3674 97.8128 37.1157 92.3427 44.0749C91.992 44.4966 91.992 45.2699 92.5531 45.6214C92.7635 45.762 92.9738 45.8322 93.1842 45.8322C93.5349 45.8322 93.8154 45.6917 94.0258 45.4105C99.6362 38.2404 103.984 31.3515 106.298 25.3765C109.314 18.1361 109.314 12.864 106.509 10.0522C103.914 7.45129 99.0751 7.381 92.6232 9.70072C92.0622 9.91161 91.7816 10.5443 91.992 11.1066C92.2024 11.669 92.7635 12.0205 93.3946 11.8096Z" fill="white"/>
<path d="M68.9194 69.3109C68.5688 68.8891 67.8675 68.7485 67.3766 69.1C60.3636 74.7236 53.5611 78.9413 47.8805 81.3313C41.639 83.9322 37.0806 84.1431 34.9066 82.1045C33.0131 80.1363 33.0131 75.9186 35.1871 70.3653C35.3975 69.8029 35.0468 69.1703 34.5559 68.9594C33.9949 68.7485 33.3637 69.1 33.1533 69.5921C30.7689 76.0592 30.9092 80.9798 33.504 83.5104C34.9066 84.9163 36.8702 85.549 39.3247 85.549C41.9195 85.549 45.1455 84.7757 48.7922 83.2996C54.7533 80.8392 61.626 76.481 68.8493 70.7871C69.2701 70.5059 69.2701 69.7326 68.9194 69.3109Z" fill="white"/>
<path d="M89.7479 55.2517C90.3089 54.619 90.7297 53.9864 91.0102 53.2131L91.7816 50.9637C92.1323 50.1201 91.9219 49.136 91.2206 48.5034C90.5894 47.8707 89.6076 47.5192 88.766 47.8707L86.5219 48.5034C85.7505 48.7143 84.979 49.136 84.3479 49.5578L77.5453 55.1814C77.1947 55.5328 76.7739 55.6031 76.3531 55.5328L70.5323 54.9705C69.9713 54.9705 69.3401 55.1111 68.9194 55.3923L67.9376 56.0249C66.8856 56.7982 66.6752 58.2041 67.3064 59.2585L70.2518 62.6326C69.6908 63.195 69.4103 63.8979 69.4804 64.6009C69.6908 65.4444 70.322 66.2177 71.0934 66.9909L71.5142 67.4127C72.2856 68.2562 72.9168 68.9592 73.8986 69.17C74.109 69.17 74.2492 69.3106 74.4596 69.3106C75.0206 69.3106 75.5116 69.0997 76.0025 68.678L79.1583 71.7007L79.2985 71.8412C79.7193 72.1927 80.1401 72.263 80.7011 72.263C81.3323 72.263 82.1037 71.9115 82.5245 71.4195L83.2959 70.5759C83.6466 70.1542 83.857 69.5918 83.857 68.9592L83.5063 62.9138C83.5063 62.492 83.6466 62.0703 83.9271 61.7188L89.7479 55.2517ZM74.5297 67.1315C74.1791 66.9909 73.7583 66.4988 73.2674 65.9365L72.8466 65.5147C72.4258 64.9523 71.7947 64.4603 71.7947 64.2494L76.6336 61.0861C76.844 60.9455 76.9843 60.8753 77.1947 60.8753C77.405 60.8753 77.7557 61.0158 77.9661 61.2267C78.3167 61.5782 78.3167 62.0703 78.1063 62.492L74.5297 67.1315ZM82.1739 60.3129C81.5427 61.0861 81.1219 62.0703 81.192 62.9841L81.4024 68.8186V68.9592L80.7011 69.873C80.5609 70.0136 80.5609 70.0136 80.4908 70.0136L77.2648 66.8503L79.5089 63.687C80.3505 62.492 80.2804 60.7347 79.2985 59.6099C78.2466 58.5555 76.6336 58.3446 75.3012 59.1882L72.0752 61.3673L69.1298 57.9932C69.1298 57.8526 69.1298 57.7823 69.27 57.7823L70.2518 57.1496H70.3921L76.2128 57.712C77.1947 57.8526 78.2466 57.5011 79.018 56.8685L85.8206 51.2449C86.2414 50.8934 86.6622 50.6825 87.2232 50.4716L89.4673 49.839C89.6076 49.839 89.6777 49.839 89.818 49.9796C89.9583 50.1201 89.9583 50.1904 89.9583 50.331L89.1167 52.4399C88.9063 53.0022 88.6959 53.424 88.3453 53.8458L82.1739 60.3129Z" fill="white"/>
</g>
<path d="M3.42 119H5.64V140H3.42V119ZM27.2627 129.5H29.3927V137.51C28.4127 138.37 27.2527 139.03 25.9127 139.49C24.5727 139.95 23.1627 140.18 21.6827 140.18C19.5827 140.18 17.6927 139.72 16.0127 138.8C14.3327 137.88 13.0127 136.61 12.0527 134.99C11.0927 133.35 10.6127 131.52 10.6127 129.5C10.6127 127.48 11.0927 125.66 12.0527 124.04C13.0127 122.4 14.3327 121.12 16.0127 120.2C17.6927 119.28 19.5927 118.82 21.7127 118.82C23.3127 118.82 24.7827 119.08 26.1227 119.6C27.4627 120.1 28.5927 120.85 29.5127 121.85L28.1327 123.26C26.4727 121.62 24.3627 120.8 21.8027 120.8C20.1027 120.8 18.5627 121.18 17.1827 121.94C15.8227 122.68 14.7527 123.72 13.9727 125.06C13.1927 126.38 12.8027 127.86 12.8027 129.5C12.8027 131.14 13.1927 132.62 13.9727 133.94C14.7527 135.26 15.8227 136.3 17.1827 137.06C18.5427 137.82 20.0727 138.2 21.7727 138.2C23.9327 138.2 25.7627 137.66 27.2627 136.58V129.5ZM53.2259 119V140H51.3959L37.8959 122.96V140H35.6759V119H37.5059L51.0359 136.04V119H53.2259ZM60.0802 119H62.3002V140H60.0802V119ZM73.2129 120.92H65.8329V119H82.8129V120.92H75.4329V140H73.2129V120.92ZM86.3595 119H88.5795V140H86.3595V119ZM104.592 140.18C102.512 140.18 100.622 139.72 98.9222 138.8C97.2422 137.86 95.9222 136.58 94.9622 134.96C94.0222 133.34 93.5522 131.52 93.5522 129.5C93.5522 127.48 94.0222 125.66 94.9622 124.04C95.9222 122.42 97.2422 121.15 98.9222 120.23C100.622 119.29 102.512 118.82 104.592 118.82C106.672 118.82 108.542 119.28 110.202 120.2C111.882 121.12 113.202 122.4 114.162 124.04C115.122 125.66 115.602 127.48 115.602 129.5C115.602 131.52 115.122 133.35 114.162 134.99C113.202 136.61 111.882 137.88 110.202 138.8C108.542 139.72 106.672 140.18 104.592 140.18ZM104.592 138.2C106.252 138.2 107.752 137.83 109.092 137.09C110.432 136.33 111.482 135.29 112.242 133.97C113.002 132.63 113.382 131.14 113.382 129.5C113.382 127.86 113.002 126.38 112.242 125.06C111.482 123.72 110.432 122.68 109.092 121.94C107.752 121.18 106.252 120.8 104.592 120.8C102.932 120.8 101.422 121.18 100.062 121.94C98.7222 122.68 97.6622 123.72 96.8822 125.06C96.1222 126.38 95.7422 127.86 95.7422 129.5C95.7422 131.14 96.1222 132.63 96.8822 133.97C97.6622 135.29 98.7222 136.33 100.062 137.09C101.422 137.83 102.932 138.2 104.592 138.2ZM138.128 119V140H136.298L122.798 122.96V140H120.578V119H122.408L135.938 136.04V119H138.128Z" fill="white"/>
<path d="M9.53 151.13H5.63L4.79 153H4.02L7.22 146H7.95L11.15 153H10.37L9.53 151.13ZM9.26 150.53L7.58 146.77L5.9 150.53H9.26ZM19.3152 151.13H15.4152L14.5752 153H13.8052L17.0052 146H17.7352L20.9352 153H20.1552L19.3152 151.13ZM19.0452 150.53L17.3652 146.77L15.6852 150.53H19.0452ZM24.0231 153.06C23.5031 153.06 23.0031 152.977 22.5231 152.81C22.0498 152.643 21.6831 152.423 21.4231 152.15L21.7131 151.58C21.9665 151.833 22.3031 152.04 22.7231 152.2C23.1431 152.353 23.5765 152.43 24.0231 152.43C24.6498 152.43 25.1198 152.317 25.4331 152.09C25.7465 151.857 25.9031 151.557 25.9031 151.19C25.9031 150.91 25.8165 150.687 25.6431 150.52C25.4765 150.353 25.2698 150.227 25.0231 150.14C24.7765 150.047 24.4331 149.947 23.9931 149.84C23.4665 149.707 23.0465 149.58 22.7331 149.46C22.4198 149.333 22.1498 149.143 21.9231 148.89C21.7031 148.637 21.5931 148.293 21.5931 147.86C21.5931 147.507 21.6865 147.187 21.8731 146.9C22.0598 146.607 22.3465 146.373 22.7331 146.2C23.1198 146.027 23.5998 145.94 24.1731 145.94C24.5731 145.94 24.9631 145.997 25.3431 146.11C25.7298 146.217 26.0631 146.367 26.3431 146.56L26.0931 147.15C25.7998 146.957 25.4865 146.813 25.1531 146.72C24.8198 146.62 24.4931 146.57 24.1731 146.57C23.5598 146.57 23.0965 146.69 22.7831 146.93C22.4765 147.163 22.3231 147.467 22.3231 147.84C22.3231 148.12 22.4065 148.347 22.5731 148.52C22.7465 148.687 22.9598 148.817 23.2131 148.91C23.4731 148.997 23.8198 149.093 24.2531 149.2C24.7665 149.327 25.1798 149.453 25.4931 149.58C25.8131 149.7 26.0831 149.887 26.3031 150.14C26.5231 150.387 26.6331 150.723 26.6331 151.15C26.6331 151.503 26.5365 151.827 26.3431 152.12C26.1565 152.407 25.8665 152.637 25.4731 152.81C25.0798 152.977 24.5965 153.06 24.0231 153.06ZM29.5078 146.64H27.0478V146H32.7078V146.64H30.2478V153H29.5078V146.64ZM38.67 153L37.07 150.75C36.89 150.77 36.7033 150.78 36.51 150.78H34.63V153H33.89V146H36.51C37.4033 146 38.1033 146.213 38.61 146.64C39.1167 147.067 39.37 147.653 39.37 148.4C39.37 148.947 39.23 149.41 38.95 149.79C38.6767 150.163 38.2833 150.433 37.77 150.6L39.48 153H38.67ZM36.49 150.15C37.1833 150.15 37.7133 149.997 38.08 149.69C38.4467 149.383 38.63 148.953 38.63 148.4C38.63 147.833 38.4467 147.4 38.08 147.1C37.7133 146.793 37.1833 146.64 36.49 146.64H34.63V150.15H36.49ZM44.1766 153.06C43.4832 153.06 42.8532 152.907 42.2866 152.6C41.7266 152.287 41.2866 151.86 40.9666 151.32C40.6532 150.78 40.4966 150.173 40.4966 149.5C40.4966 148.827 40.6532 148.22 40.9666 147.68C41.2866 147.14 41.7266 146.717 42.2866 146.41C42.8532 146.097 43.4832 145.94 44.1766 145.94C44.8699 145.94 45.4932 146.093 46.0466 146.4C46.6066 146.707 47.0466 147.133 47.3666 147.68C47.6866 148.22 47.8466 148.827 47.8466 149.5C47.8466 150.173 47.6866 150.783 47.3666 151.33C47.0466 151.87 46.6066 152.293 46.0466 152.6C45.4932 152.907 44.8699 153.06 44.1766 153.06ZM44.1766 152.4C44.7299 152.4 45.2299 152.277 45.6766 152.03C46.1232 151.777 46.4732 151.43 46.7266 150.99C46.9799 150.543 47.1066 150.047 47.1066 149.5C47.1066 148.953 46.9799 148.46 46.7266 148.02C46.4732 147.573 46.1232 147.227 45.6766 146.98C45.2299 146.727 44.7299 146.6 44.1766 146.6C43.6232 146.6 43.1199 146.727 42.6666 146.98C42.2199 147.227 41.8666 147.573 41.6066 148.02C41.3532 148.46 41.2266 148.953 41.2266 149.5C41.2266 150.047 41.3532 150.543 41.6066 150.99C41.8666 151.43 42.2199 151.777 42.6666 152.03C43.1199 152.277 43.6232 152.4 44.1766 152.4ZM55.3552 146V153H54.7452L50.2452 147.32V153H49.5052V146H50.1152L54.6252 151.68V146H55.3552ZM62.03 151.13H58.13L57.29 153H56.52L59.72 146H60.45L63.65 153H62.87L62.03 151.13ZM61.76 150.53L60.08 146.77L58.4 150.53H61.76ZM67.4815 153.06C66.5748 153.06 65.8682 152.8 65.3615 152.28C64.8548 151.76 64.6015 151.003 64.6015 150.01V146H65.3415V149.98C65.3415 150.793 65.5248 151.4 65.8915 151.8C66.2582 152.2 66.7882 152.4 67.4815 152.4C68.1815 152.4 68.7148 152.2 69.0815 151.8C69.4482 151.4 69.6315 150.793 69.6315 149.98V146H70.3515V150.01C70.3515 151.003 70.0982 151.76 69.5915 152.28C69.0915 152.8 68.3882 153.06 67.4815 153.06ZM73.8047 146.64H71.3447V146H77.0047V146.64H74.5447V153H73.8047V146.64ZM88.0741 146V153H87.3641V147.4L84.6141 152.11H84.2641L81.5141 147.43V153H80.8041V146H81.4141L84.4541 151.19L87.4641 146H88.0741ZM93.4148 153.06C92.7215 153.06 92.0915 152.907 91.5248 152.6C90.9648 152.287 90.5248 151.86 90.2048 151.32C89.8915 150.78 89.7348 150.173 89.7348 149.5C89.7348 148.827 89.8915 148.22 90.2048 147.68C90.5248 147.14 90.9648 146.717 91.5248 146.41C92.0915 146.097 92.7215 145.94 93.4148 145.94C94.1082 145.94 94.7315 146.093 95.2848 146.4C95.8448 146.707 96.2848 147.133 96.6048 147.68C96.9248 148.22 97.0848 148.827 97.0848 149.5C97.0848 150.173 96.9248 150.783 96.6048 151.33C96.2848 151.87 95.8448 152.293 95.2848 152.6C94.7315 152.907 94.1082 153.06 93.4148 153.06ZM93.4148 152.4C93.9682 152.4 94.4682 152.277 94.9148 152.03C95.3615 151.777 95.7115 151.43 95.9648 150.99C96.2182 150.543 96.3448 150.047 96.3448 149.5C96.3448 148.953 96.2182 148.46 95.9648 148.02C95.7115 147.573 95.3615 147.227 94.9148 146.98C94.4682 146.727 93.9682 146.6 93.4148 146.6C92.8615 146.6 92.3582 146.727 91.9048 146.98C91.4582 147.227 91.1048 147.573 90.8448 148.02C90.5915 148.46 90.4648 148.953 90.4648 149.5C90.4648 150.047 90.5915 150.543 90.8448 150.99C91.1048 151.43 91.4582 151.777 91.9048 152.03C92.3582 152.277 92.8615 152.4 93.4148 152.4ZM104.349 146L101.249 153H100.519L97.4187 146H98.2187L100.899 152.08L103.599 146H104.349ZM105.365 146H106.105V153H105.365V146ZM113.332 152.36V153H108.382V146H113.182V146.64H109.122V149.13H112.742V149.76H109.122V152.36H113.332ZM118.429 146.64V149.39H122.049V150.03H118.429V153H117.689V146H122.489V146.64H118.429ZM128.075 151.13H124.175L123.335 153H122.565L125.765 146H126.495L129.695 153H128.915L128.075 151.13ZM127.805 150.53L126.125 146.77L124.445 150.53H127.805ZM136.703 146V153H136.093L131.593 147.32V153H130.853V146H131.463L135.973 151.68V146H136.703Z" fill="white"/>
<defs>
<clipPath id="clip0">
<rect width="89.5556" height="93" fill="white" transform="translate(26)"/>
</clipPath>
</defs>
</svg>
