<svg width="196" height="54" viewBox="0 0 196 54" fill="none" xmlns="http://www.w3.org/2000/svg">
<path d="M48.4166 48.2041C48.1723 47.9592 47.8058 47.9592 47.5207 48.2041L46.9099 48.8163L46.2991 48.2041C46.0548 47.9592 45.6883 47.9592 45.4033 48.2041C45.159 48.449 45.159 48.8163 45.4033 49.1021L46.0141 49.7959L45.4033 50.4898C45.159 50.7347 45.159 51.1021 45.4033 51.3878C45.5254 51.5102 45.729 51.5919 45.8512 51.5919C46.0548 51.5919 46.177 51.5102 46.2991 51.3878L46.9099 50.7755L47.5207 51.3878C47.6429 51.5102 47.8465 51.5919 47.9687 51.5919C48.1723 51.5919 48.2944 51.5102 48.4166 51.3878C48.6609 51.1429 48.6609 50.7755 48.4166 50.4898L47.8058 49.7959L48.4166 49.1021C48.6609 48.8572 48.6609 48.4082 48.4166 48.2041Z" fill="white"/>
<path d="M3.70556 5.79591C3.82772 5.91835 4.03132 5.99999 4.15349 5.99999C4.35709 5.99999 4.47925 5.91835 4.60141 5.79591C4.84573 5.55101 4.84573 5.18366 4.60141 4.89795L3.9906 4.20407L4.60141 3.51019C4.84573 3.26529 4.84573 2.89795 4.60141 2.61223C4.35709 2.36733 3.9906 2.36733 3.70556 2.61223L3.05403 3.26529L2.44323 2.65305C2.1989 2.40815 1.83242 2.40815 1.54738 2.65305C1.30306 2.89795 1.30306 3.26529 1.54738 3.51019L2.15818 4.20407L1.54738 4.89795C1.30306 5.14284 1.30306 5.51019 1.54738 5.79591C1.66954 5.91835 1.87314 5.99999 1.9953 5.99999C2.1989 5.99999 2.32107 5.91835 2.44323 5.79591L3.05403 5.18366L3.70556 5.79591Z" fill="white"/>
<path d="M25.491 1.22449C25.8283 1.22449 26.1018 0.950378 26.1018 0.612245C26.1018 0.274111 25.8283 0 25.491 0C25.1537 0 24.8802 0.274111 24.8802 0.612245C24.8802 0.950378 25.1537 1.22449 25.491 1.22449Z" fill="white"/>
<path d="M14.6594 52.7347C14.9852 52.7347 15.2702 53.0204 15.2702 53.3469C15.2702 53.6735 14.9852 53.9592 14.6594 53.9592C14.3336 53.9592 14.0486 53.6735 14.0486 53.3469C14.0486 53.0204 14.2929 52.7347 14.6594 52.7347Z" fill="white"/>
<path d="M0.610807 15.3469C0.948146 15.3469 1.22161 15.0728 1.22161 14.7347C1.22161 14.3965 0.948146 14.1224 0.610807 14.1224C0.273467 14.1224 0 14.3965 0 14.7347C0 15.0728 0.273467 15.3469 0.610807 15.3469Z" fill="white"/>
<path d="M51.3485 16.5306C51.6742 16.5306 51.9593 16.8163 51.9593 17.1429C51.9593 17.4694 51.6742 17.7551 51.3485 17.7551C51.0227 17.7551 50.7377 17.4694 50.7377 17.1429C50.7377 16.8163 51.0227 16.5306 51.3485 16.5306Z" fill="white"/>
<path d="M46.7878 21.4694C46.7063 21.1429 46.3398 20.9796 46.0548 21.0204C45.729 21.102 45.4847 21.4694 45.6069 21.7551C47.48 28.898 45.4847 36.6531 40.2318 41.9184C34.8974 47.3061 26.9976 49.3469 19.7494 47.1837C19.4236 47.0612 19.0571 47.3061 19.0164 47.6327C18.8942 47.9592 19.0979 48.3265 19.4643 48.3674C21.4596 48.9388 23.5364 49.2653 25.6131 49.2653C31.3954 49.2653 37.0148 47.0204 41.1276 42.8163C46.5841 37.2245 48.7831 29.0612 46.7878 21.4694Z" fill="white"/>
<path d="M9.97654 42.8163C10.8724 43.7143 11.809 44.5306 12.7863 45.1837C12.9084 45.2653 13.0306 45.3061 13.1527 45.3061C13.3563 45.3061 13.5192 45.2245 13.6414 45.0612C13.845 44.7347 13.7635 44.3673 13.5192 44.1633C12.5827 43.4694 11.6461 42.7347 10.8317 41.9184C2.76902 33.7551 2.76902 20.5714 10.8317 12.4082C14.7816 8.44899 19.9938 6.32654 25.491 6.32654C30.9883 6.32654 36.2819 8.53062 40.1504 12.4082C40.9648 13.2245 41.6978 14.1633 42.39 15.102C42.5936 15.4286 42.9601 15.4694 43.2859 15.2245C43.6116 15.0204 43.6523 14.6531 43.408 14.3265C42.7158 13.3061 41.9014 12.3674 41.0462 11.4286C36.8928 7.26531 31.3141 5.02042 25.491 5.02042C19.5866 5.02042 14.0893 7.34695 9.97654 11.4694C1.38453 20.1633 1.38453 34.2041 9.97654 42.8163Z" fill="white"/>
<path d="M39.1324 6.85716C42.3086 5.67349 44.7518 5.59186 45.892 6.73471C47.1543 8.00002 46.9507 10.6939 45.5255 14.2857C44.141 17.6327 41.6978 21.551 38.5216 25.5919C38.318 25.8368 38.318 26.2857 38.6437 26.4898C38.7659 26.5715 38.8881 26.6123 39.0102 26.6123C39.2138 26.6123 39.3767 26.5306 39.4989 26.3674C42.7565 22.2041 45.2812 18.2041 46.6249 14.7347C48.3759 10.5306 48.3759 7.46941 46.7471 5.83675C45.2404 4.32655 42.4307 4.28573 38.6844 5.63267C38.3587 5.75512 38.1958 6.12247 38.318 6.449C38.4401 6.77553 38.7659 6.97961 39.1324 6.85716Z" fill="white"/>
<path d="M24.921 40.2449C24.7174 40 24.3101 39.9184 24.0251 40.1225C19.9531 43.3878 16.0032 45.8368 12.7048 47.2245C9.08071 48.7347 6.43388 48.8572 5.17154 47.6735C4.07209 46.5306 4.07209 44.0816 5.33443 40.8572C5.45659 40.5306 5.25298 40.1633 4.96794 40.0408C4.64218 39.9184 4.27569 40.1225 4.15353 40.4082C2.76904 44.1633 2.85048 47.0204 4.35713 48.4898C5.17154 49.3061 6.31172 49.6735 7.73693 49.6735C9.24359 49.6735 11.1167 49.2245 13.2342 48.3674C16.6954 46.9388 20.686 44.4082 24.8802 41.1021C25.1246 40.9388 25.1246 40.4898 24.921 40.2449Z" fill="white"/>
<path d="M37.0149 32.0816C37.3406 31.7143 37.585 31.3469 37.7478 30.898L38.1958 29.5918C38.3994 29.102 38.2772 28.5306 37.87 28.1633C37.5035 27.7959 36.9334 27.5918 36.4448 27.7959L35.1417 28.1633C34.6938 28.2857 34.2459 28.5306 33.8794 28.7755L29.9295 32.0408C29.7259 32.2449 29.4816 32.2857 29.2373 32.2449L25.8575 31.9184C25.5317 31.9184 25.1652 32 24.9209 32.1633L24.3508 32.5306C23.74 32.9796 23.6179 33.7959 23.9843 34.4082L25.6946 36.3674C25.3688 36.6939 25.206 37.102 25.2467 37.5102C25.3688 38 25.7353 38.449 26.1832 38.898L26.4276 39.1429C26.8755 39.6327 27.242 40.0408 27.8121 40.1633C27.9342 40.1633 28.0157 40.2449 28.1378 40.2449C28.4636 40.2449 28.7486 40.1225 29.0337 39.8776L30.8661 41.6327L30.9475 41.7143C31.1919 41.9184 31.4362 41.9592 31.7619 41.9592C32.1284 41.9592 32.5764 41.7551 32.8207 41.4694L33.2686 40.9796C33.4722 40.7347 33.5944 40.4082 33.5944 40.0408L33.3908 36.5306C33.3908 36.2857 33.4722 36.0408 33.6351 35.8367L37.0149 32.0816ZM28.1785 38.9796C27.9749 38.898 27.7306 38.6123 27.4456 38.2857L27.2013 38.0408C26.9569 37.7143 26.5905 37.4286 26.5905 37.3061L29.4002 35.4694C29.5223 35.3878 29.6038 35.3469 29.7259 35.3469C29.8481 35.3469 30.0517 35.4286 30.1738 35.551C30.3775 35.7551 30.3775 36.0408 30.2553 36.2857L28.1785 38.9796ZM32.6171 35.0204C32.2506 35.4694 32.0063 36.0408 32.047 36.5714L32.1691 39.9592V40.0408L31.7619 40.5714C31.6805 40.6531 31.6805 40.6531 31.6398 40.6531L29.7666 38.8163L31.0697 36.9796C31.5583 36.2857 31.5176 35.2653 30.9475 34.6123C30.3367 34 29.4002 33.8776 28.6265 34.3674L26.7533 35.6327L25.0431 33.6735C25.0431 33.5918 25.0431 33.551 25.1245 33.551L25.6946 33.1837H25.776L29.1558 33.5102C29.7259 33.5918 30.3367 33.3878 30.7847 33.0204L34.7345 29.7551C34.9789 29.551 35.2232 29.4286 35.5489 29.3061L36.852 28.9388C36.9334 28.9388 36.9742 28.9388 37.0556 29.0204C37.137 29.102 37.137 29.1429 37.137 29.2245L36.6484 30.449C36.5262 30.7755 36.4041 31.0204 36.2005 31.2653L32.6171 35.0204Z" fill="white"/>
<path d="M57.42 13H59.64V34H57.42V13ZM81.2627 23.5H83.3927V31.51C82.4127 32.37 81.2527 33.03 79.9127 33.49C78.5727 33.95 77.1627 34.18 75.6827 34.18C73.5827 34.18 71.6927 33.72 70.0127 32.8C68.3327 31.88 67.0127 30.61 66.0527 28.99C65.0927 27.35 64.6127 25.52 64.6127 23.5C64.6127 21.48 65.0927 19.66 66.0527 18.04C67.0127 16.4 68.3327 15.12 70.0127 14.2C71.6927 13.28 73.5927 12.82 75.7127 12.82C77.3127 12.82 78.7827 13.08 80.1227 13.6C81.4627 14.1 82.5927 14.85 83.5127 15.85L82.1327 17.26C80.4727 15.62 78.3627 14.8 75.8027 14.8C74.1027 14.8 72.5627 15.18 71.1827 15.94C69.8227 16.68 68.7527 17.72 67.9727 19.06C67.1927 20.38 66.8027 21.86 66.8027 23.5C66.8027 25.14 67.1927 26.62 67.9727 27.94C68.7527 29.26 69.8227 30.3 71.1827 31.06C72.5427 31.82 74.0727 32.2 75.7727 32.2C77.9327 32.2 79.7627 31.66 81.2627 30.58V23.5ZM107.226 13V34H105.396L91.8959 16.96V34H89.6759V13H91.5059L105.036 30.04V13H107.226ZM114.08 13H116.3V34H114.08V13ZM127.213 14.92H119.833V13H136.813V14.92H129.433V34H127.213V14.92ZM140.359 13H142.579V34H140.359V13ZM158.592 34.18C156.512 34.18 154.622 33.72 152.922 32.8C151.242 31.86 149.922 30.58 148.962 28.96C148.022 27.34 147.552 25.52 147.552 23.5C147.552 21.48 148.022 19.66 148.962 18.04C149.922 16.42 151.242 15.15 152.922 14.23C154.622 13.29 156.512 12.82 158.592 12.82C160.672 12.82 162.542 13.28 164.202 14.2C165.882 15.12 167.202 16.4 168.162 18.04C169.122 19.66 169.602 21.48 169.602 23.5C169.602 25.52 169.122 27.35 168.162 28.99C167.202 30.61 165.882 31.88 164.202 32.8C162.542 33.72 160.672 34.18 158.592 34.18ZM158.592 32.2C160.252 32.2 161.752 31.83 163.092 31.09C164.432 30.33 165.482 29.29 166.242 27.97C167.002 26.63 167.382 25.14 167.382 23.5C167.382 21.86 167.002 20.38 166.242 19.06C165.482 17.72 164.432 16.68 163.092 15.94C161.752 15.18 160.252 14.8 158.592 14.8C156.932 14.8 155.422 15.18 154.062 15.94C152.722 16.68 151.662 17.72 150.882 19.06C150.122 20.38 149.742 21.86 149.742 23.5C149.742 25.14 150.122 26.63 150.882 27.97C151.662 29.29 152.722 30.33 154.062 31.09C155.422 31.83 156.932 32.2 158.592 32.2ZM192.128 13V34H190.298L176.798 16.96V34H174.578V13H176.408L189.938 30.04V13H192.128Z" fill="white"/>
<path d="M63.53 45.13H59.63L58.79 47H58.02L61.22 40H61.95L65.15 47H64.37L63.53 45.13ZM63.26 44.53L61.58 40.77L59.9 44.53H63.26ZM73.3152 45.13H69.4152L68.5752 47H67.8052L71.0052 40H71.7352L74.9352 47H74.1552L73.3152 45.13ZM73.0452 44.53L71.3652 40.77L69.6852 44.53H73.0452ZM78.0231 47.06C77.5031 47.06 77.0031 46.9767 76.5231 46.81C76.0498 46.6433 75.6831 46.4233 75.4231 46.15L75.7131 45.58C75.9665 45.8333 76.3031 46.04 76.7231 46.2C77.1431 46.3533 77.5765 46.43 78.0231 46.43C78.6498 46.43 79.1198 46.3167 79.4331 46.09C79.7465 45.8567 79.9031 45.5567 79.9031 45.19C79.9031 44.91 79.8165 44.6867 79.6431 44.52C79.4765 44.3533 79.2698 44.2267 79.0231 44.14C78.7765 44.0467 78.4331 43.9467 77.9931 43.84C77.4665 43.7067 77.0465 43.58 76.7331 43.46C76.4198 43.3333 76.1498 43.1433 75.9231 42.89C75.7031 42.6367 75.5931 42.2933 75.5931 41.86C75.5931 41.5067 75.6865 41.1867 75.8731 40.9C76.0598 40.6067 76.3465 40.3733 76.7331 40.2C77.1198 40.0267 77.5998 39.94 78.1731 39.94C78.5731 39.94 78.9631 39.9967 79.3431 40.11C79.7298 40.2167 80.0631 40.3667 80.3431 40.56L80.0931 41.15C79.7998 40.9567 79.4865 40.8133 79.1531 40.72C78.8198 40.62 78.4931 40.57 78.1731 40.57C77.5598 40.57 77.0965 40.69 76.7831 40.93C76.4765 41.1633 76.3231 41.4667 76.3231 41.84C76.3231 42.12 76.4065 42.3467 76.5731 42.52C76.7465 42.6867 76.9598 42.8167 77.2131 42.91C77.4731 42.9967 77.8198 43.0933 78.2531 43.2C78.7665 43.3267 79.1798 43.4533 79.4931 43.58C79.8131 43.7 80.0831 43.8867 80.3031 44.14C80.5231 44.3867 80.6331 44.7233 80.6331 45.15C80.6331 45.5033 80.5365 45.8267 80.3431 46.12C80.1565 46.4067 79.8665 46.6367 79.4731 46.81C79.0798 46.9767 78.5965 47.06 78.0231 47.06ZM83.5078 40.64H81.0478V40H86.7078V40.64H84.2478V47H83.5078V40.64ZM92.67 47L91.07 44.75C90.89 44.77 90.7033 44.78 90.51 44.78H88.63V47H87.89V40H90.51C91.4033 40 92.1033 40.2133 92.61 40.64C93.1167 41.0667 93.37 41.6533 93.37 42.4C93.37 42.9467 93.23 43.41 92.95 43.79C92.6767 44.1633 92.2833 44.4333 91.77 44.6L93.48 47H92.67ZM90.49 44.15C91.1833 44.15 91.7133 43.9967 92.08 43.69C92.4467 43.3833 92.63 42.9533 92.63 42.4C92.63 41.8333 92.4467 41.4 92.08 41.1C91.7133 40.7933 91.1833 40.64 90.49 40.64H88.63V44.15H90.49ZM98.1766 47.06C97.4832 47.06 96.8532 46.9067 96.2866 46.6C95.7266 46.2867 95.2866 45.86 94.9666 45.32C94.6532 44.78 94.4966 44.1733 94.4966 43.5C94.4966 42.8267 94.6532 42.22 94.9666 41.68C95.2866 41.14 95.7266 40.7167 96.2866 40.41C96.8532 40.0967 97.4832 39.94 98.1766 39.94C98.8699 39.94 99.4932 40.0933 100.047 40.4C100.607 40.7067 101.047 41.1333 101.367 41.68C101.687 42.22 101.847 42.8267 101.847 43.5C101.847 44.1733 101.687 44.7833 101.367 45.33C101.047 45.87 100.607 46.2933 100.047 46.6C99.4932 46.9067 98.8699 47.06 98.1766 47.06ZM98.1766 46.4C98.7299 46.4 99.2299 46.2767 99.6766 46.03C100.123 45.7767 100.473 45.43 100.727 44.99C100.98 44.5433 101.107 44.0467 101.107 43.5C101.107 42.9533 100.98 42.46 100.727 42.02C100.473 41.5733 100.123 41.2267 99.6766 40.98C99.2299 40.7267 98.7299 40.6 98.1766 40.6C97.6232 40.6 97.1199 40.7267 96.6666 40.98C96.2199 41.2267 95.8666 41.5733 95.6066 42.02C95.3532 42.46 95.2266 42.9533 95.2266 43.5C95.2266 44.0467 95.3532 44.5433 95.6066 44.99C95.8666 45.43 96.2199 45.7767 96.6666 46.03C97.1199 46.2767 97.6232 46.4 98.1766 46.4ZM109.355 40V47H108.745L104.245 41.32V47H103.505V40H104.115L108.625 45.68V40H109.355ZM116.03 45.13H112.13L111.29 47H110.52L113.72 40H114.45L117.65 47H116.87L116.03 45.13ZM115.76 44.53L114.08 40.77L112.4 44.53H115.76ZM121.481 47.06C120.575 47.06 119.868 46.8 119.361 46.28C118.855 45.76 118.601 45.0033 118.601 44.01V40H119.341V43.98C119.341 44.7933 119.525 45.4 119.891 45.8C120.258 46.2 120.788 46.4 121.481 46.4C122.181 46.4 122.715 46.2 123.081 45.8C123.448 45.4 123.631 44.7933 123.631 43.98V40H124.351V44.01C124.351 45.0033 124.098 45.76 123.591 46.28C123.091 46.8 122.388 47.06 121.481 47.06ZM127.805 40.64H125.345V40H131.005V40.64H128.545V47H127.805V40.64ZM142.074 40V47H141.364V41.4L138.614 46.11H138.264L135.514 41.43V47H134.804V40H135.414L138.454 45.19L141.464 40H142.074ZM147.415 47.06C146.722 47.06 146.092 46.9067 145.525 46.6C144.965 46.2867 144.525 45.86 144.205 45.32C143.892 44.78 143.735 44.1733 143.735 43.5C143.735 42.8267 143.892 42.22 144.205 41.68C144.525 41.14 144.965 40.7167 145.525 40.41C146.092 40.0967 146.722 39.94 147.415 39.94C148.108 39.94 148.732 40.0933 149.285 40.4C149.845 40.7067 150.285 41.1333 150.605 41.68C150.925 42.22 151.085 42.8267 151.085 43.5C151.085 44.1733 150.925 44.7833 150.605 45.33C150.285 45.87 149.845 46.2933 149.285 46.6C148.732 46.9067 148.108 47.06 147.415 47.06ZM147.415 46.4C147.968 46.4 148.468 46.2767 148.915 46.03C149.362 45.7767 149.712 45.43 149.965 44.99C150.218 44.5433 150.345 44.0467 150.345 43.5C150.345 42.9533 150.218 42.46 149.965 42.02C149.712 41.5733 149.362 41.2267 148.915 40.98C148.468 40.7267 147.968 40.6 147.415 40.6C146.862 40.6 146.358 40.7267 145.905 40.98C145.458 41.2267 145.105 41.5733 144.845 42.02C144.592 42.46 144.465 42.9533 144.465 43.5C144.465 44.0467 144.592 44.5433 144.845 44.99C145.105 45.43 145.458 45.7767 145.905 46.03C146.358 46.2767 146.862 46.4 147.415 46.4ZM158.349 40L155.249 47H154.519L151.419 40H152.219L154.899 46.08L157.599 40H158.349ZM159.365 40H160.105V47H159.365V40ZM167.332 46.36V47H162.382V40H167.182V40.64H163.122V43.13H166.742V43.76H163.122V46.36H167.332ZM172.429 40.64V43.39H176.049V44.03H172.429V47H171.689V40H176.489V40.64H172.429ZM182.075 45.13H178.175L177.335 47H176.565L179.765 40H180.495L183.695 47H182.915L182.075 45.13ZM181.805 44.53L180.125 40.77L178.445 44.53H181.805ZM190.703 40V47H190.093L185.593 41.32V47H184.853V40H185.463L189.973 45.68V40H190.703Z" fill="white"/>
</svg>
