<svg width="35" height="35" viewBox="0 0 35 35" fill="none" xmlns="http://www.w3.org/2000/svg">
<path d="M32.3027 34.0263C32.2655 33.4748 32.0259 32.9564 31.63 32.5707C31.2341 32.1849 30.7097 31.9589 30.1574 31.9359C30.1393 31.5615 30.0348 31.1964 29.8521 30.8691C29.6693 30.5419 29.4133 30.2614 29.1041 30.0495C28.7948 29.8377 28.4408 29.7004 28.0696 29.6482C27.6984 29.5961 27.3202 29.6306 26.9646 29.749C26.8723 29.4464 26.7126 29.1688 26.4976 28.9368C26.2826 28.7048 26.0179 28.5246 25.7232 28.4096C25.4286 28.2947 25.1117 28.248 24.7964 28.2731C24.4812 28.2981 24.1757 28.3943 23.9029 28.5544C23.7186 28.2777 23.4505 28.0674 23.1379 27.9544C22.8253 27.8413 22.4846 27.8314 22.166 27.9262C21.8474 28.0209 21.5675 28.2153 21.3675 28.4808C21.1675 28.7463 21.0578 29.0689 21.0546 29.4014V30.2952C21.0546 30.5399 20.9574 30.7746 20.7843 30.9477C20.6113 31.1208 20.3765 31.218 20.1318 31.218C19.887 31.218 19.6523 31.1208 19.4792 30.9477C19.3062 30.7746 19.2089 30.5399 19.2089 30.2952V21.2598H20.6445V23.6177C20.6445 23.8443 20.8222 23.9941 21.0487 23.9941H22.6675C22.894 23.9941 23.1054 23.8443 23.1054 23.6177V22.6269H24.3359V23.6177C24.3359 23.8443 24.5319 23.9941 24.7585 23.9941H26.3773C26.6038 23.9941 26.7968 23.8443 26.7968 23.6177V18.3153C26.7953 17.3212 26.3996 16.3682 25.6965 15.6654C24.9934 14.9627 24.0403 14.5674 23.0461 14.5663C22.6271 14.5659 22.2254 14.3994 21.929 14.1033C21.6326 13.8072 21.4656 13.4057 21.4648 12.9867V7.89843C21.4648 5.73711 21.1669 4.90648 20.6316 3.39867C20.5044 3.04027 20.3587 2.63407 20.201 2.16041C20.0243 1.6308 19.6856 1.17018 19.2326 0.843776C18.7797 0.517374 18.2355 0.341736 17.6773 0.341736C17.119 0.341736 16.5748 0.517374 16.1219 0.843776C15.669 1.17018 15.3302 1.6308 15.1536 2.16041C14.9957 2.63401 14.843 3.0402 14.7161 3.39854C14.1803 4.90641 13.8769 5.73704 13.8769 7.89843V12.9867C13.876 13.4057 13.7091 13.8072 13.4127 14.1033C13.1163 14.3994 12.7145 14.5659 12.2955 14.5663C11.3014 14.5674 10.3483 14.9627 9.64518 15.6654C8.94207 16.3682 8.54637 17.3212 8.54487 18.3153V23.6177C8.54487 23.8443 8.74851 23.9941 8.97499 23.9941H10.5938C10.8203 23.9941 11.0058 23.8443 11.0058 23.6177V22.6269H12.3046V23.6177C12.3019 23.6682 12.3099 23.7187 12.3281 23.7658C12.3463 23.813 12.3743 23.8557 12.4102 23.8913C12.4461 23.9269 12.4891 23.9544 12.5365 23.9721C12.5838 23.9898 12.6343 23.9973 12.6848 23.9941H14.3036C14.5301 23.9941 14.6972 23.8443 14.6972 23.6177V21.2598H16.1328V30.2954C16.1328 30.4166 16.1089 30.5366 16.0625 30.6486C16.0161 30.7605 15.9481 30.8623 15.8625 30.948C15.7768 31.0337 15.675 31.1017 15.5631 31.148C15.4511 31.1944 15.3311 31.2183 15.2099 31.2183C15.0887 31.2183 14.9687 31.1944 14.8567 31.148C14.7448 31.1017 14.643 31.0337 14.5573 30.948C14.4717 30.8623 14.4037 30.7605 14.3573 30.6486C14.3109 30.5366 14.2871 30.4166 14.2871 30.2954V30.0425C14.286 29.7214 14.1827 29.4091 13.9921 29.1506C13.8015 28.8922 13.5336 28.7012 13.2272 28.6053C12.9208 28.5094 12.5918 28.5135 12.288 28.6171C11.9841 28.7207 11.7211 28.9185 11.5371 29.1816C11.195 28.8789 10.7747 28.6785 10.3242 28.6033C9.87365 28.528 9.41105 28.5809 8.98915 28.756C8.56726 28.931 8.20307 29.2211 7.93815 29.5932C7.67324 29.9653 7.51826 30.4044 7.4909 30.8603C7.17904 30.7983 6.85623 30.8213 6.55631 30.9269C6.25638 31.0325 5.99037 31.2168 5.78616 31.4605C5.38059 31.3468 4.95242 31.3403 4.54358 31.4416C4.13474 31.543 3.75923 31.7488 3.45381 32.0389C3.1484 32.329 2.92355 32.6935 2.80128 33.0966C2.679 33.4997 2.66349 33.9276 2.75627 34.3385C2.77679 34.4292 2.82757 34.5103 2.90026 34.5684C2.97296 34.6265 3.06325 34.6582 3.15631 34.6582H3.15911L31.8964 34.4641C31.9524 34.4637 32.0077 34.4519 32.0589 34.4294C32.1101 34.4068 32.1561 34.374 32.1942 34.333C32.2323 34.292 32.2615 34.2436 32.2802 34.1909C32.2989 34.1381 32.3066 34.0821 32.3028 34.0263H32.3027ZM25.9765 23.1738H25.1562V22.6269H25.9765V23.1738ZM21.4648 14.7912C21.9008 15.1772 22.4638 15.3892 23.0461 15.3867C23.8228 15.3875 24.5674 15.6962 25.1167 16.2452C25.666 16.7942 25.9752 17.5387 25.9765 18.3153V20.4394H21.4648V14.7912ZM21.4648 21.2598H25.9765V21.8066H21.4648V21.2598ZM21.4648 22.6269H22.2851V23.1738H21.4648V22.6269ZM10.1855 23.1738H9.36518V22.6269H10.1855V23.1738ZM13.8769 23.1738H13.1249V22.6269H13.8769V23.1738ZM13.8769 21.8066H9.36518V21.2598H13.8769V21.8066ZM13.8769 20.4394H9.36518V18.3153C9.36645 17.5387 9.67564 16.7942 10.225 16.2452C10.7743 15.6962 11.5189 15.3875 12.2955 15.3867C12.8779 15.3892 13.4409 15.1772 13.8769 14.7912V20.4394ZM20.6445 20.4394H19.2089V19.0723H20.6445V20.4394ZM14.6972 7.89843C14.6972 5.87834 14.9672 5.14129 15.4884 3.673C15.6169 3.31117 15.7667 2.90102 15.9271 2.41977C16.2362 1.49247 17.0332 1.16209 17.674 1.16209C18.3149 1.16209 19.111 1.49247 19.42 2.4199C19.5805 2.90115 19.7295 3.31138 19.8581 3.67327C20.3793 5.1415 20.6442 5.87855 20.6442 7.89857V18.2519H14.6972V7.89843ZM18.3886 19.0723V20.4394H16.9531V19.0723H18.3886ZM14.6972 20.4394V19.0723H16.1328V20.4394H14.6972ZM3.5167 33.8354C3.51044 33.5205 3.59646 33.2106 3.76416 32.944C3.93187 32.6774 4.17392 32.4657 4.46049 32.335C4.74705 32.2043 5.0656 32.1603 5.37688 32.2084C5.68815 32.2565 5.97854 32.3947 6.21224 32.6058C6.29303 32.6787 6.39945 32.7165 6.50809 32.7109C6.61673 32.7053 6.7187 32.6567 6.79155 32.5759C6.86441 32.4951 6.90219 32.3887 6.89658 32.2801C6.89097 32.1714 6.84243 32.0695 6.76165 31.9966C6.69993 31.9414 6.63542 31.8893 6.5684 31.8407C6.69578 31.744 6.84538 31.6809 7.0035 31.6571C7.16162 31.6333 7.32319 31.6495 7.47339 31.7043C7.6236 31.7592 7.75764 31.8508 7.86322 31.9709C7.9688 32.091 8.04255 32.2357 8.0777 32.3917C8.08955 32.4442 8.11163 32.4939 8.14269 32.5379C8.17374 32.5819 8.21316 32.6194 8.25869 32.6482C8.30423 32.6769 8.35498 32.6965 8.40806 32.7056C8.46114 32.7148 8.5155 32.7134 8.56804 32.7015C8.62058 32.6897 8.67028 32.6676 8.71429 32.6366C8.7583 32.6055 8.79576 32.5661 8.82453 32.5205C8.85331 32.475 8.87283 32.4243 8.88199 32.3712C8.89115 32.3181 8.88976 32.2637 8.87791 32.2112C8.79585 31.8459 8.59976 31.5161 8.31798 31.2695L8.30595 30.9952C8.30802 30.6123 8.44613 30.2427 8.69562 29.9523C8.9451 29.6619 9.28971 29.4697 9.66787 29.4099C10.046 29.3502 10.4331 29.4269 10.7599 29.6262C11.0868 29.8256 11.3321 30.1347 11.4521 30.4982C11.4861 30.6016 11.5598 30.6872 11.6569 30.7362C11.7541 30.7852 11.8667 30.7936 11.97 30.7596C12.0734 30.7255 12.159 30.6518 12.208 30.5547C12.257 30.4575 12.2654 30.3449 12.2313 30.2416C12.1942 30.1291 12.1489 30.0194 12.0959 29.9134C12.1295 29.7456 12.2241 29.5961 12.3614 29.4939C12.4987 29.3917 12.6691 29.344 12.8395 29.3601C13.0099 29.3761 13.1684 29.4547 13.2842 29.5808C13.4001 29.7068 13.4651 29.8713 13.4667 30.0425V30.2954C13.4667 30.5243 13.5118 30.751 13.5994 30.9625C13.687 31.174 13.8154 31.3662 13.9773 31.528C14.1392 31.6899 14.3313 31.8183 14.5428 31.9059C14.7543 31.9935 14.981 32.0386 15.2099 32.0386C15.4388 32.0386 15.6655 31.9935 15.877 31.9059C16.0885 31.8183 16.2806 31.6899 16.4425 31.528C16.6044 31.3662 16.7328 31.174 16.8204 30.9625C16.908 30.751 16.9531 30.5243 16.9531 30.2954V21.2598H18.3886V30.2954C18.3886 30.7577 18.5723 31.2011 18.8992 31.528C19.2261 31.8549 19.6695 32.0386 20.1318 32.0386C20.5941 32.0386 21.0375 31.8549 21.3644 31.528C21.6913 31.2011 21.8749 30.7577 21.8749 30.2954V29.4014C21.8772 29.2349 21.9363 29.0743 22.0425 28.9461C22.1486 28.8179 22.2953 28.7298 22.4584 28.6965C22.6214 28.6631 22.791 28.6865 22.9389 28.7627C23.0869 28.8389 23.2043 28.9634 23.2718 29.1155C23.1926 29.2226 23.1239 29.3371 23.0667 29.4573C23.0209 29.5555 23.0157 29.6678 23.0523 29.7698C23.0889 29.8718 23.1642 29.9553 23.262 30.002C23.3597 30.0488 23.472 30.055 23.5743 30.0194C23.6767 29.9838 23.7608 29.9093 23.8085 29.812C23.8652 29.694 23.9396 29.5855 24.0293 29.4902C24.1482 29.3623 24.2924 29.2604 24.4527 29.191C24.613 29.1216 24.7859 29.0861 24.9606 29.0868C25.2618 29.0879 25.5529 29.1952 25.7828 29.3898C26.0127 29.5844 26.1666 29.8538 26.2174 30.1506C26.1602 30.1958 26.1044 30.2428 26.0511 30.2934C26.0106 30.3301 25.9778 30.3745 25.9547 30.4241C25.9315 30.4736 25.9186 30.5273 25.9165 30.582C25.9144 30.6366 25.9233 30.6911 25.9426 30.7423C25.9619 30.7934 25.9912 30.8402 26.0289 30.8799C26.0666 30.9196 26.1118 30.9513 26.1619 30.9732C26.212 30.9952 26.2659 31.0068 26.3206 31.0076C26.3753 31.0084 26.4296 30.9982 26.4803 30.9777C26.531 30.9571 26.577 30.9267 26.6158 30.8881C26.8443 30.6709 27.1315 30.5254 27.4418 30.4696C27.7521 30.4138 28.0719 30.4501 28.3618 30.5741C28.6517 30.6981 28.8989 30.9043 29.0728 31.1673C29.2468 31.4302 29.3399 31.7384 29.3406 32.0537C28.919 32.1973 28.5496 32.4631 28.2795 32.8173C28.215 32.9039 28.1873 33.0124 28.2023 33.1193C28.2173 33.2262 28.2738 33.3229 28.3597 33.3884C28.4455 33.4539 28.5537 33.4829 28.6608 33.4691C28.7679 33.4553 28.8652 33.3999 28.9317 33.3148C29.0843 33.1148 29.2873 32.9589 29.5197 32.8627C29.7522 32.7666 30.0061 32.7338 30.2554 32.7676C30.5047 32.8013 30.7406 32.9005 30.9391 33.055C31.1377 33.2095 31.2918 33.4139 31.3858 33.6472L3.5167 33.8354Z" fill="#EB844D"/>
<path d="M20.2915 28.1315C20.2383 28.1318 20.1856 28.1426 20.1365 28.1634C20.0875 28.1843 20.0431 28.2147 20.0059 28.2528C19.9688 28.291 19.9396 28.3363 19.9201 28.3858C19.9007 28.4354 19.8913 28.4884 19.8925 28.5417V28.5468C19.8909 28.5997 19.8999 28.6525 19.9191 28.7018C19.9382 28.7512 19.9671 28.7962 20.0039 28.8343C20.0408 28.8723 20.0849 28.9025 20.1337 28.9231C20.1825 28.9438 20.2349 28.9544 20.2878 28.9544C20.3415 28.954 20.3944 28.9429 20.4438 28.9219C20.4931 28.9009 20.5377 28.8703 20.5752 28.8319C20.6126 28.7936 20.6421 28.7482 20.6619 28.6984C20.6817 28.6485 20.6914 28.5953 20.6906 28.5417C20.6918 28.4884 20.6824 28.4354 20.6629 28.3858C20.6435 28.3363 20.6143 28.291 20.5771 28.2528C20.54 28.2147 20.4956 28.1843 20.4466 28.1634C20.3975 28.1426 20.3448 28.1318 20.2915 28.1315Z" fill="#EB844D"/>
<path d="M20.7129 24.6523C20.7129 24.5435 20.6697 24.4392 20.5928 24.3623C20.5158 24.2853 20.4115 24.2421 20.3027 24.2421C20.194 24.2421 20.0896 24.2853 20.0127 24.3623C19.9358 24.4392 19.8926 24.5435 19.8926 24.6523V27.3817C19.8926 27.4904 19.9358 27.5948 20.0127 27.6717C20.0896 27.7486 20.194 27.7918 20.3027 27.7918C20.4115 27.7918 20.5158 27.7486 20.5928 27.6717C20.6697 27.5948 20.7129 27.4904 20.7129 27.3817V24.6523Z" fill="#EB844D"/>
<path d="M14.6973 28.5417C14.6973 28.6505 14.7405 28.7548 14.8174 28.8317C14.8943 28.9086 14.9986 28.9519 15.1074 28.9519C15.2162 28.9519 15.3205 28.9086 15.3974 28.8317C15.4744 28.7548 15.5176 28.6505 15.5176 28.5417V25.8488C15.5176 25.74 15.4744 25.6357 15.3974 25.5588C15.3205 25.4819 15.2162 25.4387 15.1074 25.4387C14.9986 25.4387 14.8943 25.4819 14.8174 25.5588C14.7405 25.6357 14.6973 25.74 14.6973 25.8488V28.5417Z" fill="#EB844D"/>
<path d="M15.1074 25.0937C15.2162 25.0937 15.3205 25.0505 15.3974 24.9736C15.4744 24.8967 15.5176 24.7924 15.5176 24.6836V24.6523C15.5176 24.5435 15.4744 24.4392 15.3974 24.3623C15.3205 24.2853 15.2162 24.2421 15.1074 24.2421C14.9986 24.2421 14.8943 24.2853 14.8174 24.3623C14.7405 24.4392 14.6973 24.5435 14.6973 24.6523V24.6836C14.6973 24.7924 14.7405 24.8967 14.8174 24.9736C14.8943 25.0505 14.9986 25.0937 15.1074 25.0937Z" fill="#EB844D"/>
<path d="M17.6762 4.38868C17.1166 4.38304 16.57 4.55645 16.116 4.8836C15.6621 5.21074 15.3246 5.67447 15.1529 6.20704C15.1185 6.31024 15.1265 6.42289 15.1751 6.52022C15.2237 6.61755 15.309 6.69158 15.4122 6.72603C15.5154 6.76047 15.628 6.75252 15.7253 6.7039C15.8227 6.65529 15.8967 6.57 15.9311 6.46681C16.2403 5.53951 17.0352 5.209 17.6762 5.209C18.3171 5.209 19.1117 5.53945 19.4211 6.46681C19.4556 6.57 19.5296 6.65527 19.6269 6.70388C19.7242 6.75249 19.8369 6.76044 19.9401 6.72599C20.0433 6.69155 20.1285 6.61752 20.1771 6.5202C20.2257 6.42288 20.2337 6.31023 20.1993 6.20704C20.0276 5.67448 19.6902 5.21075 19.2363 4.88361C18.7823 4.55646 18.2357 4.38304 17.6762 4.38868Z" fill="#EB844D"/>
</svg>
