<svg width="35" height="35" viewBox="0 0 35 35" fill="none" xmlns="http://www.w3.org/2000/svg">
<path d="M8.59755 4.92678C8.85982 5.01488 9.0981 5.16253 9.29373 5.35817C9.48935 5.55381 9.63699 5.7921 9.72507 6.05437C9.75228 6.13606 9.80451 6.20711 9.87435 6.25746C9.94419 6.30781 10.0281 6.3349 10.1142 6.3349C10.2003 6.3349 10.2842 6.30781 10.3541 6.25746C10.4239 6.20711 10.4761 6.13606 10.5033 6.05437C10.5915 5.79206 10.7392 5.55373 10.9349 5.35809C11.1306 5.16245 11.3689 5.01482 11.6313 4.92678C11.7129 4.89955 11.784 4.84733 11.8343 4.77749C11.8846 4.70766 11.9117 4.62376 11.9117 4.53768C11.9117 4.4516 11.8846 4.3677 11.8343 4.29787C11.784 4.22803 11.7129 4.1758 11.6313 4.14858C11.3689 4.06047 11.1305 3.91278 10.9348 3.71708C10.7391 3.52138 10.5915 3.28301 10.5033 3.02065C10.4761 2.93896 10.4239 2.86791 10.3541 2.81756C10.2842 2.76721 10.2003 2.74011 10.1142 2.74011C10.0281 2.74011 9.94419 2.76721 9.87435 2.81756C9.80451 2.86791 9.75228 2.93896 9.72507 3.02065C9.63697 3.28301 9.48927 3.52138 9.29358 3.71708C9.09788 3.91278 8.8595 4.06047 8.59714 4.14858C8.51548 4.1758 8.44446 4.22803 8.39413 4.29787C8.34379 4.3677 8.31671 4.4516 8.31671 4.53768C8.31671 4.62376 8.34379 4.70766 8.39413 4.77749C8.44446 4.84733 8.51548 4.89955 8.59714 4.92678H8.59755ZM10.1142 4.01986C10.2619 4.21573 10.4361 4.39003 10.632 4.53768C10.4361 4.68527 10.2618 4.85955 10.1142 5.05543C9.96661 4.85956 9.79231 4.68529 9.59642 4.53768C9.79229 4.39001 9.96657 4.21572 10.1142 4.01986V4.01986Z" fill="#EB844D"/>
<path d="M34.3779 6.22904C34.1156 6.14096 33.8772 5.99328 33.6815 5.79758C33.4858 5.60188 33.3381 5.36349 33.25 5.10111C33.2228 5.01945 33.1706 4.94842 33.1007 4.89809C33.0309 4.84776 32.947 4.82068 32.8609 4.82068C32.7748 4.82068 32.6909 4.84776 32.6211 4.89809C32.5513 4.94842 32.499 5.01945 32.4718 5.10111C32.3838 5.36345 32.2361 5.60182 32.0405 5.79752C31.8449 5.99321 31.6065 6.14092 31.3442 6.22904C31.2626 6.25627 31.1915 6.3085 31.1412 6.37833C31.0909 6.44816 31.0638 6.53206 31.0638 6.61814C31.0638 6.70422 31.0909 6.78812 31.1412 6.85796C31.1915 6.92779 31.2626 6.98002 31.3442 7.00724C31.6065 7.09535 31.8448 7.243 32.0404 7.43862C32.2361 7.63424 32.3838 7.87251 32.4719 8.13476C32.4992 8.21643 32.5514 8.28745 32.6212 8.33778C32.6911 8.38811 32.775 8.4152 32.861 8.4152C32.9471 8.4152 33.031 8.38811 33.1009 8.33778C33.1707 8.28745 33.2229 8.21643 33.2501 8.13476C33.3383 7.87241 33.486 7.63404 33.6817 7.43835C33.8774 7.24265 34.1157 7.09495 34.3781 7.00683C34.4597 6.97961 34.5308 6.92738 34.5811 6.85755C34.6314 6.78771 34.6585 6.70381 34.6585 6.61773C34.6585 6.53165 34.6314 6.44775 34.5811 6.37792C34.5308 6.30808 34.4597 6.25586 34.3781 6.22863L34.3779 6.22904ZM32.861 7.13603C32.7134 6.9401 32.5391 6.76578 32.3432 6.61814C32.5391 6.47057 32.7134 6.29629 32.861 6.10039C33.0087 6.29628 33.183 6.47055 33.3789 6.61814C33.183 6.76578 33.0087 6.9401 32.861 7.13603V7.13603Z" fill="#EB844D"/>
<path d="M30.8035 11.8773C30.7873 11.826 30.7612 11.7783 30.7266 11.737C30.692 11.6957 30.6496 11.6616 30.6019 11.6367C30.5054 11.5864 30.3929 11.5765 30.2891 11.6091C30.1854 11.6417 30.0988 11.7143 30.0485 11.8107C29.9982 11.9072 29.9883 12.0197 30.0209 12.1234C30.3692 13.2345 30.5009 14.4022 30.409 15.5629C30.4004 15.6714 30.4351 15.7788 30.5056 15.8616C30.5761 15.9444 30.6766 15.9958 30.785 16.0045C30.7962 16.0054 30.8072 16.0059 30.8182 16.0059C30.9213 16.0058 31.0205 15.9669 31.0962 15.897C31.1718 15.827 31.2184 15.7312 31.2266 15.6285C31.327 14.3626 31.1834 13.0892 30.8034 11.8775L30.8035 11.8773Z" fill="#EB844D"/>
<path d="M30.0124 10.042C29.8137 9.68659 29.5933 9.3438 29.3522 9.01562C29.2874 8.92898 29.191 8.87144 29.084 8.85553C28.977 8.83963 28.8681 8.86665 28.7809 8.9307C28.6937 8.99476 28.6354 9.09067 28.6186 9.19754C28.6018 9.30442 28.6279 9.4136 28.6912 9.50131C28.9121 9.80211 29.1142 10.1163 29.2962 10.4421C29.3223 10.4895 29.3575 10.5313 29.3997 10.5651C29.442 10.5989 29.4906 10.6239 29.5426 10.6389C29.5946 10.6538 29.649 10.6583 29.7028 10.6521C29.7565 10.6459 29.8085 10.6291 29.8558 10.6027C29.903 10.5763 29.9446 10.5409 29.978 10.4983C30.0115 10.4558 30.0362 10.4071 30.0508 10.355C30.0653 10.3029 30.0694 10.2484 30.0628 10.1947C30.0562 10.141 30.0391 10.0891 30.0124 10.042V10.042Z" fill="#EB844D"/>
<path d="M6.78293 11.5532C6.83618 11.5614 6.89052 11.559 6.94283 11.5461C6.99514 11.5332 7.0444 11.5102 7.08779 11.4782C7.13118 11.4463 7.16785 11.4061 7.1957 11.36C7.22355 11.3139 7.24203 11.2627 7.25009 11.2095C7.3667 10.4473 7.562 9.69928 7.83286 8.97739C8.11027 8.2387 8.46273 7.53041 8.8847 6.86365C8.91426 6.81813 8.9345 6.76719 8.94423 6.7138C8.95396 6.6604 8.95299 6.6056 8.94139 6.55258C8.92979 6.49956 8.90778 6.44936 8.87663 6.40491C8.84549 6.36046 8.80583 6.32263 8.75996 6.29362C8.71409 6.2646 8.66292 6.24498 8.60941 6.2359C8.5559 6.22681 8.50111 6.22843 8.44824 6.24066C8.39536 6.2529 8.34543 6.27552 8.30136 6.30719C8.25728 6.33886 8.21993 6.37897 8.19147 6.42519C7.73942 7.13944 7.36185 7.8982 7.0647 8.68953C6.77407 9.46464 6.56454 10.2678 6.43949 11.0861C6.42312 11.1936 6.45011 11.3032 6.51451 11.3908C6.57891 11.4784 6.67545 11.5368 6.78293 11.5532V11.5532Z" fill="#EB844D"/>
<path d="M20.2269 30.9026C20.5108 30.9026 20.7883 30.8184 21.0244 30.6607C21.2605 30.503 21.4445 30.2788 21.5531 30.0165C21.6618 29.7541 21.6902 29.4655 21.6348 29.187C21.5794 28.9086 21.4427 28.6528 21.2419 28.452C21.0412 28.2513 20.7854 28.1145 20.5069 28.0591C20.2285 28.0037 19.9398 28.0322 19.6775 28.1408C19.4152 28.2495 19.191 28.4335 19.0333 28.6696C18.8755 28.9056 18.7913 29.1832 18.7913 29.4671C18.7918 29.8477 18.9431 30.2126 19.2123 30.4817C19.4814 30.7508 19.8463 30.9022 20.2269 30.9026ZM20.2269 28.8519C20.3485 28.8519 20.4675 28.8879 20.5687 28.9555C20.6698 29.0231 20.7487 29.1192 20.7953 29.2317C20.8418 29.3441 20.854 29.4678 20.8303 29.5871C20.8065 29.7065 20.7479 29.8161 20.6619 29.9021C20.5759 29.9882 20.4662 30.0468 20.3469 30.0705C20.2275 30.0942 20.1038 30.0821 19.9914 30.0355C19.879 29.9889 19.7829 29.9101 19.7153 29.8089C19.6477 29.7077 19.6116 29.5888 19.6116 29.4671C19.6118 29.304 19.6767 29.1476 19.792 29.0323C19.9074 28.9169 20.0637 28.852 20.2269 28.8519Z" fill="#EB844D"/>
<path d="M24.3284 30.9026C24.6123 30.9026 24.8899 30.8184 25.126 30.6607C25.362 30.503 25.546 30.2788 25.6547 30.0165C25.7633 29.7541 25.7918 29.4655 25.7364 29.187C25.681 28.9086 25.5443 28.6528 25.3435 28.452C25.1427 28.2513 24.8869 28.1145 24.6085 28.0591C24.33 28.0037 24.0414 28.0322 23.7791 28.1408C23.5168 28.2495 23.2926 28.4335 23.1348 28.6696C22.9771 28.9056 22.8929 29.1832 22.8929 29.4671C22.8933 29.8477 23.0447 30.2126 23.3138 30.4817C23.5829 30.7508 23.9478 30.9022 24.3284 30.9026V30.9026ZM24.3284 28.8519C24.4501 28.8519 24.5691 28.8879 24.6702 28.9555C24.7714 29.0231 24.8503 29.1192 24.8968 29.2317C24.9434 29.3441 24.9556 29.4678 24.9318 29.5871C24.9081 29.7065 24.8495 29.8161 24.7635 29.9021C24.6774 29.9882 24.5678 30.0468 24.4484 30.0705C24.3291 30.0942 24.2054 30.0821 24.093 30.0355C23.9806 29.9889 23.8845 29.9101 23.8169 29.8089C23.7493 29.7077 23.7132 29.5888 23.7132 29.4671C23.7134 29.304 23.7782 29.1476 23.8936 29.0323C24.0089 28.9169 24.1653 28.852 24.3284 28.8519V28.8519Z" fill="#EB844D"/>
<path d="M16.1252 30.9026C16.4092 30.9026 16.6867 30.8184 16.9228 30.6607C17.1589 30.503 17.3429 30.2788 17.4515 30.0165C17.5602 29.7541 17.5886 29.4655 17.5332 29.187C17.4778 28.9086 17.3411 28.6528 17.1403 28.452C16.9396 28.2513 16.6838 28.1145 16.4053 28.0591C16.1268 28.0037 15.8382 28.0322 15.5759 28.1408C15.3136 28.2495 15.0894 28.4335 14.9316 28.6696C14.7739 28.9056 14.6897 29.1832 14.6897 29.4671C14.6901 29.8477 14.8415 30.2126 15.1106 30.4817C15.3798 30.7508 15.7446 30.9022 16.1252 30.9026V30.9026ZM16.1252 28.8519C16.2469 28.8519 16.3659 28.8879 16.4671 28.9555C16.5682 29.0231 16.6471 29.1192 16.6937 29.2317C16.7402 29.3441 16.7524 29.4678 16.7287 29.5871C16.7049 29.7065 16.6463 29.8161 16.5603 29.9021C16.4742 29.9882 16.3646 30.0468 16.2453 30.0705C16.1259 30.0942 16.0022 30.0821 15.8898 30.0355C15.7774 29.9889 15.6813 29.9101 15.6137 29.8089C15.5461 29.7077 15.51 29.5888 15.51 29.4671C15.5102 29.304 15.5751 29.1476 15.6904 29.0323C15.8058 28.9169 15.9621 28.852 16.1252 28.8519V28.8519Z" fill="#EB844D"/>
<path d="M18.2987 13.8379C18.1392 14.0401 18.0216 14.2722 17.9529 14.5205C17.8842 14.7688 17.8658 15.0282 17.8986 15.2837C17.9603 15.7569 18.1922 16.1914 18.5509 16.5061C18.9097 16.8208 19.3707 16.9941 19.8479 16.9936C19.9313 16.9936 20.0147 16.9884 20.0974 16.9779C20.3536 16.9464 20.601 16.8648 20.8256 16.7376C21.0502 16.6104 21.2475 16.4401 21.4062 16.2366C21.5657 16.0343 21.6832 15.8023 21.7519 15.554C21.8206 15.3057 21.8391 15.0462 21.8062 14.7907C21.7545 14.4062 21.5905 14.0455 21.3348 13.7537C21.0791 13.4619 20.743 13.252 20.3686 13.1503C19.9942 13.0486 19.5982 13.0596 19.23 13.1819C18.8618 13.3042 18.5378 13.5324 18.2987 13.8379V13.8379ZM18.9447 14.3437C19.0375 14.2247 19.153 14.1252 19.2843 14.0509C19.4157 13.9766 19.5605 13.929 19.7103 13.9107C19.7588 13.9045 19.8076 13.9014 19.8565 13.9014C20.1341 13.9006 20.4026 14.0008 20.6116 14.1835C20.8207 14.3661 20.9561 14.6186 20.9926 14.8938C21.0115 15.0419 21.0007 15.1922 20.9608 15.336C20.9209 15.4798 20.8527 15.6142 20.7602 15.7313C20.6208 15.9093 20.4322 16.0423 20.2178 16.1138C20.0034 16.1854 19.7726 16.1922 19.5543 16.1336C19.3361 16.075 19.1398 15.9534 18.9901 15.784C18.8404 15.6147 18.7439 15.405 18.7124 15.1812C18.6935 15.0331 18.7042 14.8828 18.7441 14.7389C18.784 14.5951 18.8522 14.4606 18.9447 14.3435V14.3437Z" fill="#EB844D"/>
<path d="M33.3952 13.3304C33.1494 11.4065 32.4434 9.57022 31.337 7.97721C30.0606 6.1496 28.3087 4.70579 26.271 3.80196C24.2332 2.89812 21.9871 2.56867 19.7756 2.84923C16.6041 3.24572 13.7421 4.87752 11.7182 7.44298C10.2066 9.35923 9.31977 11.5992 9.12324 13.9217C7.96091 14.0157 6.87649 14.5436 6.08545 15.4004C5.29441 16.2572 4.85464 17.3803 4.85351 18.5464V22.8625C4.85279 23.099 4.7584 23.3255 4.591 23.4925C4.42361 23.6595 4.19686 23.7534 3.9604 23.7536C3.48545 23.7514 3.01475 23.843 2.57532 24.0232C2.13588 24.2034 1.73637 24.4687 1.39971 24.8037C1.06305 25.1387 0.79587 25.5369 0.613518 25.9755C0.431166 26.414 0.337228 26.8843 0.337097 27.3592C0.336967 27.8342 0.430646 28.3045 0.612757 28.7431C0.794868 29.1818 1.06183 29.5801 1.3983 29.9153C1.73478 30.2505 2.13415 30.516 2.57348 30.6964C3.01282 30.8769 3.48347 30.9687 3.95842 30.9668H9.55507C9.63126 31.3328 9.83084 31.6615 10.1204 31.8979C10.41 32.1344 10.772 32.2642 11.1458 32.2656H29.3079C30.2071 32.2656 30.9668 31.5279 30.9668 30.6286V28.3056C30.9616 27.9203 30.8223 27.5489 30.5727 27.2553C30.3231 26.9617 29.979 26.7643 29.5996 26.6972V23.7155C31.0129 22.4113 32.0945 20.7887 32.7547 18.9825C33.4148 17.1762 33.6344 15.2386 33.3952 13.3304V13.3304ZM12.3615 7.9513C14.251 5.55585 16.9197 4.03322 19.876 3.66319C22.2644 3.35721 24.6883 3.81789 26.7979 4.97876C26.8321 4.99756 26.8663 5.01752 26.9 5.03673L19.7838 11.2049C19.6462 11.2075 19.5089 11.2175 19.3724 11.2346C18.8698 11.2963 18.3843 11.4565 17.9437 11.706C17.5031 11.9555 17.116 12.2895 16.8046 12.6887C16.4922 13.0849 16.262 13.5394 16.1274 14.0257C15.9928 14.5119 15.9566 15.0202 16.0209 15.5206C16.2651 17.454 17.9287 18.8707 19.8429 18.8707C20.0067 18.8707 20.1702 18.8603 20.3327 18.8398C20.4629 18.8234 20.5912 18.8006 20.7175 18.7714L28.7793 23.777V24.6094H11.6211V22.9357C11.6316 21.7716 11.3885 20.6193 10.9085 19.5587C10.4234 18.4979 10.1072 17.3677 9.97138 16.2091C9.62021 13.2785 10.4727 10.3458 12.3615 7.9513V7.9513ZM19.8613 12.0244C20.5971 12.0227 21.3083 12.289 21.862 12.7735C22.4157 13.258 22.7741 13.9275 22.8702 14.6569C22.9206 15.0499 22.8921 15.4489 22.7863 15.8307C22.6806 16.2125 22.4997 16.5693 22.2543 16.8803C22.0088 17.195 21.7036 17.4582 21.3562 17.6549C21.0088 17.8515 20.6261 17.9777 20.2299 18.0262C18.5659 18.2359 17.0428 17.0661 16.8347 15.4181C16.7843 15.0251 16.8128 14.6261 16.9186 14.2443C17.0243 13.8625 17.2052 13.5056 17.4506 13.1946C17.6961 12.8799 18.0013 12.6167 18.3486 12.4201C18.696 12.2235 19.0787 12.0973 19.4749 12.0487C19.6031 12.0326 19.7321 12.0244 19.8613 12.0244V12.0244ZM28.7793 25.4297V26.6602H11.6211V25.4297H28.7793ZM9.08072 14.7484C9.07444 15.2164 9.09615 15.6844 9.14573 16.1498C9.08954 16.1578 9.03396 16.1677 8.979 16.1796L8.33232 14.9058C8.57584 14.8282 8.82659 14.7755 9.08072 14.7484ZM7.58153 15.2393L8.08438 16.2298L7.11963 15.554C7.26571 15.4379 7.42009 15.3328 7.58153 15.2393V15.2393ZM6.52606 16.1397L7.64859 16.9258L6.19732 16.6126C6.29489 16.4469 6.40478 16.2888 6.52606 16.1397V16.1397ZM5.85334 17.3673L7.23153 17.6594C7.17675 17.8077 7.13416 17.9601 7.10418 18.1153H5.69221C5.7186 17.8608 5.77263 17.61 5.85334 17.3673V17.3673ZM5.67383 18.9356H7.04101V19.5508H5.67383V18.9356ZM5.67383 20.3711H7.04101V20.918H5.67383V20.3711ZM5.67383 21.7383H7.04101V22.4424L5.67383 22.3008V21.7383ZM5.65004 23.1233L7.04197 23.2641C6.98793 23.6825 6.84874 24.0853 6.63298 24.4477L5.48454 23.6351C5.56656 23.4743 5.62243 23.3016 5.65004 23.1233V23.1233ZM4.94594 24.2588L6.12356 25.0923C5.88279 25.3266 5.60579 25.5205 5.30325 25.6665L4.47241 24.495C4.64164 24.4414 4.80147 24.3617 4.94614 24.2588H4.94594ZM3.54457 24.6047L4.48266 25.9277C4.30948 25.9575 4.13408 25.9726 3.95835 25.9728C3.9161 25.9728 3.8744 25.9755 3.83305 25.9792L2.6332 24.9085C2.91704 24.7551 3.22548 24.6523 3.54464 24.6047H3.54457ZM1.26 28.1026C1.15609 27.7208 1.13461 27.3214 1.19697 26.9307L2.56628 27.2669C2.56512 27.282 2.56457 27.2974 2.56395 27.3126L1.26 28.1026ZM2.28751 29.6112C2.01224 29.4051 1.77701 29.1504 1.59346 28.8596L2.78975 28.135C2.83223 28.1991 2.87987 28.2597 2.93221 28.3161L2.28751 29.6112ZM2.86952 26.4966L1.44457 26.1468C1.57741 25.8754 1.75316 25.6272 1.96506 25.4118L3.01157 26.3457C2.96056 26.3924 2.91308 26.4428 2.86952 26.4965V26.4966ZM3.96484 30.1465H3.95842C3.6356 30.1501 3.31463 30.0973 3.00993 29.9906L3.64253 28.7315C3.74565 28.7594 3.85164 28.7755 3.95842 28.7793H3.96484V30.1465ZM5.33203 30.1465H4.78515V28.7793H5.33203V30.1465ZM6.76758 30.1465H6.15234V28.7793H6.76758V30.1465ZM8.13476 30.1465H7.58789V28.7793H8.13476V30.1465ZM9.50195 30.1465H8.95508V28.7793H9.50195V30.1465ZM9.55507 27.959H3.95842C3.80481 27.9575 3.658 27.8954 3.54993 27.7862C3.44186 27.6771 3.38127 27.5296 3.38133 27.376C3.3798 27.3009 3.39321 27.2261 3.42077 27.1562C3.44832 27.0862 3.48948 27.0224 3.54186 26.9685C3.59424 26.9145 3.65681 26.8715 3.72593 26.8419C3.79505 26.8123 3.86935 26.7967 3.94454 26.796C4.9855 26.7937 5.98291 26.3779 6.71742 25.6403C7.45193 24.9027 7.8634 23.9035 7.86133 22.8625V18.5464C7.86485 18.1605 8.00637 17.7887 8.26027 17.4981C8.51418 17.2075 8.8637 17.0175 9.2456 16.9622C9.42149 17.9771 9.72758 18.9651 10.1563 19.9017C10.5888 20.8542 10.8088 21.8896 10.8008 22.9357V26.7069C10.1855 26.8336 9.69554 27.3438 9.55507 27.959V27.959ZM12.8516 31.4453H11.1458C10.9289 31.4442 10.7211 31.358 10.5671 31.2053C10.4131 31.0526 10.3252 30.8455 10.3223 30.6286V28.3056C10.3249 28.0878 10.4124 27.8797 10.5663 27.7256C10.7201 27.5715 10.928 27.4835 11.1458 27.4805H12.8516V31.4453ZM26.7969 31.4453H13.6719V27.4805H26.7969V31.4453ZM30.1465 28.3056V30.6286C30.1465 31.0756 29.7548 31.4453 29.3079 31.4453H27.6172V27.4805H29.3079C29.5272 27.4829 29.7371 27.5703 29.8934 27.7241C30.0498 27.8779 30.1405 28.0863 30.1465 28.3056V28.3056ZM29.124 23.0254L21.6869 18.4081C22.158 18.1552 22.5712 17.807 22.9004 17.3857C23.2128 16.9895 23.4431 16.5349 23.5776 16.0487C23.7122 15.5624 23.7483 15.0542 23.684 14.5537C23.5865 13.8009 23.2681 13.0939 22.7689 12.522C22.2698 11.9502 21.6123 11.5391 20.8795 11.3408L27.634 5.48633C28.8177 6.27558 29.8433 7.27935 30.6577 8.44581C31.6923 9.92754 32.3486 11.6399 32.5695 13.4335C32.7902 15.1906 32.5931 16.975 31.9944 18.6417C31.3957 20.3083 30.4123 21.8103 29.124 23.0254V23.0254Z" fill="#EB844D"/>
</svg>
