<svg width="24" height="24" viewBox="0 0 24 24" fill="none" xmlns="http://www.w3.org/2000/svg">
<g clip-path="url(#clip0)">
<path d="M5.07108 19.2132C8.97196 23.1141 15.3123 23.1141 19.2132 19.2132C23.1141 15.3123 23.1141 8.97194 19.2132 5.07106C15.3123 1.17019 8.97196 1.17019 5.07108 5.07106C1.17021 8.97194 1.17021 15.3123 5.07108 19.2132ZM18.0347 6.24958C21.2874 9.50227 21.2874 14.782 18.0347 18.0347C14.782 21.2874 9.50229 21.2874 6.24959 18.0347C2.9969 14.782 2.9969 9.50227 6.24959 6.24958C9.50229 2.99688 14.782 2.99688 18.0347 6.24958Z" fill="#6B6B6B"/>
<path d="M8.21373 16.0705C8.65371 16.5105 9.39224 16.4634 9.89222 15.9634L15.9633 9.89229C16.4633 9.39231 16.5105 8.65378 16.0705 8.2138C15.6305 7.77382 14.892 7.82096 14.392 8.32094L8.32087 14.3921C7.83875 14.8742 7.77375 15.6306 8.21373 16.0705Z" fill="#6B6B6B"/>
<path d="M8.21374 8.21371C7.77377 8.65369 7.82091 9.39223 8.32088 9.8922L14.392 15.9633C14.892 16.4633 15.6305 16.5104 16.0705 16.0705C16.5105 15.6305 16.4633 14.8919 15.9634 14.392L9.89223 8.32085C9.41011 7.83873 8.65372 7.77374 8.21374 8.21371Z" fill="#6B6B6B"/>
</g>
<defs>
<clipPath id="clip0">
<rect width="24" height="24" fill="white"/>
</clipPath>
</defs>
</svg>
