<svg width="35" height="35" viewBox="0 0 35 35" fill="none" xmlns="http://www.w3.org/2000/svg">
<path d="M21.9352 30.5589C21.0531 30.816 20.1387 30.9454 19.2198 30.9431C19.1111 30.9431 19.0067 30.9863 18.9298 31.0632C18.8529 31.1401 18.8097 31.2444 18.8097 31.3532C18.8097 31.462 18.8529 31.5663 18.9298 31.6432C19.0067 31.7202 19.1111 31.7634 19.2198 31.7634C20.2171 31.7657 21.2094 31.6251 22.1667 31.3458C22.2698 31.314 22.3562 31.2429 22.4072 31.1478C22.4582 31.0528 22.4697 30.9415 22.4392 30.8381C22.4088 30.7346 22.3388 30.6473 22.2445 30.5951C22.1502 30.5428 22.0391 30.5298 21.9352 30.5589Z" fill="#DDC856"/>
<path d="M8.36996 9.37556C8.46104 9.43493 8.57197 9.4557 8.67836 9.43332C8.78475 9.41094 8.8779 9.34724 8.93735 9.25621C9.18858 8.87409 9.48248 8.5218 9.81337 8.20615C9.89049 8.13051 9.93465 8.02752 9.93628 7.91952C9.93791 7.81152 9.89688 7.70724 9.82208 7.62931C9.74729 7.55139 9.64478 7.50611 9.5368 7.50331C9.42883 7.50051 9.3241 7.54042 9.24537 7.61436C8.86967 7.9732 8.53605 8.37366 8.25095 8.80798C8.19148 8.89903 8.17062 9.00998 8.19294 9.11641C8.21525 9.22285 8.27893 9.31607 8.36996 9.37556Z" fill="#DDC856"/>
<path d="M10.8281 7.32592C10.9035 7.32594 10.9773 7.3051 11.0416 7.2657C11.6203 6.91464 12.2393 6.63463 12.885 6.43171C13.8982 6.11345 14.9573 5.9659 16.0188 5.9951H16.0289C16.1377 5.99639 16.2425 5.95441 16.3203 5.8784C16.3982 5.80239 16.4426 5.69858 16.4439 5.5898C16.4452 5.48102 16.4032 5.37618 16.3272 5.29835C16.2512 5.22052 16.1474 5.17608 16.0386 5.17479C14.8861 5.14323 13.7365 5.30377 12.6368 5.64982C11.928 5.87272 11.2488 6.18028 10.6137 6.56583C10.5374 6.61245 10.4783 6.68276 10.4457 6.76604C10.413 6.84932 10.4084 6.94101 10.4327 7.02712C10.4569 7.11323 10.5087 7.18905 10.58 7.24302C10.6514 7.29699 10.7384 7.32615 10.8279 7.32606L10.8281 7.32592Z" fill="#DDC856"/>
<path d="M1.50391 19.8184C1.50391 19.7096 1.46069 19.6053 1.38377 19.5283C1.30686 19.4514 1.20253 19.4082 1.09375 19.4082C0.98497 19.4082 0.880645 19.4514 0.803726 19.5283C0.726807 19.6053 0.683594 19.7096 0.683594 19.8184C0.68595 20.8519 0.974622 21.8647 1.51758 22.7441C1.57477 22.8352 1.66542 22.9001 1.77002 22.925C1.87461 22.9499 1.98479 22.9327 2.07683 22.8771C2.16887 22.8215 2.23542 22.7321 2.26216 22.6279C2.28889 22.5238 2.27367 22.4133 2.21977 22.3203C1.75456 21.5685 1.50678 20.7025 1.50391 19.8184Z" fill="#DDC856"/>
<path d="M4.88855 24.7359C4.30838 24.4357 3.7705 24.0601 3.28894 23.6187C3.24949 23.5816 3.20309 23.5527 3.15241 23.5336C3.10172 23.5145 3.04776 23.5057 2.99364 23.5076C2.93952 23.5095 2.88631 23.522 2.83708 23.5446C2.78785 23.5672 2.74357 23.5993 2.7068 23.639C2.67003 23.6788 2.6415 23.7254 2.62286 23.7763C2.60421 23.8271 2.59582 23.8811 2.59816 23.9352C2.60051 23.9893 2.61354 24.0424 2.63652 24.0915C2.65949 24.1405 2.69195 24.1845 2.73202 24.221C3.26674 24.7115 3.86406 25.1291 4.5084 25.4629C4.60481 25.5133 4.71729 25.5234 4.82111 25.4909C4.92493 25.4583 5.01157 25.3859 5.06198 25.2895C5.11239 25.1931 5.12244 25.0806 5.08991 24.9768C5.05739 24.873 4.98496 24.7863 4.88855 24.7359Z" fill="#DDC856"/>
<path d="M7.20677 25.5515C7.1002 25.5297 6.98932 25.5512 6.89854 25.6111C6.80775 25.671 6.7445 25.7646 6.72269 25.8712C6.70087 25.9777 6.7223 26.0886 6.78224 26.1794C6.84217 26.2702 6.93572 26.3334 7.0423 26.3552C7.74095 26.4972 8.45213 26.5685 9.16507 26.5679C9.27385 26.5679 9.37817 26.5247 9.45509 26.4478C9.53201 26.3708 9.57523 26.2665 9.57523 26.1577C9.57523 26.049 9.53201 25.9446 9.45509 25.8677C9.37817 25.7908 9.27385 25.7476 9.16507 25.7476C8.50738 25.7482 7.85129 25.6825 7.20677 25.5515Z" fill="#DDC856"/>
<path d="M29.2783 11.8209C29.8172 12.03 30.3322 12.2961 30.8147 12.6145C30.8596 12.6443 30.9099 12.6649 30.9628 12.6753C31.0156 12.6856 31.07 12.6855 31.1228 12.6748C31.1756 12.6641 31.2258 12.6431 31.2705 12.6131C31.3152 12.583 31.3535 12.5444 31.3833 12.4995C31.4131 12.4547 31.4338 12.4043 31.4441 12.3515C31.4545 12.2986 31.4543 12.2442 31.4436 12.1914C31.433 12.1386 31.412 12.0884 31.3819 12.0437C31.3518 11.999 31.3133 11.9607 31.2684 11.9309C30.7372 11.5801 30.1701 11.287 29.5768 11.0566C29.5266 11.037 29.4731 11.0274 29.4192 11.0285C29.3654 11.0296 29.3122 11.0413 29.2629 11.0629C29.2136 11.0845 29.169 11.1157 29.1317 11.1545C29.0943 11.1934 29.0651 11.2392 29.0455 11.2894C29.0259 11.3395 29.0163 11.3931 29.0174 11.4469C29.0185 11.5008 29.0302 11.5539 29.0518 11.6032C29.0955 11.7029 29.1769 11.7811 29.2783 11.8207V11.8209Z" fill="#DDC856"/>
<path d="M32.8933 14.0164C32.8474 14.0446 32.8075 14.0816 32.7759 14.1252C32.7443 14.1688 32.7216 14.2182 32.709 14.2706C32.6965 14.323 32.6945 14.3773 32.7029 14.4305C32.7114 14.4837 32.7303 14.5347 32.7585 14.5806C33.2712 15.3911 33.5271 16.3376 33.4925 17.296C33.4904 17.3499 33.4989 17.4036 33.5176 17.4541C33.5362 17.5046 33.5646 17.551 33.6012 17.5906C33.6378 17.6301 33.6818 17.6621 33.7307 17.6846C33.7796 17.7072 33.8325 17.7199 33.8863 17.722H33.9026C34.0085 17.7219 34.1104 17.6808 34.1867 17.6074C34.263 17.5339 34.308 17.4337 34.3121 17.3279C34.3493 16.2075 34.0518 15.1015 33.4577 14.1509C33.4294 14.105 33.3925 14.0651 33.3488 14.0335C33.3052 14.0019 33.2557 13.9792 33.2033 13.9667C33.1509 13.9542 33.0966 13.9522 33.0434 13.9607C32.9902 13.9693 32.9392 13.9882 32.8933 14.0164Z" fill="#DDC856"/>
<path d="M8.60566 29.0008C8.16895 28.7779 7.75462 28.5137 7.36836 28.2118C7.32609 28.1777 7.27746 28.1523 7.22531 28.1371C7.17316 28.122 7.11852 28.1173 7.06456 28.1235C7.01059 28.1296 6.95839 28.1464 6.91096 28.1728C6.86354 28.1993 6.82184 28.2349 6.78829 28.2776C6.75475 28.3204 6.73001 28.3693 6.71553 28.4216C6.70105 28.474 6.69711 28.5287 6.70394 28.5826C6.71076 28.6364 6.72822 28.6884 6.7553 28.7355C6.78238 28.7826 6.81854 28.8238 6.86168 28.8568C7.28919 29.1913 7.74784 29.484 8.23133 29.7308C8.32805 29.7796 8.44016 29.7882 8.54319 29.7546C8.64622 29.7211 8.73178 29.6481 8.7812 29.5517C8.83062 29.4553 8.83988 29.3432 8.80695 29.24C8.77402 29.1368 8.70158 29.0508 8.60546 29.0008H8.60566Z" fill="#DDC856"/>
<path d="M12.7998 29.9808C12.5023 29.9801 12.2017 29.9659 11.9067 29.9385C11.5398 29.9045 11.1752 29.8495 10.8146 29.774C10.7083 29.7522 10.5977 29.7733 10.507 29.8328C10.4163 29.8923 10.3528 29.9853 10.3305 30.0915C10.3082 30.1977 10.3289 30.3084 10.3881 30.3994C10.4472 30.4903 10.54 30.5541 10.6461 30.5769C11.037 30.6636 11.4325 30.7279 11.8307 30.7697C12.1503 30.7994 12.4757 30.83 12.798 30.83H12.7989C12.9088 30.8262 13.013 30.7798 13.0895 30.7007C13.166 30.6216 13.2088 30.5159 13.209 30.4059C13.2091 30.2958 13.1665 30.19 13.0902 30.1108C13.0139 30.0315 12.9098 29.9849 12.7998 29.9808Z" fill="#DDC856"/>
<path d="M14.639 9.7822C13.4804 11.5697 13.3792 13.6586 14.3613 15.513C14.3618 15.514 14.3625 15.5148 14.363 15.5158C14.3705 15.5298 14.3788 15.5434 14.3879 15.5565C14.3885 15.5573 14.3893 15.5581 14.3898 15.559C14.3945 15.5655 14.3997 15.5713 14.4046 15.5774C14.411 15.5853 14.4173 15.5933 14.424 15.6006C14.4297 15.6067 14.4357 15.6122 14.4417 15.6178C14.4485 15.6247 14.4553 15.631 14.4629 15.6371C14.4691 15.6422 14.4756 15.6469 14.4821 15.6516C14.4899 15.6573 14.4977 15.6628 14.5058 15.6679C14.5127 15.672 14.5195 15.676 14.5264 15.6798C14.5348 15.6844 14.5432 15.6886 14.5519 15.6926C14.5591 15.6959 14.5663 15.6994 14.5737 15.7021C14.5822 15.7055 14.5909 15.7083 14.5996 15.7111C14.6084 15.7139 14.6153 15.7162 14.6234 15.7179C14.6314 15.7196 14.6401 15.7215 14.6485 15.723C14.6569 15.7246 14.6657 15.7266 14.6744 15.7276C14.6819 15.7286 14.6895 15.7286 14.6971 15.7292C14.7062 15.7298 14.7152 15.731 14.7245 15.731C14.7438 15.7308 14.7631 15.7293 14.7822 15.7265C14.7856 15.726 14.789 15.7252 14.7925 15.7245C14.808 15.722 14.8232 15.7185 14.8382 15.7141C14.8431 15.7127 14.8479 15.7112 14.8528 15.7096C14.8672 15.7047 14.8814 15.6991 14.8952 15.6927C14.8993 15.6908 14.9036 15.6891 14.9077 15.687C14.9104 15.6857 14.9133 15.6847 14.916 15.6833C14.9308 15.6754 14.945 15.6665 14.9587 15.6569L14.9596 15.6563C15.1815 15.5012 15.4169 15.3664 15.663 15.2534C15.7618 15.2079 15.8384 15.1249 15.8761 15.0228C15.9138 14.9208 15.9093 14.8079 15.8638 14.7091C15.8182 14.6103 15.7353 14.5336 15.6332 14.496C15.5311 14.4583 15.4183 14.4627 15.3195 14.5083C15.1742 14.5753 15.0329 14.648 14.8956 14.7265C14.2693 13.2471 14.4186 11.6302 15.3276 10.2278C15.3868 10.1365 15.4072 10.0255 15.3845 9.9191C15.3618 9.81272 15.2977 9.71972 15.2064 9.66056C15.1151 9.6014 15.0041 9.58093 14.8977 9.60365C14.7913 9.62638 14.6983 9.69043 14.6392 9.78173L14.639 9.7822Z" fill="#DDC856"/>
<path d="M16.892 8.50326C16.9742 8.50329 17.0545 8.47852 17.1224 8.43217C17.5128 8.16742 17.9259 7.93766 18.3567 7.74557C18.8766 7.51431 19.4174 7.33331 19.9717 7.20505C20.0241 7.19284 20.0737 7.17042 20.1175 7.13906C20.1613 7.1077 20.1985 7.06803 20.2269 7.0223C20.2554 6.97657 20.2746 6.92568 20.2834 6.87254C20.2922 6.8194 20.2904 6.76505 20.2782 6.71259C20.266 6.66012 20.2436 6.61058 20.2122 6.56678C20.1809 6.52299 20.1412 6.48579 20.0955 6.45733C20.0497 6.42887 19.9988 6.40969 19.9457 6.40089C19.8926 6.3921 19.8382 6.39385 19.7857 6.40606C19.1803 6.5462 18.5898 6.74401 18.0221 6.99676C17.547 7.2086 17.0915 7.46202 16.6611 7.75404C16.5885 7.8034 16.5338 7.87471 16.5048 7.9575C16.4758 8.04028 16.4741 8.13019 16.4999 8.21401C16.5258 8.29783 16.5778 8.37116 16.6484 8.42322C16.719 8.47528 16.8045 8.50333 16.8922 8.50326H16.892Z" fill="#DDC856"/>
<path d="M25.7613 7.64353C26.4973 7.94118 27.1831 8.35009 27.7949 8.85595C27.8784 8.92569 27.9861 8.9594 28.0945 8.94968C28.2028 8.93996 28.3029 8.88759 28.3726 8.8041C28.4424 8.72061 28.4761 8.61284 28.4663 8.50449C28.4566 8.39615 28.4043 8.2961 28.3208 8.22636C27.6445 7.66664 26.8864 7.21411 26.0727 6.88461C25.9725 6.84522 25.8608 6.84685 25.7617 6.88913C25.6626 6.93142 25.5842 7.01098 25.5433 7.11062C25.5024 7.21026 25.5023 7.32198 25.5431 7.42167C25.5839 7.52136 25.6623 7.601 25.7613 7.6434L25.7613 7.64353Z" fill="#DDC856"/>
<path d="M2.38347 13.8941C2.43555 13.9079 2.48985 13.9114 2.54326 13.9043C2.59668 13.8971 2.64816 13.8795 2.69475 13.8524C2.74134 13.8253 2.78212 13.7893 2.81476 13.7464C2.8474 13.7035 2.87126 13.6546 2.88496 13.6025C2.99649 13.1853 3.16148 12.7842 3.37585 12.4092C3.50737 12.1787 3.65517 11.9578 3.81813 11.7483C4.14398 11.3326 4.51947 10.9584 4.93622 10.634C4.97858 10.6007 5.01398 10.5595 5.04038 10.5125C5.06679 10.4656 5.08369 10.4139 5.09012 10.3604C5.09655 10.3069 5.09238 10.2527 5.07786 10.2008C5.06333 10.1489 5.03873 10.1004 5.00547 10.0581C4.9722 10.0157 4.93091 9.98032 4.88396 9.95392C4.83701 9.92751 4.78532 9.91061 4.73184 9.90418C4.67836 9.89775 4.62414 9.90191 4.57227 9.91644C4.5204 9.93096 4.4719 9.95556 4.42954 9.98883C3.96008 10.3546 3.53714 10.7765 3.17015 11.2451C2.98318 11.4856 2.8136 11.7392 2.66272 12.0039C2.41341 12.4403 2.22156 12.9072 2.09192 13.3928C2.06414 13.4979 2.07924 13.6098 2.13392 13.7038C2.18859 13.7978 2.27835 13.8662 2.38347 13.8941Z" fill="#DDC856"/>
<path d="M3.02207 17.416C3.11999 17.3687 3.1951 17.2844 3.23088 17.1817C3.26666 17.079 3.26018 16.9663 3.21287 16.8683C3.09598 16.6267 2.99883 16.3761 2.92234 16.1188C2.89144 16.0145 2.82036 15.9268 2.72476 15.8749C2.62916 15.823 2.51685 15.8112 2.41255 15.8421C2.30825 15.873 2.22049 15.9441 2.16859 16.0397C2.11669 16.1353 2.10489 16.2476 2.1358 16.3519C2.22497 16.6516 2.33827 16.9437 2.47458 17.2252C2.49797 17.2737 2.5307 17.3172 2.5709 17.353C2.61111 17.3889 2.65799 17.4165 2.70887 17.4342C2.75975 17.452 2.81363 17.4595 2.86742 17.4564C2.92121 17.4532 2.97386 17.4395 3.02235 17.416H3.02207Z" fill="#DDC856"/>
<path d="M6.91844 21.1065C9.38924 22.0789 12.1368 22.0789 14.6076 21.1065C14.6103 21.1054 14.6128 21.1039 14.6155 21.1028C14.6228 21.0997 14.63 21.0963 14.6371 21.0928C14.6432 21.0897 14.6491 21.0866 14.655 21.0832C14.6609 21.0799 14.6677 21.076 14.6738 21.0721C14.68 21.0681 14.687 21.0633 14.6934 21.0584C14.6984 21.0548 14.7035 21.0516 14.7083 21.0475C14.7163 21.0411 14.724 21.0343 14.7314 21.0274C14.7345 21.0246 14.7376 21.0221 14.7406 21.0192C14.7513 21.0087 14.7589 20.9862 14.7684 20.9862H14.7656C14.7656 20.9759 14.7848 20.9651 14.7922 20.954C14.7958 20.9486 14.8003 20.9429 14.8037 20.9373C14.8071 20.9317 14.8114 20.926 14.8146 20.9201C14.8185 20.9127 14.8223 20.9051 14.8258 20.8975C14.8278 20.8931 14.8302 20.8889 14.8321 20.8844C14.8354 20.8766 14.8382 20.8686 14.841 20.8606C14.8425 20.8561 14.8444 20.8516 14.8458 20.847C14.8481 20.8397 14.8498 20.8323 14.8516 20.8249C14.8531 20.8192 14.8546 20.8135 14.8558 20.8078C14.857 20.8021 14.8579 20.7954 14.8588 20.7892C14.8597 20.783 14.8611 20.7749 14.8619 20.7677C14.8624 20.7628 14.8625 20.758 14.8628 20.7531C14.8635 20.7446 14.8639 20.736 14.864 20.7274C14.864 20.7236 14.864 20.7198 14.864 20.7159C14.864 20.7065 14.8635 20.6971 14.8626 20.6876C14.8622 20.6839 14.8615 20.6802 14.8611 20.6765C14.8599 20.6672 14.8587 20.6579 14.857 20.6485C14.8559 20.6434 14.8545 20.6383 14.8533 20.6332C14.8515 20.6256 14.8499 20.6178 14.8477 20.6102C14.8445 20.5996 14.8408 20.5893 14.8368 20.5789C14.836 20.5768 14.8355 20.5747 14.8346 20.5726C14.8294 20.5597 14.8236 20.5472 14.8171 20.5349C14.8163 20.5334 14.8154 20.532 14.8145 20.5305C14.809 20.5203 14.8031 20.51 14.7966 20.5003C14.7913 20.4923 14.7855 20.4847 14.7797 20.4772C14.7774 20.4742 14.7753 20.471 14.7729 20.468C14.7554 20.4465 14.7358 20.4268 14.7144 20.4092C14.5122 20.2443 14.3283 20.0583 14.1658 19.8543C13.755 19.3657 13.5316 18.7467 13.5357 18.1083C13.5397 17.47 13.7709 16.8539 14.1879 16.3705C14.2552 16.2858 14.2864 16.1779 14.2746 16.0703C14.2628 15.9628 14.209 15.8642 14.1248 15.7961C14.0407 15.7281 13.9331 15.6961 13.8254 15.707C13.7177 15.718 13.6188 15.771 13.5501 15.8546C13.1845 16.2988 12.927 16.8218 12.7977 17.3823C11.4056 16.9243 10.1974 16.1444 9.36236 15.1554C8.93253 14.654 8.59901 14.0776 8.3786 13.4551C8.16018 12.8304 8.07836 12.166 8.13865 11.5069C8.14353 11.4532 8.1378 11.3992 8.12178 11.3477C8.10576 11.2963 8.07976 11.2485 8.04528 11.2072C7.97565 11.1236 7.87566 11.0711 7.76733 11.0613C7.71368 11.0564 7.6596 11.0621 7.60818 11.0781C7.55675 11.0942 7.50898 11.1201 7.4676 11.1546C7.38403 11.2243 7.33154 11.3242 7.32169 11.4326C7.25072 12.2076 7.34683 12.9889 7.60354 13.7236C7.85693 14.4413 8.24068 15.106 8.7355 15.6843C9.70313 16.8302 11.1083 17.7224 12.7174 18.2183C12.745 19.0018 13.0277 19.7549 13.5225 20.363C13.5772 20.4318 13.6345 20.4989 13.6939 20.5651C11.6141 21.2331 9.24211 21.1603 7.22612 20.346C7.12526 20.3052 7.01234 20.3062 6.91221 20.3487C6.81208 20.3913 6.73294 20.4718 6.6922 20.5727C6.65146 20.6735 6.65246 20.7865 6.69498 20.8866C6.7375 20.9867 6.81805 21.0659 6.91892 21.1066L6.91844 21.1065Z" fill="#DDC856"/>
<path d="M27.6856 24.5999C27.6856 22.0603 25.8883 19.7305 23.0654 18.5848C23.0879 18.4328 23.1 18.2794 23.1015 18.1257C23.0993 17.5241 22.9412 16.9333 22.6426 16.411C24.3347 16.0614 26.0895 16.1697 27.7258 16.7247C27.7767 16.7423 27.8306 16.7497 27.8844 16.7465C27.9382 16.7433 27.9908 16.7296 28.0393 16.706C28.0877 16.6825 28.1311 16.6496 28.1669 16.6093C28.2026 16.569 28.2301 16.5221 28.2478 16.4711C28.2654 16.4202 28.2728 16.3663 28.2696 16.3125C28.2664 16.2587 28.2526 16.2061 28.2291 16.1576C28.2055 16.1092 28.1727 16.0658 28.1324 16.03C28.0921 15.9943 28.0451 15.9668 27.9942 15.9491C26.1017 15.3071 24.0656 15.2163 22.1235 15.6874C21.4433 14.9292 20.45 14.3549 19.2702 14.0997C19.262 14.0979 19.2538 14.0965 19.2457 14.0948C19.8894 13.2558 20.7881 12.5522 21.879 12.0407C23.2376 11.4037 24.7961 11.1138 26.3869 11.2033C26.4952 11.2088 26.6012 11.1712 26.6819 11.0988C26.7625 11.0263 26.8112 10.9249 26.8172 10.8166C26.8233 10.7084 26.7863 10.6022 26.7143 10.5212C26.6422 10.4401 26.5411 10.3909 26.4329 10.3843C24.707 10.2874 23.0121 10.6034 21.5308 11.298C20.1636 11.9391 19.0611 12.8595 18.3269 13.9696C18.1885 13.9608 18.0496 13.9559 17.9099 13.9559C17.8011 13.9559 17.6968 13.9991 17.6199 14.0761C17.543 14.153 17.4997 14.2573 17.4997 14.3661C17.4997 14.4749 17.543 14.5792 17.6199 14.6561C17.6968 14.733 17.8011 14.7762 17.9099 14.7762C18.3087 14.7758 18.7065 14.8178 19.0964 14.9015C20.974 15.3076 22.2852 16.6335 22.2852 18.1257C22.2852 19.2619 21.5418 20.2671 20.4086 20.8731C20.4068 20.874 20.405 20.8747 20.4032 20.8757C20.4015 20.8766 20.4006 20.8774 20.3991 20.8782C19.6305 21.2769 18.7761 21.4819 17.9102 21.4753C17.7324 21.4753 17.5562 21.4672 17.3815 21.4509C17.379 21.4509 17.3766 21.4506 17.3742 21.4503C17.0803 21.4229 16.7891 21.3719 16.5035 21.2976C16.4511 21.2832 16.3964 21.2794 16.3426 21.2864C16.2888 21.2933 16.2369 21.3109 16.1899 21.338C16.1429 21.3652 16.1017 21.4014 16.0688 21.4446C16.0359 21.4878 16.0119 21.537 15.9982 21.5895C15.9845 21.6421 15.9814 21.6968 15.989 21.7505C15.9966 21.8043 16.0147 21.856 16.0425 21.9026C16.0702 21.9493 16.1069 21.99 16.1505 22.0224C16.194 22.0547 16.2436 22.0782 16.2963 22.0912C16.4343 22.1272 16.574 22.1584 16.7152 22.1848C15.6436 24.0794 13.3354 25.4374 10.6654 25.7001C10.5605 25.7102 10.4636 25.7603 10.3947 25.84C10.3258 25.9197 10.2902 26.0229 10.2953 26.1281C10.3004 26.2334 10.3458 26.3326 10.4221 26.4053C10.4983 26.4779 10.5997 26.5185 10.705 26.5184C10.7186 26.5184 10.7321 26.5178 10.7456 26.5164C13.8145 26.2145 16.4634 24.567 17.5891 22.287C17.6958 22.2923 17.8028 22.2956 17.9104 22.2956C18.7724 22.2994 19.6256 22.1229 20.4154 21.7775C21.3975 23.9107 20.7291 26.2855 18.6493 27.9191L18.2766 28.2117C17.3398 28.9475 16.1712 29.4832 14.8965 29.76C14.8436 29.7712 14.7935 29.7927 14.749 29.8234C14.7045 29.854 14.6665 29.8932 14.6372 29.9385C14.6078 29.9839 14.5878 30.0347 14.5781 30.0878C14.5684 30.141 14.5693 30.1955 14.5808 30.2483C14.5923 30.3011 14.6141 30.3511 14.645 30.3955C14.6758 30.4398 14.7152 30.4777 14.7607 30.5068C14.8062 30.5359 14.857 30.5557 14.9102 30.5651C14.9634 30.5745 15.018 30.5733 15.0707 30.5616C16.4657 30.2583 17.7495 29.6688 18.7834 28.8568L19.156 28.5642C20.398 27.5887 21.221 26.3525 21.536 24.989C21.8167 23.7787 21.6767 22.5089 21.1391 21.3888C21.9382 20.8784 22.5388 20.1839 22.8549 19.3854C25.3096 20.4172 26.8656 22.4273 26.8656 24.5997V25.0137C26.8656 26.5069 26.1508 27.9347 24.8383 29.0341C24.7744 29.089 24.7288 29.1622 24.7077 29.2438C24.6866 29.3253 24.691 29.4114 24.7204 29.4904C24.7498 29.5694 24.8027 29.6375 24.872 29.6855C24.9413 29.7334 25.0236 29.759 25.1079 29.7587C25.2021 29.7588 25.2931 29.7248 25.3642 29.663C26.8652 28.4052 27.6856 26.754 27.6856 25.0139V24.5999Z" fill="#DDC856"/>
<path d="M32.3453 19.3671C32.1274 18.984 31.8713 18.6239 31.5809 18.2924C31.5455 18.2519 31.5024 18.2186 31.4541 18.1947C31.4059 18.1708 31.3534 18.1566 31.2997 18.1529C31.2459 18.1493 31.192 18.1562 31.1409 18.1734C31.0899 18.1906 31.0427 18.2177 31.0021 18.2531C30.9616 18.2885 30.9284 18.3316 30.9044 18.3799C30.8805 18.4281 30.8663 18.4806 30.8626 18.5344C30.859 18.5881 30.866 18.642 30.8832 18.6931C30.9003 18.7441 30.9274 18.7913 30.9628 18.8319C31.2168 19.1215 31.4408 19.4361 31.6313 19.7709C32.0026 20.4162 32.219 21.1389 32.2635 21.8821C32.2694 21.9867 32.315 22.085 32.3911 22.157C32.4672 22.229 32.5679 22.2691 32.6726 22.2692C32.6803 22.2692 32.6882 22.2692 32.6959 22.2686C32.8046 22.2625 32.9063 22.2135 32.9788 22.1324C33.0512 22.0513 33.0885 21.9447 33.0824 21.8361C33.0312 20.9671 32.7789 20.1219 32.3453 19.3671Z" fill="#DDC856"/>
<path d="M32.5375 23.3989C32.4865 23.3815 32.4326 23.3743 32.3788 23.3778C32.3251 23.3812 32.2725 23.3952 32.2242 23.419C32.1758 23.4427 32.1326 23.4758 32.0971 23.5162C32.0615 23.5567 32.0342 23.6037 32.0168 23.6547C31.6566 24.7112 30.9231 25.6709 29.8948 26.4301C29.8509 26.4618 29.8137 26.502 29.7853 26.5482C29.757 26.5945 29.7381 26.6459 29.7297 26.6995C29.7214 26.753 29.7238 26.8077 29.7367 26.8604C29.7496 26.9131 29.7729 26.9626 29.8051 27.0063C29.8373 27.0499 29.8779 27.0867 29.9244 27.1145C29.9709 27.1424 30.0225 27.1607 30.0762 27.1685C30.1298 27.1763 30.1845 27.1733 30.2371 27.1598C30.2896 27.1463 30.3389 27.1226 30.3822 27.0899C31.5451 26.2311 32.3788 25.1348 32.7933 23.9195C32.8284 23.8165 32.8211 23.7038 32.7732 23.6062C32.7252 23.5086 32.6404 23.434 32.5375 23.3989Z" fill="#DDC856"/>
<path d="M16.543 15.0496C16.845 15.0496 17.0898 14.8047 17.0898 14.5027C17.0898 14.2007 16.845 13.9558 16.543 13.9558C16.2409 13.9558 15.9961 14.2007 15.9961 14.5027C15.9961 14.8047 16.2409 15.0496 16.543 15.0496Z" fill="#DDC856"/>
<path d="M15.2441 21.9539C15.5462 21.9539 15.791 21.709 15.791 21.407C15.791 21.105 15.5462 20.8601 15.2441 20.8601C14.9421 20.8601 14.6973 21.105 14.6973 21.407C14.6973 21.709 14.9421 21.9539 15.2441 21.9539Z" fill="#DDC856"/>
<path d="M15.791 9.44411C16.093 9.44411 16.3379 9.19926 16.3379 8.89722C16.3379 8.59519 16.093 8.35034 15.791 8.35034C15.489 8.35034 15.2441 8.59519 15.2441 8.89722C15.2441 9.19926 15.489 9.44411 15.791 9.44411Z" fill="#DDC856"/>
<path d="M2.25586 15.3914C2.55789 15.3914 2.80273 15.1465 2.80273 14.8445C2.80273 14.5425 2.55789 14.2976 2.25586 14.2976C1.95383 14.2976 1.70898 14.5425 1.70898 14.8445C1.70898 15.1465 1.95383 15.3914 2.25586 15.3914Z" fill="#DDC856"/>
<path d="M5.94727 26.2605C6.2493 26.2605 6.49414 26.0157 6.49414 25.7136C6.49414 25.4116 6.2493 25.1667 5.94727 25.1667C5.64523 25.1667 5.40039 25.4116 5.40039 25.7136C5.40039 26.0157 5.64523 26.2605 5.94727 26.2605Z" fill="#DDC856"/>
<path d="M7.92969 10.7429C8.23172 10.7429 8.47656 10.4981 8.47656 10.196C8.47656 9.89401 8.23172 9.64917 7.92969 9.64917C7.62766 9.64917 7.38281 9.89401 7.38281 10.196C7.38281 10.4981 7.62766 10.7429 7.92969 10.7429Z" fill="#DDC856"/>
<path d="M9.50195 30.3621C9.80398 30.3621 10.0488 30.1172 10.0488 29.8152C10.0488 29.5132 9.80398 29.2683 9.50195 29.2683C9.19992 29.2683 8.95508 29.5132 8.95508 29.8152C8.95508 30.1172 9.19992 30.3621 9.50195 30.3621Z" fill="#DDC856"/>
<path d="M17.9102 32.0027C18.2122 32.0027 18.457 31.7578 18.457 31.4558C18.457 31.1538 18.2122 30.9089 17.9102 30.9089C17.6081 30.9089 17.3633 31.1538 17.3633 31.4558C17.3633 31.7578 17.6081 32.0027 17.9102 32.0027Z" fill="#DDC856"/>
<path d="M24.4755 29.9283C24.3768 29.8951 24.2872 29.8395 24.2136 29.7658C24.14 29.6922 24.0844 29.6025 24.0513 29.5038C24.0241 29.4221 23.9719 29.351 23.9021 29.3007C23.8323 29.2503 23.7484 29.2232 23.6623 29.2231C23.5762 29.2231 23.4923 29.2502 23.4224 29.3005C23.3526 29.3508 23.3003 29.4218 23.2731 29.5034C23.24 29.6021 23.1844 29.6918 23.1108 29.7655C23.0372 29.8392 22.9475 29.8948 22.8489 29.928C22.7672 29.9552 22.6962 30.0075 22.6458 30.0773C22.5955 30.1471 22.5684 30.231 22.5684 30.3171C22.5684 30.4032 22.5955 30.4871 22.6458 30.5569C22.6962 30.6267 22.7672 30.679 22.8489 30.7062C22.9475 30.7394 23.0372 30.795 23.1108 30.8687C23.1844 30.9424 23.24 31.0321 23.2731 31.1308C23.3003 31.2125 23.3525 31.2835 23.4224 31.3339C23.4922 31.3842 23.5761 31.4113 23.6622 31.4113C23.7483 31.4113 23.8322 31.3842 23.9021 31.3339C23.9719 31.2835 24.0242 31.2125 24.0514 31.1308C24.0845 31.0321 24.14 30.9424 24.2136 30.8687C24.2872 30.7951 24.3769 30.7395 24.4756 30.7063C24.5573 30.679 24.6283 30.6268 24.6786 30.557C24.729 30.4871 24.756 30.4032 24.756 30.3172C24.756 30.2311 24.729 30.1472 24.6786 30.0774C24.6283 30.0075 24.5573 29.9553 24.4756 29.9281L24.4755 29.9283Z" fill="#DDC856"/>
<path d="M6.27786 8.51756C6.25067 8.43587 6.19846 8.36481 6.12864 8.31445C6.05882 8.26408 5.97492 8.23697 5.88882 8.23694C5.80275 8.23691 5.71885 8.26397 5.64901 8.31427C5.57916 8.36457 5.52691 8.43557 5.49965 8.51721C5.46652 8.61593 5.41098 8.70564 5.33737 8.7793C5.26377 8.85297 5.17411 8.90858 5.07542 8.9418C4.99375 8.96902 4.92273 9.02125 4.8724 9.09108C4.82207 9.16092 4.79498 9.24482 4.79498 9.3309C4.79498 9.41698 4.82207 9.50088 4.8724 9.57072C4.92273 9.64055 4.99375 9.69278 5.07542 9.72C5.17411 9.75322 5.26377 9.80883 5.33737 9.8825C5.41098 9.95616 5.46652 10.0459 5.49965 10.1446C5.52686 10.2263 5.57909 10.2973 5.64893 10.3477C5.71877 10.398 5.80269 10.4251 5.88879 10.4251C5.97489 10.4251 6.05881 10.398 6.12865 10.3477C6.19849 10.2973 6.25072 10.2263 6.27793 10.1446C6.31105 10.0459 6.36659 9.95616 6.44019 9.88251C6.5138 9.80886 6.60347 9.75326 6.70216 9.72007C6.78383 9.69285 6.85485 9.64062 6.90518 9.57078C6.95551 9.50095 6.9826 9.41705 6.9826 9.33097C6.9826 9.24489 6.95551 9.16099 6.90518 9.09115C6.85485 9.02132 6.78383 8.96909 6.70216 8.94186C6.60348 8.90871 6.51381 8.85314 6.44019 8.77953C6.36658 8.70591 6.31101 8.61624 6.27786 8.51756Z" fill="#DDC856"/>
<path d="M17.2626 15.7915C16.5311 15.9251 15.8969 16.2781 15.4772 16.7853C15.4079 16.8691 15.3746 16.977 15.3849 17.0853C15.3951 17.1936 15.4479 17.2934 15.5318 17.3628C15.6156 17.4321 15.7235 17.4653 15.8318 17.4551C15.9401 17.4449 16.0399 17.392 16.1093 17.3082C16.4018 16.9547 16.8758 16.696 17.41 16.5985C17.517 16.5789 17.6119 16.5176 17.6737 16.4281C17.7356 16.3386 17.7593 16.2282 17.7398 16.1212C17.7202 16.0142 17.659 15.9194 17.5695 15.8575C17.48 15.7957 17.3696 15.7719 17.2626 15.7915Z" fill="#DDC856"/>
<path d="M18.3203 20.1082C18.3203 19.9994 18.2771 19.895 18.2002 19.8181C18.1233 19.7412 18.0189 19.698 17.9102 19.698C17.2229 19.698 16.5749 19.4445 16.1768 19.0199C15.9397 18.7819 15.8037 18.4616 15.7972 18.1257C15.7972 18.017 15.754 17.9126 15.6771 17.8357C15.6002 17.7588 15.4959 17.7156 15.3871 17.7156C15.2783 17.7156 15.174 17.7588 15.0971 17.8357C15.0201 17.9126 14.9769 18.017 14.9769 18.1257C14.9819 18.6703 15.1974 19.1919 15.5785 19.581C16.1371 20.1767 16.9867 20.5183 17.9103 20.5183C18.0191 20.5183 18.1233 20.475 18.2002 20.3981C18.2771 20.3212 18.3203 20.2169 18.3203 20.1082Z" fill="#DDC856"/>
<path d="M19.2731 19.3235C19.2276 19.3523 19.1882 19.3898 19.1572 19.4338C19.1262 19.4779 19.1042 19.5276 19.0924 19.5802C19.0806 19.6327 19.0793 19.6871 19.0885 19.7401C19.0977 19.7932 19.1173 19.8439 19.1461 19.8894C19.1749 19.9349 19.2124 19.9743 19.2565 20.0053C19.3005 20.0363 19.3502 20.0584 19.4028 20.0702C19.4554 20.0819 19.5097 20.0833 19.5628 20.074C19.6158 20.0648 19.6666 20.0452 19.7121 20.0164C20.431 19.5609 20.8433 18.8719 20.8433 18.1258C20.8433 17.1475 20.1282 16.2778 19.0215 15.91C18.9702 15.8922 18.9159 15.8848 18.8616 15.8881C18.8074 15.8915 18.7544 15.9056 18.7057 15.9296C18.657 15.9536 18.6135 15.9871 18.5778 16.028C18.5422 16.069 18.515 16.1166 18.4978 16.1682C18.4807 16.2197 18.474 16.2742 18.4781 16.3283C18.4822 16.3825 18.497 16.4353 18.5216 16.4837C18.5463 16.5321 18.5803 16.5751 18.6217 16.6103C18.6632 16.6454 18.7112 16.672 18.7629 16.6884C19.5285 16.9428 20.023 17.5071 20.023 18.1258C20.023 18.585 19.7497 19.0215 19.2731 19.3235Z" fill="#DDC856"/>
<path d="M31.0678 29.9966C30.7713 29.8969 30.502 29.7299 30.2809 29.5087C30.0598 29.2874 29.893 29.018 29.7935 28.7215C29.7663 28.6398 29.7141 28.5687 29.6442 28.5184C29.5744 28.468 29.4905 28.4409 29.4044 28.4409C29.3183 28.4409 29.2343 28.468 29.1645 28.5184C29.0947 28.5687 29.0424 28.6398 29.0152 28.7215C28.9157 29.018 28.7489 29.2874 28.5278 29.5087C28.3067 29.7299 28.0374 29.8969 27.741 29.9967C27.6593 30.0239 27.5883 30.0762 27.538 30.146C27.4877 30.2158 27.4606 30.2997 27.4606 30.3858C27.4606 30.4719 27.4877 30.5558 27.538 30.6256C27.5883 30.6954 27.6593 30.7477 27.741 30.7749C28.0374 30.8746 28.3067 31.0417 28.5278 31.2629C28.7489 31.4842 28.9157 31.7536 29.0152 32.0501C29.0424 32.1318 29.0947 32.2029 29.1645 32.2532C29.2343 32.3036 29.3183 32.3307 29.4044 32.3307C29.4905 32.3307 29.5744 32.3036 29.6442 32.2532C29.7141 32.2029 29.7663 32.1318 29.7935 32.0501C29.893 31.7536 30.0598 31.4842 30.2809 31.2629C30.502 31.0417 30.7713 30.8747 31.0678 30.775C31.1494 30.7477 31.2205 30.6955 31.2708 30.6257C31.3211 30.5558 31.3482 30.4719 31.3482 30.3859C31.3482 30.2998 31.3211 30.2159 31.2708 30.1461C31.2205 30.0762 31.1494 30.024 31.0678 29.9968V29.9966ZM29.4044 31.0319C29.2251 30.7834 29.0072 30.5652 28.7588 30.3857C29.0073 30.2062 29.2254 29.9881 29.4047 29.7395C29.584 29.9881 29.8021 30.2063 30.0506 30.3857C29.802 30.5652 29.5838 30.7833 29.4044 31.0319Z" fill="#DDC856"/>
<path d="M3.06327 5.00335C3.3597 5.1031 3.62901 5.27015 3.85008 5.49139C4.07115 5.71264 4.23798 5.98208 4.33749 6.2786C4.3647 6.36029 4.41692 6.43134 4.48676 6.48169C4.55661 6.53204 4.64052 6.55913 4.72662 6.55913C4.81272 6.55913 4.89664 6.53204 4.96648 6.48169C5.03632 6.43134 5.08855 6.36029 5.11576 6.2786C5.21525 5.98206 5.38208 5.71261 5.60317 5.49135C5.82425 5.2701 6.09358 5.10307 6.39004 5.00335C6.4717 4.97613 6.54273 4.9239 6.59306 4.85406C6.64339 4.78423 6.67047 4.70033 6.67047 4.61425C6.67047 4.52817 6.64339 4.44427 6.59306 4.37444C6.54273 4.3046 6.4717 4.25237 6.39004 4.22515C6.09359 4.12544 5.82426 3.95842 5.60318 3.73718C5.38209 3.51594 5.21526 3.24649 5.11576 2.94997C5.08855 2.86828 5.03632 2.79723 4.96648 2.74688C4.89664 2.69653 4.81272 2.66943 4.72662 2.66943C4.64052 2.66943 4.55661 2.69653 4.48676 2.74688C4.41692 2.79723 4.3647 2.86828 4.33749 2.94997C4.23798 3.24648 4.07115 3.51592 3.85008 3.73717C3.62901 3.95842 3.3597 4.12547 3.06327 4.22522C2.98161 4.25244 2.91058 4.30467 2.86025 4.3745C2.80992 4.44434 2.78284 4.52824 2.78284 4.61432C2.78284 4.7004 2.80992 4.7843 2.86025 4.85413C2.91058 4.92397 2.98161 4.97619 3.06327 5.00342V5.00335ZM4.72666 3.96805C4.90597 4.21662 5.12403 4.4348 5.37251 4.61425C5.12403 4.7937 4.90597 5.01188 4.72666 5.26045C4.54738 5.01193 4.32942 4.79376 4.08107 4.61425C4.32942 4.43474 4.54738 4.21657 4.72666 3.96805Z" fill="#DDC856"/>
<path d="M29.668 18.6042C29.9519 18.6042 30.2295 18.5201 30.4655 18.3623C30.7016 18.2046 30.8856 17.9804 30.9943 17.7181C31.1029 17.4557 31.1313 17.1671 31.076 16.8886C31.0206 16.6102 30.8838 16.3544 30.6831 16.1536C30.4823 15.9529 30.2265 15.8161 29.948 15.7607C29.6696 15.7053 29.3809 15.7338 29.1186 15.8424C28.8563 15.9511 28.6321 16.1351 28.4744 16.3712C28.3166 16.6072 28.2324 16.8848 28.2324 17.1687C28.2329 17.5493 28.3842 17.9142 28.6534 18.1833C28.9225 18.4524 29.2874 18.6038 29.668 18.6042ZM29.668 16.5535C29.7897 16.5535 29.9086 16.5896 30.0098 16.6572C30.111 16.7248 30.1898 16.8208 30.2364 16.9333C30.283 17.0457 30.2951 17.1694 30.2714 17.2887C30.2477 17.4081 30.1891 17.5177 30.103 17.6037C30.017 17.6898 29.9073 17.7484 29.788 17.7721C29.6687 17.7959 29.545 17.7837 29.4325 17.7371C29.3201 17.6905 29.224 17.6117 29.1564 17.5105C29.0888 17.4093 29.0527 17.2904 29.0527 17.1687C29.0529 17.0056 29.1178 16.8492 29.2331 16.7339C29.3485 16.6185 29.5049 16.5536 29.668 16.5535Z" fill="#DDC856"/>
<path d="M4.58008 17.2371C4.20151 17.2371 3.83145 17.3493 3.51668 17.5596C3.20192 17.77 2.95659 18.0689 2.81172 18.4186C2.66684 18.7684 2.62894 19.1532 2.70279 19.5245C2.77665 19.8958 2.95895 20.2369 3.22663 20.5046C3.49432 20.7722 3.83537 20.9545 4.20666 21.0284C4.57795 21.1022 4.96281 21.0643 5.31255 20.9195C5.6623 20.7746 5.96124 20.5293 6.17156 20.2145C6.38188 19.8997 6.49413 19.5297 6.49413 19.1511C6.49356 18.6437 6.29171 18.1571 5.93288 17.7983C5.57405 17.4395 5.08754 17.2376 4.58008 17.2371ZM4.58008 20.2449C4.36375 20.2449 4.15229 20.1807 3.97242 20.0605C3.79256 19.9404 3.65237 19.7695 3.56958 19.5697C3.4868 19.3698 3.46514 19.1499 3.50734 18.9377C3.54955 18.7256 3.65372 18.5307 3.80668 18.3777C3.95964 18.2248 4.15453 18.1206 4.3667 18.0784C4.57886 18.0362 4.79878 18.0578 4.99863 18.1406C5.19849 18.2234 5.36931 18.3636 5.48949 18.5435C5.60968 18.7233 5.67382 18.9348 5.67382 19.1511C5.6735 19.4411 5.55816 19.7191 5.35311 19.9242C5.14807 20.1292 4.87006 20.2445 4.58008 20.2449Z" fill="#DDC856"/>
<path d="M20.7475 5.33042C20.7194 5.38887 20.6931 5.44854 20.6698 5.50986C20.52 5.89968 20.4815 6.3235 20.5589 6.73391C20.6362 7.14431 20.8262 7.5251 21.1077 7.83365C21.3891 8.1422 21.7508 8.36634 22.1524 8.48099C22.554 8.59564 22.9796 8.59627 23.3815 8.48281C23.78 8.78605 24.1933 9.01054 24.5452 9.01054C24.6884 9.0132 24.8285 8.96924 24.9445 8.8853C25.3912 8.55889 25.1688 7.81056 24.8597 7.17742C24.8687 7.15582 24.8787 7.13504 24.8871 7.11302C25.0279 6.74208 25.0685 6.34055 25.0047 5.94893C24.9409 5.5573 24.7749 5.18943 24.5236 4.8824C24.2722 4.57538 23.9443 4.34006 23.573 4.20018C23.2017 4.06029 22.8001 4.0208 22.4086 4.08567C21.5814 3.38362 20.9671 3.18633 20.5825 3.49983C20.4588 3.60059 20.0825 3.90732 20.6011 5.03579C20.6449 5.13115 20.6941 5.22952 20.7475 5.33042ZM22.2683 7.65334C21.9927 7.54883 21.756 7.3618 21.5905 7.11779C21.4251 6.87378 21.339 6.58467 21.344 6.28991C21.4974 6.50722 21.6641 6.72693 21.8415 6.94452C21.954 7.08267 22.2124 7.39036 22.5414 7.72703C22.4481 7.71151 22.3567 7.68683 22.2683 7.65334ZM24.3478 8.1311C24.306 8.11059 24.2589 8.08523 24.2079 8.05467C24.2391 8.02917 24.27 8.0034 24.2998 7.9762C24.3187 8.0315 24.335 8.084 24.3478 8.1311ZM22.1903 5.00189C22.5232 4.85162 22.9009 4.83404 23.2464 4.95273C23.5919 5.07143 23.879 5.31745 24.0493 5.64061C24.2196 5.96378 24.2602 6.33973 24.1628 6.69179C24.0654 7.04384 23.8373 7.34547 23.5251 7.53514C23.1471 7.19371 22.7968 6.82291 22.4773 6.42622C22.1981 6.08631 21.9412 5.72869 21.7082 5.35558C21.8422 5.20505 22.0065 5.08452 22.1903 5.00189ZM21.5247 4.43614C21.4485 4.48678 21.3754 4.54203 21.306 4.60157C21.2515 4.4807 21.2074 4.35542 21.1741 4.2271C21.2969 4.2863 21.4142 4.35625 21.5247 4.43614Z" fill="#DDC856"/>
</svg>
