<svg width="26" height="23" viewBox="0 0 26 23" fill="none" xmlns="http://www.w3.org/2000/svg">
<path d="M23.7884 3.28846C22.5228 2.01974 20.767 1.32104 18.8446 1.32104C16.1408 1.32104 14.429 2.74766 13.4691 3.94448C13.2201 4.25504 13.0082 4.56644 12.8303 4.85947C12.6525 4.56644 12.4407 4.25504 12.1916 3.94448C11.2317 2.74766 9.51991 1.32104 6.81612 1.32104C4.89367 1.32104 3.13787 2.01979 1.87218 3.28851C0.664922 4.49879 0 6.11969 0 7.85262C0 9.73897 0.833621 11.4935 2.62345 13.374C4.22308 15.0548 6.52438 16.7873 9.18923 18.7934C10.1822 19.541 11.2091 20.3141 12.3023 21.1591L12.3352 21.1845C12.4769 21.2942 12.6536 21.3489 12.8303 21.3489C13.0071 21.3489 13.1838 21.2941 13.3255 21.1845L13.3583 21.1591C14.4516 20.3141 15.4784 19.541 16.4716 18.7933C19.1363 16.7873 21.4376 15.0548 23.0372 13.374C24.827 11.4934 25.6607 9.73897 25.6607 7.85262C25.6607 6.11969 24.9957 4.49879 23.7884 3.28846ZM15.4963 17.7824C14.6403 18.4268 13.7593 19.09 12.8303 19.8035C11.9014 19.0901 11.0204 18.4268 10.1642 17.7823C4.94895 13.8561 1.50355 11.2623 1.50355 7.85262C1.50355 6.44327 2.03506 5.13425 3.00019 4.16675C3.9764 3.18827 5.33156 2.64937 6.81612 2.64937C8.87744 2.64937 10.2099 3.77126 10.9647 4.71242C11.6418 5.55653 11.9951 6.40745 12.1155 6.73408C12.2163 7.0075 12.5049 7.19253 12.8303 7.19253C13.1558 7.19253 13.4443 7.0075 13.5451 6.73408C13.6656 6.40745 14.0189 5.55653 14.6959 4.71238C15.4507 3.77127 16.7832 2.64937 18.8446 2.64937C20.3291 2.64937 21.6843 3.18827 22.6604 4.16675C23.6256 5.13425 24.1571 6.44327 24.1571 7.85262C24.1571 11.2623 20.7117 13.8561 15.4963 17.7824Z" fill="#DDC856"/>
</svg>
