<svg width="15" height="15" viewBox="0 0 15 15" fill="none" xmlns="http://www.w3.org/2000/svg">
<path d="M6 9.96789H6.00074V9.96713L6 9.96789Z" fill="black"/>
<path d="M6.00073 5.25V9.96713L10.0859 7.60858L6.00073 5.25ZM6.87964 6.77233L8.32811 7.60858L6.87964 8.44486V6.77233Z" fill="black"/>
<path d="M14.1211 1.5V2.30183H12.9024V1.5H12.0235V3.40233H2.97653V1.5H2.09763V2.30183H0.878906V1.5H0V13.101H0.878906V11.965H2.09763V13.101H2.97653V11.1986H12.0235V13.101H12.9024V11.965H14.1211V13.101H15V1.5H14.1211ZM2.09763 11.0861H0.878906V9.76892H2.09763V11.0861ZM2.09763 8.89001H0.878906V7.57283H2.09763V8.89001ZM2.09763 6.69392H0.878906V5.37676H2.09763V6.69392ZM2.09763 4.49786H0.878906V3.1807H2.09763V4.49786ZM12.0235 10.3197H2.97653V4.28124H12.0235V10.3197ZM14.1211 11.0861H12.9024V9.76892H14.1211V11.0861ZM14.1211 8.89001H12.9024V7.57283H14.1211V8.89001ZM14.1211 6.69392H12.9024V5.37676H14.1211V6.69392ZM14.1211 4.49786H12.9024V3.1807H14.1211V4.49786Z" fill="black"/>
</svg>
