<svg width="35" height="35" viewBox="0 0 35 35" fill="none" xmlns="http://www.w3.org/2000/svg">
<path d="M26.5569 13.5576C27.026 13.8367 27.5782 13.9422 28.1172 13.8557C28.6562 13.7692 29.1477 13.4961 29.5059 13.0842C29.5415 13.0436 29.5687 12.9963 29.586 12.9451C29.6033 12.894 29.6103 12.8399 29.6066 12.786C29.6029 12.7322 29.5887 12.6795 29.5646 12.6312C29.5406 12.5828 29.5072 12.5397 29.4665 12.5043C29.4257 12.4688 29.3784 12.4418 29.3271 12.4247C29.2759 12.4077 29.2218 12.4009 29.1679 12.4047C29.1141 12.4086 29.0615 12.4231 29.0132 12.4474C28.965 12.4716 28.922 12.5051 28.8867 12.546C28.6545 12.8129 28.336 12.9897 27.9867 13.0457C27.6374 13.1017 27.2796 13.0332 26.9756 12.8522C26.9293 12.8247 26.878 12.8066 26.8247 12.7989C26.7714 12.7913 26.7171 12.7942 26.6649 12.8075C26.6127 12.8208 26.5637 12.8442 26.5205 12.8765C26.4774 12.9088 26.441 12.9492 26.4135 12.9955C26.3861 13.0419 26.3679 13.0931 26.3603 13.1464C26.3526 13.1998 26.3555 13.2541 26.3688 13.3063C26.3821 13.3585 26.4056 13.4075 26.4378 13.4506C26.4701 13.4938 26.5105 13.5301 26.5569 13.5576Z" fill="#EB844D"/>
<path d="M29.7562 15.6019C27.7514 16.4484 25.5421 16.6874 23.4027 16.2892C23.2957 16.2693 23.1853 16.2927 23.0955 16.3543C23.0058 16.4159 22.9443 16.5106 22.9244 16.6175C22.9045 16.7245 22.9279 16.835 22.9895 16.9247C23.0511 17.0144 23.1458 17.076 23.2527 17.0959C25.5497 17.5238 27.9217 17.2674 30.0741 16.3584C30.1238 16.3375 30.1688 16.3071 30.2067 16.2688C30.2446 16.2305 30.2746 16.1851 30.2949 16.1352C30.3153 16.0854 30.3256 16.032 30.3253 15.9781C30.325 15.9242 30.3141 15.8709 30.2933 15.8213C30.2724 15.7716 30.2419 15.7266 30.2036 15.6887C30.1654 15.6508 30.12 15.6208 30.0701 15.6005C30.0202 15.5801 29.9668 15.5698 29.913 15.5701C29.8591 15.5704 29.8058 15.5812 29.7562 15.6021V15.6019Z" fill="#EB844D"/>
<path d="M13.9912 15.0101C13.9131 15.4297 13.945 15.8623 14.0837 16.2659C14.2225 16.6694 14.4635 17.0301 14.7831 17.3129C15.5579 18.0025 16.397 18.6162 17.289 19.1455C17.3825 19.2011 17.4943 19.2172 17.5997 19.1903C17.7051 19.1634 17.7956 19.0958 17.8511 19.0022C17.9066 18.9087 17.9227 18.7969 17.8958 18.6915C17.869 18.5861 17.8013 18.4957 17.7078 18.4401C16.861 17.9376 16.0644 17.3551 15.3289 16.7005C15.164 16.5522 15.0303 16.3727 14.9353 16.1723C14.8404 15.972 14.7862 15.7548 14.7758 15.5333C14.7654 15.3118 14.7991 15.0905 14.875 14.8821C14.9508 14.6738 15.0672 14.4826 15.2175 14.3195C15.3677 14.1565 15.5489 14.025 15.7504 13.9325C15.9519 13.84 16.1697 13.7884 16.3913 13.7808C16.6129 13.7731 16.8338 13.8095 17.0412 13.8879C17.2486 13.9662 17.4384 14.085 17.5996 14.2372C18.2804 14.873 18.8668 15.3387 19.3427 15.6211C19.939 15.9751 20.5646 16.277 21.2128 16.5234C21.2632 16.5428 21.317 16.5521 21.371 16.5507C21.425 16.5493 21.4782 16.5372 21.5276 16.5151C21.5769 16.4931 21.6214 16.4615 21.6585 16.4222C21.6956 16.383 21.7245 16.3367 21.7437 16.2862C21.7629 16.2357 21.7719 16.1819 21.7702 16.1279C21.7685 16.0739 21.7562 16.0207 21.7339 15.9715C21.7116 15.9223 21.6798 15.878 21.6403 15.8411C21.6009 15.8042 21.5545 15.7754 21.5039 15.7565C20.9 15.5269 20.317 15.2456 19.7615 14.9157C19.3364 14.6633 18.7976 14.2333 18.1597 13.6374C17.8153 13.317 17.3881 13.0995 16.9265 13.0094C16.4648 12.9194 15.9872 12.9605 15.5477 13.128C15.1478 13.2806 14.7942 13.5341 14.5214 13.864C14.2487 14.1938 14.066 14.5887 13.9912 15.0101Z" fill="#EB844D"/>
<path d="M26.2029 20.566C23.9508 20.6757 21.7028 20.279 19.6242 19.405C19.5239 19.363 19.411 19.3626 19.3103 19.4038C19.2096 19.4451 19.1295 19.5246 19.0875 19.625C19.0455 19.7253 19.045 19.8382 19.0863 19.9389C19.1276 20.0396 19.2071 20.1197 19.3075 20.1617C21.2599 20.9828 23.3569 21.405 25.475 21.4033C25.7297 21.4033 25.9851 21.3973 26.2413 21.3853C26.35 21.3802 26.4522 21.3322 26.5254 21.2518C26.5986 21.1713 26.6369 21.0651 26.6318 20.9564C26.6268 20.8478 26.5787 20.7456 26.4983 20.6724C26.4178 20.5991 26.3116 20.5608 26.2029 20.5659V20.566Z" fill="#EB844D"/>
<path d="M11.964 12.0895C11.7571 11.9667 11.5764 11.8043 11.4323 11.6116C11.2881 11.419 11.1834 11.1998 11.1239 10.9667C11.0645 10.7336 11.0516 10.491 11.0859 10.2528C11.1202 10.0147 11.2011 9.78566 11.3239 9.57878C11.3774 9.48534 11.392 9.37462 11.3646 9.27051C11.3372 9.1664 11.2699 9.07724 11.1773 9.02229C11.0847 8.96734 10.9743 8.951 10.8697 8.97679C10.7652 9.00258 10.675 9.06844 10.6186 9.16015C10.2595 9.76501 10.1554 10.4878 10.3292 11.1694C10.5029 11.851 10.9404 12.4357 11.5452 12.7948C11.5915 12.8229 11.643 12.8415 11.6965 12.8496C11.7501 12.8576 11.8047 12.855 11.8573 12.8419C11.9098 12.8287 11.9592 12.8053 12.0027 12.7729C12.0461 12.7406 12.0827 12.7 12.1104 12.6534C12.138 12.6068 12.1562 12.5552 12.1638 12.5016C12.1714 12.448 12.1683 12.3934 12.1547 12.3409C12.1411 12.2885 12.1172 12.2393 12.0845 12.1961C12.0517 12.153 12.0108 12.1167 11.964 12.0895Z" fill="#EB844D"/>
<path d="M13.8348 8.93873C14.0875 9.08907 14.3003 9.29797 14.4553 9.54781C14.6104 9.79766 14.703 10.0811 14.7255 10.3743C14.748 10.6675 14.6997 10.9617 14.5846 11.2323C14.4696 11.5029 14.2911 11.7418 14.0643 11.929C13.981 11.9983 13.9285 12.0978 13.9183 12.2058C13.9081 12.3137 13.9411 12.4213 14.01 12.505C14.0788 12.5887 14.1781 12.6417 14.286 12.6524C14.3938 12.6632 14.5016 12.6308 14.5856 12.5623C14.9143 12.2916 15.173 11.9458 15.3398 11.554C15.5066 11.1623 15.5767 10.7361 15.5442 10.3116C15.5116 9.88705 15.3773 9.47658 15.1527 9.11486C14.9281 8.75314 14.6197 8.45081 14.2535 8.2334C14.1601 8.17899 14.0489 8.16372 13.9442 8.19089C13.8395 8.21807 13.7498 8.2855 13.6946 8.3785C13.6393 8.4715 13.6231 8.58255 13.6494 8.68747C13.6756 8.7924 13.7423 8.8827 13.8348 8.93873Z" fill="#EB844D"/>
<path d="M6.39064 18.3348C6.48627 18.3488 6.5828 18.3559 6.67946 18.3559C6.97393 18.3564 7.26443 18.288 7.52772 18.1561C7.79102 18.0243 8.01981 17.8326 8.19581 17.5965C8.41247 17.3101 8.54437 16.9686 8.5765 16.6108C8.60862 16.2531 8.53967 15.8936 8.37751 15.5731C8.16915 15.167 7.97419 14.7475 7.79761 14.3261C7.75391 14.2283 7.67373 14.1516 7.57419 14.1122C7.47465 14.0727 7.36365 14.0738 7.26489 14.1151C7.16612 14.1564 7.08743 14.2347 7.04561 14.3333C7.00379 14.4319 7.00217 14.5429 7.04108 14.6426C7.22565 15.0836 7.42977 15.5226 7.64784 15.9474C7.74 16.1303 7.77896 16.3354 7.76028 16.5393C7.74161 16.7433 7.66606 16.9379 7.54222 17.101C7.42377 17.2573 7.26551 17.379 7.08397 17.4533C6.90244 17.5275 6.70429 17.5517 6.51023 17.5232C6.31617 17.4947 6.13331 17.4147 5.98076 17.2914C5.82821 17.1681 5.71156 17.0061 5.64299 16.8224C4.94518 14.9523 4.42716 13.2697 4.10313 11.8213C4.09178 11.7683 4.07004 11.7181 4.03918 11.6736C4.00832 11.629 3.96895 11.5911 3.92333 11.5619C3.87772 11.5326 3.82677 11.5127 3.77343 11.5033C3.72008 11.4939 3.6654 11.4951 3.61253 11.507C3.55967 11.5188 3.50967 11.541 3.46543 11.5722C3.42118 11.6035 3.38357 11.6432 3.35476 11.6891C3.32595 11.7349 3.30651 11.7861 3.29756 11.8395C3.28862 11.8929 3.29034 11.9476 3.30264 12.0004C3.6348 13.4853 4.16356 15.204 4.87423 17.1091C4.99181 17.4318 5.19511 17.7165 5.46227 17.9324C5.72944 18.1484 6.05039 18.2875 6.39064 18.3348Z" fill="#EB844D"/>
<path d="M24.2856 25.4511H24.2944C24.4032 25.4522 24.5079 25.4101 24.5856 25.334C24.6634 25.2579 24.7076 25.154 24.7088 25.0452C24.7099 24.9364 24.6678 24.8317 24.5916 24.7539C24.5155 24.6762 24.4116 24.6319 24.3029 24.6308C23.8463 24.6212 23.3754 24.5992 22.9032 24.5653C22.7947 24.5575 22.6875 24.5932 22.6053 24.6644C22.5231 24.7356 22.4725 24.8366 22.4647 24.9451C22.457 25.0536 22.4926 25.1608 22.5638 25.243C22.6351 25.3252 22.736 25.3758 22.8445 25.3836C23.3304 25.4186 23.8153 25.4412 24.2856 25.4511Z" fill="#EB844D"/>
<path d="M20.8746 24.7678C20.8908 24.6602 20.8635 24.5507 20.7988 24.4632C20.7342 24.3757 20.6374 24.3175 20.5298 24.3014C18.4343 23.9869 16.9318 23.5477 16.6935 23.4514C16.1266 23.224 15.4949 23.2184 14.9241 23.4356C14.3532 23.6528 13.8851 24.0769 13.6127 24.6236C13.4703 24.9129 13.3872 25.2277 13.3682 25.5496C13.3492 25.8715 13.3948 26.194 13.5022 26.498C13.6096 26.802 13.7767 27.0815 13.9936 27.3201C14.2106 27.5586 14.4731 27.7514 14.7656 27.8871C15.1742 28.0768 15.8612 28.2932 16.7002 28.4967C16.7525 28.5094 16.8068 28.5116 16.86 28.5033C16.9133 28.495 16.9643 28.4763 17.0103 28.4483C17.0563 28.4203 17.0963 28.3835 17.1281 28.34C17.1599 28.2965 17.1827 28.2471 17.1954 28.1948C17.2081 28.1424 17.2104 28.0881 17.2021 28.0349C17.1938 27.9817 17.1751 27.9306 17.1471 27.8846C17.119 27.8386 17.0822 27.7986 17.0387 27.7668C16.9952 27.7351 16.9459 27.7122 16.8935 27.6995C16.1168 27.5111 15.4671 27.3083 15.1109 27.143C14.9176 27.0533 14.7441 26.9259 14.6007 26.7682C14.4573 26.6106 14.3469 26.4258 14.2758 26.2249C14.2048 26.0239 14.1747 25.8108 14.1872 25.5981C14.1997 25.3853 14.2545 25.1772 14.3486 24.986C14.5289 24.6246 14.8386 24.3444 15.2161 24.2009C15.5936 24.0575 16.0113 24.0614 16.386 24.2119C16.6986 24.3382 18.2326 24.7865 20.4082 25.1126C20.4614 25.1206 20.5157 25.118 20.568 25.105C20.6203 25.092 20.6695 25.0689 20.7128 25.0368C20.7561 25.0048 20.7927 24.9646 20.8205 24.9184C20.8482 24.8723 20.8667 24.8211 20.8746 24.7678Z" fill="#EB844D"/>
<path d="M25.2524 28.5116C23.2708 28.585 21.2867 28.4709 19.3265 28.1708C19.2189 28.1545 19.1093 28.1816 19.0217 28.2461C18.9341 28.3106 18.8758 28.4073 18.8594 28.5149C18.8431 28.6224 18.8702 28.7321 18.9347 28.8196C18.9992 28.9072 19.0959 28.9656 19.2035 28.9819C20.8174 29.2268 22.4473 29.3521 24.0797 29.3569C24.4746 29.3569 24.8784 29.3489 25.2876 29.3311C25.3418 29.3294 25.3952 29.3169 25.4445 29.2944C25.4939 29.2719 25.5383 29.2398 25.5752 29.2C25.612 29.1602 25.6407 29.1135 25.6594 29.0626C25.6781 29.0117 25.6865 28.9576 25.6841 28.9034C25.6818 28.8492 25.6687 28.796 25.6457 28.7469C25.6226 28.6978 25.5901 28.6538 25.5499 28.6173C25.5097 28.5809 25.4627 28.5528 25.4116 28.5346C25.3605 28.5165 25.3063 28.5087 25.2521 28.5116H25.2524Z" fill="#EB844D"/>
<path d="M9.53333 19.5145C9.14315 19.6134 8.79312 19.8306 8.53122 20.1362C8.26932 20.4419 8.10837 20.8211 8.07044 21.2218C8.06543 21.2754 8.07104 21.3295 8.08694 21.381C8.10284 21.4325 8.12872 21.4803 8.1631 21.5218C8.19749 21.5632 8.23971 21.5975 8.28735 21.6226C8.33498 21.6478 8.38711 21.6633 8.44074 21.6683C8.45366 21.6695 8.46651 21.6701 8.4793 21.6701C8.5814 21.67 8.67979 21.6318 8.75523 21.563C8.83066 21.4941 8.87772 21.3997 8.8872 21.298C8.91204 21.0334 9.0296 20.786 9.21911 20.5996C9.40863 20.4132 9.65791 20.2998 9.92293 20.2793C10.188 20.2589 10.4517 20.3328 10.6675 20.4879C10.8834 20.643 11.0375 20.8694 11.1026 21.1271C11.1157 21.1794 11.139 21.2287 11.1711 21.272C11.2033 21.3153 11.2436 21.3519 11.2899 21.3796C11.3362 21.4073 11.3875 21.4256 11.4409 21.4335C11.4943 21.4413 11.5486 21.4386 11.601 21.4254C11.6533 21.4121 11.7024 21.3888 11.7457 21.3565C11.7889 21.3243 11.8254 21.2838 11.853 21.2375C11.8806 21.1911 11.8988 21.1398 11.9065 21.0864C11.9142 21.033 11.9113 20.9786 11.898 20.9263C11.7711 20.4259 11.4509 19.9961 11.0076 19.7315C10.5643 19.4668 10.0341 19.3888 9.53333 19.5145Z" fill="#EB844D"/>
<path d="M10.2861 22.4956C10.0788 22.5473 9.86111 22.5393 9.65815 22.4726C9.45518 22.4058 9.27522 22.2831 9.13905 22.1184C9.06972 22.0351 8.97021 21.9826 8.86228 21.9724C8.75435 21.9622 8.64678 21.9952 8.56307 22.0641C8.47937 22.133 8.42635 22.2322 8.4156 22.3401C8.40485 22.4479 8.43724 22.5557 8.5057 22.6397C8.68948 22.8618 8.92003 23.0406 9.18088 23.1633C9.44174 23.286 9.72646 23.3496 10.0147 23.3495C10.1741 23.3496 10.3328 23.3299 10.4873 23.2909C10.5917 23.2633 10.681 23.1956 10.7358 23.1026C10.7906 23.0095 10.8065 22.8986 10.7801 22.7939C10.7536 22.6892 10.687 22.5992 10.5946 22.5433C10.5022 22.4875 10.3914 22.4703 10.2865 22.4956H10.2861Z" fill="#EB844D"/>
<path d="M5.51375 22.6633C5.21359 22.6475 4.91526 22.7187 4.65451 22.8682C4.39375 23.0177 4.18164 23.2392 4.04358 23.5062C3.90552 23.7732 3.84738 24.0743 3.87612 24.3735C3.90486 24.6727 4.01927 24.9572 4.20562 25.1931C4.65228 25.7561 5.12478 26.3066 5.60993 26.8292C5.68395 26.9089 5.7866 26.956 5.8953 26.96C6.00401 26.964 6.10987 26.9247 6.18958 26.8507C6.2693 26.7767 6.31635 26.674 6.32038 26.5653C6.32441 26.4566 6.2851 26.3508 6.21108 26.271C5.74036 25.764 5.28187 25.2298 4.84834 24.6833C4.72724 24.5292 4.67201 24.3334 4.69467 24.1387C4.71734 23.9441 4.81607 23.7662 4.96934 23.644C5.1226 23.5219 5.31796 23.4653 5.5128 23.4865C5.70765 23.5078 5.88617 23.6053 6.00942 23.7577C6.07861 23.8397 6.17715 23.8913 6.28393 23.9015C6.39071 23.9116 6.49723 23.8796 6.58065 23.8122C6.66408 23.7447 6.71777 23.6473 6.73023 23.5408C6.74268 23.4342 6.71291 23.3271 6.64728 23.2422C6.50939 23.0718 6.33724 22.9321 6.14198 22.8324C5.94671 22.7327 5.73269 22.6751 5.51375 22.6633Z" fill="#EB844D"/>
<path d="M10.0658 26.7528C9.47221 26.2481 8.89191 25.7069 8.34107 25.1448C8.12997 24.9294 7.91922 24.7067 7.71462 24.483C7.6412 24.4027 7.53889 24.3549 7.4302 24.35C7.32151 24.3452 7.21535 24.3837 7.13507 24.4571C7.05479 24.5306 7.00697 24.6329 7.00212 24.7416C6.99728 24.8502 7.03581 24.9564 7.10923 25.0367C7.32019 25.2673 7.5375 25.4969 7.75516 25.719C8.32336 26.2991 8.92198 26.8572 9.53448 27.3779C9.6125 27.4447 9.67587 27.5268 9.72059 27.6192C9.76532 27.7116 9.79043 27.8123 9.79435 27.9149C9.79828 28.0175 9.78093 28.1198 9.74339 28.2154C9.70585 28.3109 9.64895 28.3977 9.57625 28.4702C9.44508 28.6028 9.26874 28.6811 9.08241 28.6894C8.89607 28.6977 8.71345 28.6355 8.57096 28.5152C8.24167 28.2395 7.91423 27.9508 7.59773 27.6573C7.51796 27.5833 7.41207 27.5441 7.30335 27.5482C7.19464 27.5523 7.09201 27.5994 7.01804 27.6792C6.94407 27.759 6.90482 27.8648 6.90892 27.9736C6.91302 28.0823 6.96015 28.1849 7.03992 28.2589C7.36654 28.5617 7.70444 28.8596 8.04425 29.1441C8.36134 29.4122 8.77193 29.5434 9.1857 29.5087C9.59947 29.474 9.98253 29.2764 10.2506 28.9594C10.5187 28.6423 10.6498 28.2317 10.6152 27.8179C10.5805 27.4041 10.3829 27.0211 10.0658 26.753V26.7528Z" fill="#EB844D"/>
<path d="M26.2582 2.74844C23.3407 1.01633 19.975 0.188267 16.5868 0.368954C13.1986 0.549641 9.94011 1.73096 7.22331 3.76354C4.5065 5.79612 2.45342 8.58867 1.32368 11.7881C0.193945 14.9875 0.0382894 18.45 0.876398 21.7379C1.81866 25.4267 3.95985 28.6978 6.96348 31.0374C9.96711 33.3769 13.6629 34.6521 17.4702 34.6627C18.9096 34.6617 20.3433 34.4807 21.7378 34.1239C25.0257 33.2857 27.9913 31.4914 30.2594 28.9678C32.5275 26.4443 33.9964 23.3048 34.4802 19.9464C34.9641 16.588 34.4412 13.1616 32.9777 10.1004C31.5142 7.03915 29.1758 4.48066 26.2582 2.74844ZM1.16057 17.6893C1.14512 16.568 1.24662 15.4482 1.4634 14.3479C1.93652 15.7853 2.74931 18.0017 3.69766 19.5217C3.76426 19.6277 3.80343 19.7486 3.81163 19.8734C3.81983 19.9983 3.7968 20.1233 3.74462 20.237C3.68628 20.364 3.59377 20.4722 3.47745 20.5496C3.36112 20.627 3.22556 20.6705 3.08592 20.6753C2.94628 20.6801 2.80807 20.6459 2.68673 20.5766C2.56539 20.5074 2.46571 20.4057 2.39883 20.283C1.56485 18.7472 1.20022 17.6981 1.19338 17.6781L1.16057 17.6893ZM33.8303 18.1139C32.282 19.1203 30.5638 19.8371 28.7593 20.2293C28.7067 20.2408 28.6568 20.2626 28.6126 20.2933C28.5684 20.3241 28.5307 20.3632 28.5016 20.4086C28.4725 20.4539 28.4526 20.5045 28.4431 20.5576C28.4336 20.6106 28.4346 20.6649 28.4461 20.7176C28.4576 20.7702 28.4794 20.82 28.5101 20.8643C28.5409 20.9085 28.58 20.9462 28.6254 20.9753C28.6707 21.0044 28.7213 21.0242 28.7744 21.0338C28.8274 21.0433 28.8817 21.0423 28.9344 21.0308C30.6366 20.6608 32.2673 20.0165 33.7627 19.1231C33.6399 20.3576 33.3754 21.5739 32.9741 22.7478C31.2957 23.7482 29.1979 24.3591 26.7329 24.5617C26.6274 24.5703 26.5293 24.6194 26.4592 24.6987C26.3891 24.7779 26.3523 24.8813 26.3566 24.987C26.3608 25.0928 26.4059 25.1928 26.4822 25.2662C26.5585 25.3395 26.6602 25.3805 26.7661 25.3806C26.7773 25.3806 26.7887 25.3801 26.8003 25.3792C28.9841 25.1998 30.9024 24.711 32.5215 23.9241C31.9404 25.2769 31.1813 26.5459 30.2642 27.6976C29.2441 28.01 28.1981 28.2305 27.1387 28.3566C27.0351 28.3693 26.9402 28.4211 26.8735 28.5014C26.8067 28.5817 26.7731 28.6845 26.7795 28.7887C26.7858 28.8929 26.8317 28.9908 26.9078 29.0623C26.9838 29.1339 27.0843 29.1738 27.1887 29.1738C27.2057 29.1738 27.2228 29.1727 27.2397 29.1707C27.9308 29.0858 28.617 28.965 29.2955 28.8088C27.9387 30.2303 26.3338 31.392 24.5596 32.2368C24.0758 32.168 22.1051 31.875 19.9616 31.381C19.856 31.3576 19.7454 31.3769 19.6539 31.4346C19.5625 31.4924 19.4975 31.5839 19.4732 31.6893C19.4489 31.7947 19.4673 31.9055 19.5242 31.9974C19.5812 32.0894 19.6722 32.1551 19.7774 32.1803C21.0344 32.47 22.2337 32.6917 23.1176 32.8408C22.6021 33.0285 22.0748 33.1913 21.5358 33.3292C21.2273 33.4078 20.9181 33.4772 20.6082 33.5373C18.1655 33.1014 15.7971 32.3206 13.574 31.2184C13.4924 31.1773 13.4217 31.1175 13.3677 31.0438C13.3137 30.9701 13.278 30.8847 13.2635 30.7945C13.249 30.7043 13.2561 30.6119 13.2843 30.525C13.3125 30.4381 13.3609 30.3592 13.4255 30.2946C13.6096 30.1105 13.8904 30.0606 14.0782 30.1784C14.8407 30.6569 15.9523 31.1183 17.382 31.5505C17.4862 31.5819 17.5986 31.5707 17.6944 31.5193C17.7903 31.4679 17.8619 31.3806 17.8933 31.2764C17.9248 31.1723 17.9136 31.0599 17.8622 30.964C17.8108 30.8681 17.7235 30.7966 17.6193 30.7651C16.2595 30.3542 15.2148 29.923 14.5142 29.4835C14.0022 29.1622 13.3005 29.2595 12.8455 29.7144C12.6889 29.8708 12.5718 30.0622 12.5037 30.2728C12.4356 30.4834 12.4185 30.7072 12.4538 30.9257C12.4891 31.1442 12.5758 31.3512 12.7068 31.5296C12.8378 31.708 13.0093 31.8528 13.2072 31.9519C14.8297 32.7566 16.5347 33.3833 18.2921 33.8209C18.0187 33.8346 17.7454 33.8416 17.4723 33.842C13.847 33.8322 10.3276 32.6181 7.4674 30.3904C4.60717 28.1627 2.5682 25.0478 1.67094 21.5352C1.54885 21.0563 1.44904 20.5755 1.37153 20.0929C1.46595 20.2777 1.56808 20.4715 1.67791 20.6743C1.81211 20.9234 2.01138 21.1313 2.25448 21.276C2.49758 21.4207 2.7754 21.4967 3.05829 21.4959C3.07613 21.4959 3.09418 21.4959 3.11223 21.495C3.38865 21.4859 3.65778 21.404 3.89249 21.2577C4.12721 21.1114 4.31921 20.9059 4.44915 20.6617C4.57909 20.4176 4.64238 20.1435 4.63263 19.8671C4.62288 19.5907 4.54044 19.3218 4.39363 19.0874C3.10847 17.0276 2.03885 13.4759 1.84519 12.8124C2.13351 11.8579 2.50842 10.9317 2.96526 10.0453C2.98091 10.1853 2.99848 10.3275 3.01919 10.4733C3.03301 10.5711 3.08164 10.6606 3.15615 10.7254C3.23065 10.7902 3.32603 10.8259 3.42477 10.8261C3.44423 10.826 3.46367 10.8247 3.48294 10.822C3.5363 10.8144 3.58764 10.7964 3.63404 10.769C3.68044 10.7416 3.72098 10.7054 3.75336 10.6623C3.78574 10.6192 3.80931 10.5702 3.82273 10.518C3.83615 10.4658 3.83916 10.4115 3.83157 10.3581C3.75079 9.82148 3.71194 9.27935 3.71536 8.73665C4.27732 7.8498 4.92299 7.01885 5.64351 6.25521C5.57857 7.22702 5.59048 8.20244 5.67912 9.17238C5.72739 9.69738 5.79896 10.2268 5.89199 10.7461C5.97252 11.1955 6.07096 11.6477 6.18457 12.0902C6.21163 12.1956 6.27944 12.2859 6.37307 12.3413C6.46671 12.3966 6.57851 12.4125 6.68387 12.3855C6.78923 12.3584 6.87953 12.2906 6.9349 12.197C6.99027 12.1033 7.00617 11.9915 6.97911 11.8862C6.87049 11.4632 6.77643 11.031 6.69946 10.6014C6.61059 10.1051 6.54223 9.59908 6.49595 9.09746C6.38234 7.85619 6.40046 6.60638 6.55002 5.36893C7.46315 4.54283 8.46788 3.82402 9.54457 3.22654C9.4582 3.88956 9.41327 4.55731 9.41004 5.22592C9.40851 5.63614 9.50575 6.0407 9.69355 6.40541C9.88136 6.77012 10.1542 7.08426 10.489 7.32127C10.9158 7.62657 11.4272 7.79126 11.9519 7.79241C12.2482 7.7918 12.5422 7.74004 12.8209 7.63942C13.3023 7.46936 13.7211 7.15775 14.0223 6.74549C14.3235 6.33322 14.493 5.83954 14.5087 5.32921C14.5252 4.8306 14.5536 4.35386 14.593 3.91232C14.5978 3.85867 14.5919 3.8046 14.5758 3.7532C14.5597 3.7018 14.5337 3.65408 14.4991 3.61275C14.4293 3.5293 14.3293 3.47698 14.2209 3.4673C14.1672 3.46252 14.1132 3.46834 14.0618 3.48445C14.0104 3.50055 13.9627 3.52663 13.9213 3.56118C13.8379 3.63096 13.7856 3.73103 13.7759 3.83939C13.7349 4.29609 13.7059 4.78815 13.6888 5.30193C13.6744 5.75741 13.481 6.18884 13.1504 6.50248C12.8198 6.81613 12.3788 6.98667 11.9232 6.97705C11.4676 6.96744 11.0342 6.77844 10.7171 6.45112C10.4 6.12381 10.2249 5.68461 10.2298 5.22893C10.2337 4.40227 10.3049 3.5773 10.4425 2.76218C11.4118 2.30098 12.4238 1.93546 13.464 1.67082C13.6953 1.61185 13.927 1.55812 14.1592 1.50963C14.0959 1.73973 14.0387 1.98896 13.9875 2.25734C13.9774 2.31026 13.9779 2.36464 13.9888 2.41738C13.9998 2.47012 14.0211 2.52018 14.0514 2.56471C14.0817 2.60923 14.1205 2.64735 14.1655 2.67689C14.2106 2.70643 14.261 2.7268 14.3139 2.73685C14.3668 2.7469 14.4212 2.74643 14.4739 2.73546C14.5267 2.72449 14.5767 2.70325 14.6213 2.67293C14.6658 2.64262 14.7039 2.60383 14.7335 2.55879C14.763 2.51374 14.7834 2.46332 14.7934 2.4104C14.8588 2.04896 14.9508 1.69286 15.0688 1.34502C15.8825 1.22073 16.7045 1.15816 17.5277 1.15785C17.7601 1.15785 17.992 1.16302 18.2234 1.17337C18.1054 1.68687 18.0379 2.2107 18.0221 2.73736C18.0205 2.7912 18.0295 2.84483 18.0486 2.89519C18.0677 2.94555 18.0966 2.99165 18.1335 3.03086C18.1704 3.07007 18.2147 3.10163 18.2638 3.12372C18.313 3.14581 18.366 3.15801 18.4198 3.15962C18.424 3.15962 18.4281 3.15962 18.4323 3.15962C18.5389 3.15956 18.6413 3.11798 18.7178 3.0437C18.7943 2.96942 18.8389 2.86827 18.8421 2.7617C18.8578 2.24518 18.9288 1.73183 19.054 1.23045C20.0333 1.32342 21.002 1.50579 21.9481 1.77527C21.6918 2.4657 21.4993 3.57504 21.7724 4.67686C21.8549 4.99336 21.8172 5.32918 21.6666 5.61953C21.5161 5.90988 21.2633 6.13417 20.9571 6.24912C20.795 6.30832 20.6228 6.33494 20.4504 6.32745C20.278 6.31996 20.1088 6.27851 19.9524 6.20547C19.7961 6.13243 19.6557 6.02925 19.5393 5.90184C19.4229 5.77443 19.3329 5.62529 19.2742 5.46299C19.0926 4.96033 18.9666 4.43932 18.8983 3.90925C18.8923 3.85507 18.8756 3.80263 18.8492 3.75498C18.8227 3.70733 18.787 3.66542 18.7442 3.63172C18.7014 3.59801 18.6523 3.57318 18.5997 3.55867C18.5472 3.54417 18.4923 3.54027 18.4382 3.54722C18.3842 3.55417 18.3321 3.57183 18.2849 3.59915C18.2378 3.62648 18.1965 3.66292 18.1636 3.70637C18.1307 3.74981 18.1068 3.79938 18.0932 3.85217C18.0797 3.90496 18.0768 3.95992 18.0848 4.01384C18.1607 4.6033 18.3008 5.1827 18.5027 5.74169C18.5975 6.00596 18.7437 6.24885 18.9329 6.45633C19.122 6.66382 19.3504 6.83181 19.6048 6.9506C19.8592 7.06939 20.1346 7.13665 20.4151 7.14848C20.6956 7.16031 20.9757 7.11648 21.2392 7.01953C21.7356 6.8354 22.1462 6.47397 22.3918 6.00497C22.6373 5.53596 22.7005 4.99263 22.5692 4.47978C22.3293 3.51208 22.5337 2.54042 22.7332 2.02061C24.9082 2.76255 26.9048 3.94946 28.5956 5.50571C28.3145 5.89685 27.954 6.22433 27.5377 6.46678C27.4911 6.49378 27.4503 6.5297 27.4176 6.57249C27.3848 6.61527 27.3608 6.66408 27.347 6.71613C27.3331 6.76818 27.3296 6.82246 27.3368 6.87585C27.3439 6.92925 27.3614 6.98072 27.3884 7.02733C27.4154 7.07394 27.4513 7.11477 27.4941 7.1475C27.5369 7.18022 27.5857 7.20421 27.6378 7.21807C27.6898 7.23193 27.7441 7.23541 27.7975 7.2283C27.8509 7.22118 27.9024 7.20363 27.949 7.17662C28.4305 6.89662 28.8522 6.52466 29.1902 6.08192C29.8739 6.77905 30.4929 7.5368 31.0396 8.34584C30.4579 8.87886 29.7939 9.3143 29.0732 9.63531C29.029 9.60482 28.9843 9.57529 28.9376 9.5476C28.4243 9.24288 27.8137 9.14661 27.2316 9.27863C26.6494 9.41065 26.1401 9.76091 25.8085 10.2572C25.4351 10.2418 25.0634 10.1976 24.6968 10.1249C24.5225 10.0908 24.3581 10.0181 24.2156 9.91201C24.0732 9.80593 23.9564 9.66923 23.8739 9.51199C23.7921 9.35726 23.7461 9.18615 23.7393 9.01128C23.7325 8.83641 23.7651 8.66225 23.8346 8.50163L23.8792 8.39773C23.9863 8.15571 24.1707 7.9561 24.4035 7.83025C24.6363 7.70439 24.9044 7.65942 25.1655 7.70238C25.63 7.77385 26.1031 7.76766 26.5655 7.68406C26.6185 7.67451 26.6691 7.65461 26.7145 7.62551C26.7598 7.5964 26.7989 7.55865 26.8297 7.51442C26.8604 7.47018 26.8821 7.42033 26.8936 7.3677C26.905 7.31507 26.906 7.2607 26.8965 7.20769C26.8869 7.15468 26.867 7.10407 26.8379 7.05875C26.8088 7.01343 26.7711 6.97429 26.7268 6.94355C26.6826 6.91282 26.6328 6.8911 26.5801 6.87964C26.5275 6.86817 26.4731 6.86718 26.4201 6.87673C26.0469 6.94427 25.6651 6.94931 25.2902 6.89163C24.8494 6.82104 24.3976 6.89884 24.0058 7.11281C23.614 7.32679 23.3043 7.66482 23.1255 8.07384L23.0808 8.17768C22.9634 8.45208 22.9088 8.74928 22.9211 9.0475C22.9334 9.34572 23.0122 9.63742 23.1518 9.90124C23.2914 10.1651 23.4882 10.3943 23.7279 10.5722C23.9675 10.7501 24.244 10.8722 24.5369 10.9295C24.8445 10.9906 25.1555 11.0337 25.4682 11.0586C25.3712 11.504 25.4074 11.9681 25.5723 12.393C25.5912 12.444 25.62 12.4907 25.657 12.5304C25.6941 12.5701 25.7387 12.6021 25.7882 12.6245C25.8377 12.6468 25.8912 12.6591 25.9455 12.6606C25.9998 12.6621 26.0539 12.6529 26.1046 12.6333C26.1553 12.6138 26.2016 12.5843 26.2408 12.5467C26.28 12.5091 26.3114 12.4641 26.3331 12.4143C26.3547 12.3645 26.3663 12.3108 26.3671 12.2565C26.3679 12.2022 26.3578 12.1482 26.3376 12.0978C26.2617 11.9026 26.2274 11.6936 26.2369 11.4843C26.2465 11.275 26.2997 11.07 26.3932 10.8825C26.4023 10.8673 26.4104 10.8516 26.4175 10.8354C26.4274 10.8172 26.4371 10.7989 26.4478 10.7807C26.6004 10.5237 26.8258 10.3177 27.0955 10.1888C27.3652 10.0598 27.6671 10.0138 27.9629 10.0564C28.2588 10.099 28.5354 10.2284 28.7577 10.4283C28.98 10.6281 29.1381 10.8893 29.212 11.179C29.2393 11.2839 29.3071 11.3737 29.4004 11.4288C29.4938 11.4838 29.6051 11.4997 29.7102 11.473C29.8152 11.4462 29.9054 11.3789 29.961 11.2859C30.0166 11.1928 30.0331 11.0816 30.0069 10.9764C29.9416 10.719 29.833 10.4746 29.6856 10.2538C30.3401 9.93873 30.9474 9.53377 31.4898 9.05063C32.2767 10.3601 32.8765 11.7732 33.2718 13.2489C32.7878 13.7298 32.2604 14.1649 31.6963 14.5487C31.6511 14.5787 31.6122 14.6173 31.5821 14.6624C31.5519 14.7075 31.5309 14.7582 31.5205 14.8114C31.51 14.8646 31.5102 14.9194 31.5211 14.9726C31.5319 15.0258 31.5532 15.0763 31.5837 15.1211C31.6142 15.166 31.6533 15.2044 31.6987 15.234C31.7442 15.2637 31.7951 15.284 31.8484 15.2939C31.9018 15.3038 31.9566 15.3029 32.0096 15.2915C32.0626 15.28 32.1129 15.2581 32.1574 15.2271C32.6271 14.9074 33.0733 14.5544 33.4925 14.1708C33.7643 15.4666 33.8777 16.7907 33.8303 18.1139Z" fill="#EB844D"/>
</svg>
